<svg version="1.1" xmlns="http://www.w3.org/2000/svg" xmlns:xlink="http://www.w3.org/1999/xlink" width="600" height="400"><defs/><g transform="scale(1,1)"><g id="background-3693cee2"><rect fill="white" stroke="none" x="0" y="0" width="600" height="400" class="dcg-svg-background"/></g><g id="background-images-3693cee2"/><g id="graphpaper-3693cee2"><g id="axis-3693cee2"><path fill="none" stroke="rgb(0,0,0)" class="dcg-svg-axis-line" paint-order="fill stroke markers" d=" M 299.75 0 L 299.75 400" stroke-opacity="0.9" stroke-miterlimit="10" stroke-width="1.5" stroke-dasharray=""/><path fill="none" stroke="rgb(0,0,0)" class="dcg-svg-axis-line" paint-order="fill stroke markers" d=" M 0 199.75 L 600 199.75" stroke-opacity="0.9" stroke-miterlimit="10" stroke-width="1.5" stroke-dasharray=""/><g><g class="dcg-svg-axis-value"><text fill="none" stroke="#ffffff" font-family="Arial" font-size="14px" font-style="normal" font-weight="normal" text-decoration="normal" x="291.10693359375" y="215.808" text-anchor="middle" stroke-miterlimit="2" stroke-width="3" stroke-dasharray="">0</text><text fill="#000000" stroke="none" font-family="Arial" font-size="14px" font-style="normal" font-weight="normal" text-decoration="normal" x="291.10693359375" y="215.808" text-anchor="middle">0</text></g><g><path fill="none" stroke="rgb(0,0,0)" class="dcg-svg-tickmark" paint-order="fill stroke markers" d=" M -0.25 197 L -0.25 202.5 M 149.75 197 L 149.75 202.5 M 449.75 197 L 449.75 202.5 M 599.75 197 L 599.75 202.5 M 297 342.75 L 302.5 342.75 M 297 56.75 L 302.5 56.75" stroke-opacity="0.9" stroke-miterlimit="2" stroke-width="1.5" stroke-dasharray=""/></g><g class="dcg-svg-axis-value dcg-svg-offcenter-axis-value"><text fill="none" stroke="#ffffff" font-family="Arial" font-size="14px" font-style="normal" font-weight="normal" text-decoration="normal" x="13.1171875" y="215.808" text-anchor="middle" stroke-miterlimit="2" stroke-width="3" stroke-dasharray="">-10</text><text fill="#000000" stroke="none" font-family="Arial" font-size="14px" font-style="normal" font-weight="normal" text-decoration="normal" x="13.1171875" y="215.808" text-anchor="middle">-10</text></g><g class="dcg-svg-axis-value"><text fill="none" stroke="#ffffff" font-family="Arial" font-size="14px" font-style="normal" font-weight="normal" text-decoration="normal" x="147.6689453125" y="215.808" text-anchor="middle" stroke-miterlimit="2" stroke-width="3" stroke-dasharray="">-5</text><text fill="#000000" stroke="none" font-family="Arial" font-size="14px" font-style="normal" font-weight="normal" text-decoration="normal" x="147.6689453125" y="215.808" text-anchor="middle">-5</text></g><g class="dcg-svg-axis-value"><text fill="none" stroke="#ffffff" font-family="Arial" font-size="14px" font-style="normal" font-weight="normal" text-decoration="normal" x="450" y="215.808" text-anchor="middle" stroke-miterlimit="2" stroke-width="3" stroke-dasharray="">5</text><text fill="#000000" stroke="none" font-family="Arial" font-size="14px" font-style="normal" font-weight="normal" text-decoration="normal" x="450" y="215.808" text-anchor="middle">5</text></g><g class="dcg-svg-axis-value dcg-svg-offcenter-axis-value"><text fill="none" stroke="#ffffff" font-family="Arial" font-size="14px" font-style="normal" font-weight="normal" text-decoration="normal" x="589.2138671875" y="215.808" text-anchor="middle" stroke-miterlimit="2" stroke-width="3" stroke-dasharray="">10</text><text fill="#000000" stroke="none" font-family="Arial" font-size="14px" font-style="normal" font-weight="normal" text-decoration="normal" x="589.2138671875" y="215.808" text-anchor="middle">10</text></g><g class="dcg-svg-axis-value"><text fill="none" stroke="#ffffff" font-family="Arial" font-size="14px" font-style="normal" font-weight="normal" text-decoration="normal" x="288.77587890625" y="346.6651428571428" text-anchor="middle" stroke-miterlimit="2" stroke-width="3" stroke-dasharray="">-5</text><text fill="#000000" stroke="none" font-family="Arial" font-size="14px" font-style="normal" font-weight="normal" text-decoration="normal" x="288.77587890625" y="346.6651428571428" text-anchor="middle">-5</text></g><g class="dcg-svg-axis-value"><text fill="none" stroke="#ffffff" font-family="Arial" font-size="14px" font-style="normal" font-weight="normal" text-decoration="normal" x="291.10693359375" y="60.95085714285717" text-anchor="middle" stroke-miterlimit="2" stroke-width="3" stroke-dasharray="">5</text><text fill="#000000" stroke="none" font-family="Arial" font-size="14px" font-style="normal" font-weight="normal" text-decoration="normal" x="291.10693359375" y="60.95085714285717" text-anchor="middle">5</text></g></g></g></g><g id="expressions-3693cee2"><path fill="#2d70b3" stroke="none" paint-order="stroke fill markers" d="" fill-opacity="0.4"/><path fill="#2d70b3" stroke="none" paint-order="stroke fill markers" d="" fill-opacity="0.4"/><g><path fill="none" stroke="#2d70b3" class="dcg-svg-curve" paint-order="fill stroke markers" d=" M 209.5 113.78571428571433 L 209.5 113.78571428571433 L 209.705078125 108.00263587672771 L 210.291015625 102.44649585447758 L 211.169921875 97.35066246704196 L 212.341796875 92.4165346225862 L 213.806640625 87.5883444738688 L 215.564453125 82.8542345911548 L 217.615234375 78.2160367800306 L 219.958984375 73.68123810367968 L 222.7421875 69.03152832291744 L 225.818359375 64.56488434960482 L 229.1875 60.28129190507627 L 232.99609375 56.033169576410046 L 237.244140625 51.886755044995994 L 241.638671875 48.13310894973125 L 246.033203125 44.836348185303166 L 250.57421875 41.843006360221636 L 255.26171875 39.14082878402098 L 259.94921875 36.79152654669389 L 264.783203125 34.705147344199645 L 269.6171875 32.93413829758629 L 274.451171875 31.458144410796365 L 279.28515625 30.261524178729417 L 284.265625 29.308322237785944 L 289.24609375 28.62955570707959 L 294.2265625 28.218693401624193 L 299.20703125 28.07188270325844 L 304.1875 28.187764961145604 L 309.16796875 28.56741182048205 L 314.1484375 29.214375381811863 L 318.982421875 30.103802576626606 L 323.81640625 31.259212600805995 L 328.650390625 32.69197369383136 L 333.484375 34.41710464820824 L 338.171875 36.387629243254764 L 342.859375 38.674521732199196 L 347.400390625 41.21983162065533 L 351.94140625 44.12571128101672 L 356.3359375 47.325652055441026 L 360.583984375 50.836669976223504 L 364.685546875 54.68554965773603 L 368.640625 58.91357699461861 L 372.302734375 63.392594254242795 L 375.525390625 67.91158915731711 L 378.30859375 72.39048357301823 L 380.798828125 77.01714166686145 L 382.99609375 81.79361876975548 L 384.900390625 86.73451933266875 L 386.365234375 91.36060977201856 L 387.537109375 95.9818605182175 L 388.416015625 100.52256001868983 L 389.001953125 104.7807830687367 L 389.294921875 108.00263587672771 L 389.5 113.78571428571433" stroke-linecap="round" stroke-linejoin="round" stroke-miterlimit="10" stroke-width="2.5" stroke-opacity="0.7" stroke-dasharray=""/></g><g><path fill="none" stroke="#2d70b3" class="dcg-svg-curve" paint-order="fill stroke markers" d=" M 209.5 113.78571428571433 L 209.5 113.78571428571433 L 209.705078125 119.56879269470085 L 210.291015625 125.12493271695098 L 211.169921875 130.22076610438666 L 212.341796875 135.15489394884236 L 213.806640625 139.98308409755975 L 215.564453125 144.71719398027378 L 217.615234375 149.35539179139792 L 219.958984375 153.89019046774882 L 222.7421875 158.53990024851112 L 225.818359375 163.00654422182376 L 229.1875 167.29013666635225 L 232.99609375 171.5382589950186 L 237.244140625 175.68467352643256 L 241.638671875 179.43831962169727 L 246.033203125 182.73508038612536 L 250.57421875 185.7284222112069 L 255.26171875 188.43059978740757 L 259.94921875 190.77990202473464 L 264.783203125 192.86628122722888 L 269.6171875 194.63729027384224 L 274.451171875 196.11328416063216 L 279.28515625 197.3099043926991 L 284.265625 198.26310633364264 L 289.24609375 198.94187286434897 L 294.2265625 199.35273516980442 L 299.20703125 199.49954586817006 L 304.1875 199.38366361028295 L 309.16796875 199.0040167509465 L 314.1484375 198.35705318961672 L 318.982421875 197.46762599480195 L 323.81640625 196.3122159706226 L 328.650390625 194.87945487759717 L 333.484375 193.15432392322032 L 338.171875 191.1837993281738 L 342.859375 188.8969068392294 L 347.400390625 186.35159695077323 L 351.94140625 183.44571729041186 L 356.3359375 180.24577651598747 L 360.583984375 176.73475859520508 L 364.685546875 172.8858789136925 L 368.640625 168.65785157681003 L 372.302734375 164.17883431718585 L 375.525390625 159.65983941411142 L 378.30859375 155.18094499841033 L 380.798828125 150.5542869045671 L 382.99609375 145.7778098016731 L 384.900390625 140.8369092387598 L 386.365234375 136.21081879941 L 387.537109375 131.5895680532111 L 388.416015625 127.04886855273872 L 389.001953125 122.7906455026918 L 389.294921875 119.56879269470085 L 389.5 113.78571428571433" stroke-linecap="round" stroke-linejoin="round" stroke-miterlimit="10" stroke-width="2.5" stroke-opacity="0.7" stroke-dasharray=""/></g><path fill="#388c46" stroke="none" paint-order="stroke fill markers" d="" fill-opacity="0.4"/><g><path fill="none" stroke="#388c46" class="dcg-svg-curve" paint-order="fill stroke markers" d=" M -0.5 56.64285714285717 L -0.5 56.64285714285717 L 12.244140625 68.52233532496865 L 24.841796875 79.75852612086709 L 37.146484375 90.24703625270303 L 49.158203125 100.02219799586709 L 61.0234375 109.22845894949779 L 72.595703125 117.77688898359025 L 84.021484375 125.80001476832803 L 95.154296875 133.21878351484025 L 106.140625 140.15420968191967 L 116.98046875 146.62162017822268 L 127.52734375 152.5561992100307 L 137.927734375 158.06254441397533 L 148.181640625 163.1551652635847 L 158.2890625 167.84836687360493 L 168.25 172.15625 L 178.064453125 176.09271103995187 L 187.87890625 179.72338322230746 L 197.546875 183.00088936941964 L 207.068359375 185.9387171609061 L 216.58984375 188.58873966761996 L 225.96484375 190.91679491315568 L 235.33984375 192.96583230154855 L 244.568359375 194.71034104483468 L 253.796875 196.18448311941964 L 263.025390625 197.38825852530343 L 272.107421875 198.30896295819963 L 281.189453125 198.96781567164828 L 290.271484375 199.3648166656494 L 299.353515625 199.49996594020297 L 308.435546875 199.373263495309 L 317.517578125 198.9847093309675 L 326.599609375 198.33430344717843 L 335.681640625 197.42204584394182 L 344.763671875 196.24793652125766 L 353.9921875 194.78666904994418 L 363.220703125 193.05503490992953 L 372.44921875 191.0530341012137 L 381.82421875 188.74241747174943 L 391.19921875 186.1527829851423 L 400.720703125 183.23709406171525 L 410.2421875 180.03359985351562 L 419.91015625 176.48634011404855 L 429.724609375 172.5818271636963 L 439.5390625 168.3715253557478 L 449.5 163.7857142857143 L 459.607421875 158.81049755641394 L 469.861328125 153.43177441188269 L 480.26171875 147.63523973737446 L 490.80859375 141.40638405936107 L 501.501953125 134.73049354553223 L 512.48828125 127.49363817487443 L 523.62109375 119.76942116873607 L 534.900390625 111.54231125967846 L 546.47265625 102.68175724574502 L 558.19140625 93.27580370221824 L 570.203125 83.1822509765625 L 582.361328125 72.49915722438271 L 594.8125 61.072265625 L 599.5 56.64285714285717" stroke-linecap="round" stroke-linejoin="round" stroke-miterlimit="10" stroke-width="2.5" stroke-opacity="0.7" stroke-dasharray=""/></g></g><g id="labels-3693cee2"/></g></svg>