<svg version="1.1" xmlns="http://www.w3.org/2000/svg" xmlns:xlink="http://www.w3.org/1999/xlink" width="600" height="400"><defs/><g transform="scale(1,1)"><g id="background-aa97bac3"><rect fill="white" stroke="none" x="0" y="0" width="600" height="400" class="dcg-svg-background"/></g><g id="background-images-aa97bac3"/><g id="graphpaper-aa97bac3"><g id="grid-aa97bac3"><g><path fill="none" stroke="rgb(0,0,0)" class="dcg-svg-minor-gridline" paint-order="fill stroke markers" d=" M 10.5 0 L 10.5 400" stroke-opacity="0.12" stroke-miterlimit="10" stroke-dasharray=""/><path fill="none" stroke="rgb(0,0,0)" class="dcg-svg-minor-gridline" paint-order="fill stroke markers" d=" M 32.5 0 L 32.5 400" stroke-opacity="0.12" stroke-miterlimit="10" stroke-dasharray=""/><path fill="none" stroke="rgb(0,0,0)" class="dcg-svg-minor-gridline" paint-order="fill stroke markers" d=" M 55.5 0 L 55.5 400" stroke-opacity="0.12" stroke-miterlimit="10" stroke-dasharray=""/><path fill="none" stroke="rgb(0,0,0)" class="dcg-svg-minor-gridline" paint-order="fill stroke markers" d=" M 77.5 0 L 77.5 400" stroke-opacity="0.12" stroke-miterlimit="10" stroke-dasharray=""/><path fill="none" stroke="rgb(0,0,0)" class="dcg-svg-minor-gridline" paint-order="fill stroke markers" d=" M 99.5 0 L 99.5 400" stroke-opacity="0.12" stroke-miterlimit="10" stroke-dasharray=""/><path fill="none" stroke="rgb(0,0,0)" class="dcg-svg-minor-gridline" paint-order="fill stroke markers" d=" M 121.5 0 L 121.5 400" stroke-opacity="0.12" stroke-miterlimit="10" stroke-dasharray=""/><path fill="none" stroke="rgb(0,0,0)" class="dcg-svg-minor-gridline" paint-order="fill stroke markers" d=" M 143.5 0 L 143.5 400" stroke-opacity="0.12" stroke-miterlimit="10" stroke-dasharray=""/><path fill="none" stroke="rgb(0,0,0)" class="dcg-svg-minor-gridline" paint-order="fill stroke markers" d=" M 166.5 0 L 166.5 400" stroke-opacity="0.12" stroke-miterlimit="10" stroke-dasharray=""/><path fill="none" stroke="rgb(0,0,0)" class="dcg-svg-minor-gridline" paint-order="fill stroke markers" d=" M 188.5 0 L 188.5 400" stroke-opacity="0.12" stroke-miterlimit="10" stroke-dasharray=""/><path fill="none" stroke="rgb(0,0,0)" class="dcg-svg-minor-gridline" paint-order="fill stroke markers" d=" M 210.5 0 L 210.5 400" stroke-opacity="0.12" stroke-miterlimit="10" stroke-dasharray=""/><path fill="none" stroke="rgb(0,0,0)" class="dcg-svg-minor-gridline" paint-order="fill stroke markers" d=" M 232.5 0 L 232.5 400" stroke-opacity="0.12" stroke-miterlimit="10" stroke-dasharray=""/><path fill="none" stroke="rgb(0,0,0)" class="dcg-svg-minor-gridline" paint-order="fill stroke markers" d=" M 255.5 0 L 255.5 400" stroke-opacity="0.12" stroke-miterlimit="10" stroke-dasharray=""/><path fill="none" stroke="rgb(0,0,0)" class="dcg-svg-minor-gridline" paint-order="fill stroke markers" d=" M 277.5 0 L 277.5 400" stroke-opacity="0.12" stroke-miterlimit="10" stroke-dasharray=""/><path fill="none" stroke="rgb(0,0,0)" class="dcg-svg-minor-gridline" paint-order="fill stroke markers" d=" M 321.5 0 L 321.5 400" stroke-opacity="0.12" stroke-miterlimit="10" stroke-dasharray=""/><path fill="none" stroke="rgb(0,0,0)" class="dcg-svg-minor-gridline" paint-order="fill stroke markers" d=" M 343.5 0 L 343.5 400" stroke-opacity="0.12" stroke-miterlimit="10" stroke-dasharray=""/><path fill="none" stroke="rgb(0,0,0)" class="dcg-svg-minor-gridline" paint-order="fill stroke markers" d=" M 366.5 0 L 366.5 400" stroke-opacity="0.12" stroke-miterlimit="10" stroke-dasharray=""/><path fill="none" stroke="rgb(0,0,0)" class="dcg-svg-minor-gridline" paint-order="fill stroke markers" d=" M 388.5 0 L 388.5 400" stroke-opacity="0.12" stroke-miterlimit="10" stroke-dasharray=""/><path fill="none" stroke="rgb(0,0,0)" class="dcg-svg-minor-gridline" paint-order="fill stroke markers" d=" M 410.5 0 L 410.5 400" stroke-opacity="0.12" stroke-miterlimit="10" stroke-dasharray=""/><path fill="none" stroke="rgb(0,0,0)" class="dcg-svg-minor-gridline" paint-order="fill stroke markers" d=" M 432.5 0 L 432.5 400" stroke-opacity="0.12" stroke-miterlimit="10" stroke-dasharray=""/><path fill="none" stroke="rgb(0,0,0)" class="dcg-svg-minor-gridline" paint-order="fill stroke markers" d=" M 455.5 0 L 455.5 400" stroke-opacity="0.12" stroke-miterlimit="10" stroke-dasharray=""/><path fill="none" stroke="rgb(0,0,0)" class="dcg-svg-minor-gridline" paint-order="fill stroke markers" d=" M 477.5 0 L 477.5 400" stroke-opacity="0.12" stroke-miterlimit="10" stroke-dasharray=""/><path fill="none" stroke="rgb(0,0,0)" class="dcg-svg-minor-gridline" paint-order="fill stroke markers" d=" M 499.5 0 L 499.5 400" stroke-opacity="0.12" stroke-miterlimit="10" stroke-dasharray=""/><path fill="none" stroke="rgb(0,0,0)" class="dcg-svg-minor-gridline" paint-order="fill stroke markers" d=" M 521.5 0 L 521.5 400" stroke-opacity="0.12" stroke-miterlimit="10" stroke-dasharray=""/><path fill="none" stroke="rgb(0,0,0)" class="dcg-svg-minor-gridline" paint-order="fill stroke markers" d=" M 543.5 0 L 543.5 400" stroke-opacity="0.12" stroke-miterlimit="10" stroke-dasharray=""/><path fill="none" stroke="rgb(0,0,0)" class="dcg-svg-minor-gridline" paint-order="fill stroke markers" d=" M 566.5 0 L 566.5 400" stroke-opacity="0.12" stroke-miterlimit="10" stroke-dasharray=""/><path fill="none" stroke="rgb(0,0,0)" class="dcg-svg-minor-gridline" paint-order="fill stroke markers" d=" M 588.5 0 L 588.5 400" stroke-opacity="0.12" stroke-miterlimit="10" stroke-dasharray=""/><path fill="none" stroke="rgb(0,0,0)" class="dcg-svg-minor-gridline" paint-order="fill stroke markers" d=" M 0 379.5 L 600 379.5" stroke-opacity="0.12" stroke-miterlimit="10" stroke-dasharray=""/><path fill="none" stroke="rgb(0,0,0)" class="dcg-svg-minor-gridline" paint-order="fill stroke markers" d=" M 0 359.5 L 600 359.5" stroke-opacity="0.12" stroke-miterlimit="10" stroke-dasharray=""/><path fill="none" stroke="rgb(0,0,0)" class="dcg-svg-minor-gridline" paint-order="fill stroke markers" d=" M 0 339.5 L 600 339.5" stroke-opacity="0.12" stroke-miterlimit="10" stroke-dasharray=""/><path fill="none" stroke="rgb(0,0,0)" class="dcg-svg-minor-gridline" paint-order="fill stroke markers" d=" M 0 319.5 L 600 319.5" stroke-opacity="0.12" stroke-miterlimit="10" stroke-dasharray=""/><path fill="none" stroke="rgb(0,0,0)" class="dcg-svg-minor-gridline" paint-order="fill stroke markers" d=" M 0 299.5 L 600 299.5" stroke-opacity="0.12" stroke-miterlimit="10" stroke-dasharray=""/><path fill="none" stroke="rgb(0,0,0)" class="dcg-svg-minor-gridline" paint-order="fill stroke markers" d=" M 0 279.5 L 600 279.5" stroke-opacity="0.12" stroke-miterlimit="10" stroke-dasharray=""/><path fill="none" stroke="rgb(0,0,0)" class="dcg-svg-minor-gridline" paint-order="fill stroke markers" d=" M 0 259.5 L 600 259.5" stroke-opacity="0.12" stroke-miterlimit="10" stroke-dasharray=""/><path fill="none" stroke="rgb(0,0,0)" class="dcg-svg-minor-gridline" paint-order="fill stroke markers" d=" M 0 239.5 L 600 239.5" stroke-opacity="0.12" stroke-miterlimit="10" stroke-dasharray=""/><path fill="none" stroke="rgb(0,0,0)" class="dcg-svg-minor-gridline" paint-order="fill stroke markers" d=" M 0 219.5 L 600 219.5" stroke-opacity="0.12" stroke-miterlimit="10" stroke-dasharray=""/><path fill="none" stroke="rgb(0,0,0)" class="dcg-svg-minor-gridline" paint-order="fill stroke markers" d=" M 0 179.5 L 600 179.5" stroke-opacity="0.12" stroke-miterlimit="10" stroke-dasharray=""/><path fill="none" stroke="rgb(0,0,0)" class="dcg-svg-minor-gridline" paint-order="fill stroke markers" d=" M 0 159.5 L 600 159.5" stroke-opacity="0.12" stroke-miterlimit="10" stroke-dasharray=""/><path fill="none" stroke="rgb(0,0,0)" class="dcg-svg-minor-gridline" paint-order="fill stroke markers" d=" M 0 139.5 L 600 139.5" stroke-opacity="0.12" stroke-miterlimit="10" stroke-dasharray=""/><path fill="none" stroke="rgb(0,0,0)" class="dcg-svg-minor-gridline" paint-order="fill stroke markers" d=" M 0 119.5 L 600 119.5" stroke-opacity="0.12" stroke-miterlimit="10" stroke-dasharray=""/><path fill="none" stroke="rgb(0,0,0)" class="dcg-svg-minor-gridline" paint-order="fill stroke markers" d=" M 0 99.5 L 600 99.5" stroke-opacity="0.12" stroke-miterlimit="10" stroke-dasharray=""/><path fill="none" stroke="rgb(0,0,0)" class="dcg-svg-minor-gridline" paint-order="fill stroke markers" d=" M 0 79.5 L 600 79.5" stroke-opacity="0.12" stroke-miterlimit="10" stroke-dasharray=""/><path fill="none" stroke="rgb(0,0,0)" class="dcg-svg-minor-gridline" paint-order="fill stroke markers" d=" M 0 59.5 L 600 59.5" stroke-opacity="0.12" stroke-miterlimit="10" stroke-dasharray=""/><path fill="none" stroke="rgb(0,0,0)" class="dcg-svg-minor-gridline" paint-order="fill stroke markers" d=" M 0 39.5 L 600 39.5" stroke-opacity="0.12" stroke-miterlimit="10" stroke-dasharray=""/><path fill="none" stroke="rgb(0,0,0)" class="dcg-svg-minor-gridline" paint-order="fill stroke markers" d=" M 0 19.5 L 600 19.5" stroke-opacity="0.12" stroke-miterlimit="10" stroke-dasharray=""/><path fill="none" stroke="rgb(0,0,0)" class="dcg-svg-minor-gridline" paint-order="fill stroke markers" d=" M 0 -0.5 L 600 -0.5" stroke-opacity="0.12" stroke-miterlimit="10" stroke-dasharray=""/><path fill="none" stroke="rgb(0,0,0)" class="dcg-svg-major-gridline" paint-order="fill stroke markers" d=" M 77.5 0 L 77.5 400" stroke-opacity="0.31818181818181823" stroke-miterlimit="10" stroke-dasharray=""/><path fill="none" stroke="rgb(0,0,0)" class="dcg-svg-major-gridline" paint-order="fill stroke markers" d=" M 188.5 0 L 188.5 400" stroke-opacity="0.31818181818181823" stroke-miterlimit="10" stroke-dasharray=""/><path fill="none" stroke="rgb(0,0,0)" class="dcg-svg-major-gridline" paint-order="fill stroke markers" d=" M 410.5 0 L 410.5 400" stroke-opacity="0.31818181818181823" stroke-miterlimit="10" stroke-dasharray=""/><path fill="none" stroke="rgb(0,0,0)" class="dcg-svg-major-gridline" paint-order="fill stroke markers" d=" M 521.5 0 L 521.5 400" stroke-opacity="0.31818181818181823" stroke-miterlimit="10" stroke-dasharray=""/><path fill="none" stroke="rgb(0,0,0)" class="dcg-svg-major-gridline" paint-order="fill stroke markers" d=" M 0 359.5 L 600 359.5" stroke-opacity="0.31818181818181823" stroke-miterlimit="10" stroke-dasharray=""/><path fill="none" stroke="rgb(0,0,0)" class="dcg-svg-major-gridline" paint-order="fill stroke markers" d=" M 0 279.5 L 600 279.5" stroke-opacity="0.31818181818181823" stroke-miterlimit="10" stroke-dasharray=""/><path fill="none" stroke="rgb(0,0,0)" class="dcg-svg-major-gridline" paint-order="fill stroke markers" d=" M 0 119.5 L 600 119.5" stroke-opacity="0.31818181818181823" stroke-miterlimit="10" stroke-dasharray=""/><path fill="none" stroke="rgb(0,0,0)" class="dcg-svg-major-gridline" paint-order="fill stroke markers" d=" M 0 39.5 L 600 39.5" stroke-opacity="0.31818181818181823" stroke-miterlimit="10" stroke-dasharray=""/></g></g><g id="axis-aa97bac3"><path fill="none" stroke="rgb(0,0,0)" class="dcg-svg-axis-line" paint-order="fill stroke markers" d=" M 299.75 0 L 299.75 400" stroke-opacity="0.9" stroke-miterlimit="10" stroke-width="1.5" stroke-dasharray=""/><path fill="none" stroke="rgb(0,0,0)" class="dcg-svg-axis-line" paint-order="fill stroke markers" d=" M 0 199.75 L 600 199.75" stroke-opacity="0.9" stroke-miterlimit="10" stroke-width="1.5" stroke-dasharray=""/><g><g class="dcg-svg-axis-value"><text fill="none" stroke="#ffffff" font-family="Arial" font-size="14px" font-style="normal" font-weight="normal" text-decoration="normal" x="291.10693359375" y="215.808" text-anchor="middle" stroke-miterlimit="2" stroke-width="3" stroke-dasharray="">0</text><text fill="#000000" stroke="none" font-family="Arial" font-size="14px" font-style="normal" font-weight="normal" text-decoration="normal" x="291.10693359375" y="215.808" text-anchor="middle">0</text></g><g class="dcg-svg-axis-value"><text fill="none" stroke="#ffffff" font-family="Arial" font-size="14px" font-style="normal" font-weight="normal" text-decoration="normal" x="75.44672309027777" y="215.808" text-anchor="middle" stroke-miterlimit="2" stroke-width="3" stroke-dasharray="">-200</text><text fill="#000000" stroke="none" font-family="Arial" font-size="14px" font-style="normal" font-weight="normal" text-decoration="normal" x="75.44672309027777" y="215.808" text-anchor="middle">-200</text></g><g class="dcg-svg-axis-value"><text fill="none" stroke="#ffffff" font-family="Arial" font-size="14px" font-style="normal" font-weight="normal" text-decoration="normal" x="186.55783420138889" y="215.808" text-anchor="middle" stroke-miterlimit="2" stroke-width="3" stroke-dasharray="">-100</text><text fill="#000000" stroke="none" font-family="Arial" font-size="14px" font-style="normal" font-weight="normal" text-decoration="normal" x="186.55783420138889" y="215.808" text-anchor="middle">-100</text></g><g class="dcg-svg-axis-value"><text fill="none" stroke="#ffffff" font-family="Arial" font-size="14px" font-style="normal" font-weight="normal" text-decoration="normal" x="411.1111111111111" y="215.808" text-anchor="middle" stroke-miterlimit="2" stroke-width="3" stroke-dasharray="">100</text><text fill="#000000" stroke="none" font-family="Arial" font-size="14px" font-style="normal" font-weight="normal" text-decoration="normal" x="411.1111111111111" y="215.808" text-anchor="middle">100</text></g><g class="dcg-svg-axis-value"><text fill="none" stroke="#ffffff" font-family="Arial" font-size="14px" font-style="normal" font-weight="normal" text-decoration="normal" x="522.2222222222222" y="215.808" text-anchor="middle" stroke-miterlimit="2" stroke-width="3" stroke-dasharray="">200</text><text fill="#000000" stroke="none" font-family="Arial" font-size="14px" font-style="normal" font-weight="normal" text-decoration="normal" x="522.2222222222222" y="215.808" text-anchor="middle">200</text></g><g class="dcg-svg-axis-value"><text fill="none" stroke="#ffffff" font-family="Arial" font-size="14px" font-style="normal" font-weight="normal" text-decoration="normal" x="284.8828125" y="363.808" text-anchor="middle" stroke-miterlimit="2" stroke-width="3" stroke-dasharray="">-40</text><text fill="#000000" stroke="none" font-family="Arial" font-size="14px" font-style="normal" font-weight="normal" text-decoration="normal" x="284.8828125" y="363.808" text-anchor="middle">-40</text></g><g class="dcg-svg-axis-value"><text fill="none" stroke="#ffffff" font-family="Arial" font-size="14px" font-style="normal" font-weight="normal" text-decoration="normal" x="284.8828125" y="283.808" text-anchor="middle" stroke-miterlimit="2" stroke-width="3" stroke-dasharray="">-20</text><text fill="#000000" stroke="none" font-family="Arial" font-size="14px" font-style="normal" font-weight="normal" text-decoration="normal" x="284.8828125" y="283.808" text-anchor="middle">-20</text></g><g class="dcg-svg-axis-value"><text fill="none" stroke="#ffffff" font-family="Arial" font-size="14px" font-style="normal" font-weight="normal" text-decoration="normal" x="287.2138671875" y="123.808" text-anchor="middle" stroke-miterlimit="2" stroke-width="3" stroke-dasharray="">20</text><text fill="#000000" stroke="none" font-family="Arial" font-size="14px" font-style="normal" font-weight="normal" text-decoration="normal" x="287.2138671875" y="123.808" text-anchor="middle">20</text></g><g class="dcg-svg-axis-value"><text fill="none" stroke="#ffffff" font-family="Arial" font-size="14px" font-style="normal" font-weight="normal" text-decoration="normal" x="287.2138671875" y="43.808" text-anchor="middle" stroke-miterlimit="2" stroke-width="3" stroke-dasharray="">40</text><text fill="#000000" stroke="none" font-family="Arial" font-size="14px" font-style="normal" font-weight="normal" text-decoration="normal" x="287.2138671875" y="43.808" text-anchor="middle">40</text></g></g></g></g><g id="expressions-aa97bac3"><path fill="#2d70b3" stroke="none" paint-order="stroke fill markers" d="" fill-opacity="0.4"/><g><path fill="none" stroke="#2d70b3" class="dcg-svg-curve" paint-order="fill stroke markers" d=" M 0.7897332006904939 403 L 0.7897332006904939 403 L 0.96484375 373.308958475814 L 1.55078125 323.628216405152 L 2.13671875 296.0223476944087 L 2.869140625 275.0118755198235 L 3.6015625 261.49965871452514 L 4.48046875 250.52495235957792 L 5.359375 242.8371219702064 L 6.091796875 237.99287387829793 L 6.82421875 234.11439422504048 L 7.556640625 230.9382887962793 L 8.435546875 227.81090959224088 L 9.314453125 225.24033494687782 L 10.193359375 223.08926561240864 L 11.21875 220.9839617400149 L 12.244140625 219.2139392508022 L 13.416015625 217.50652035605268 L 14.734375 215.89505714058433 L 16.19921875 214.39772861300267 L 17.810546875 213.02154413123048 L 19.71484375 211.67082310747674 L 21.912109375 210.3887450205104 L 24.548828125 209.1359436131284 L 27.625 207.95728943019455 L 31.287109375 206.83396094251248 L 35.681640625 205.76341862052172 L 40.955078125 204.74893151666458 L 47.546875 203.75328715143107 L 55.896484375 202.7673413404884 L 66.736328125 201.76192125577344 L 81.970703125 200.63010412447196 L 139.24609375 196.61813421660267 L 149.20703125 195.53664714954255 L 156.677734375 194.4785175769909 L 162.537109375 193.40283970206414 L 167.224609375 192.29800077210575 L 171.1796875 191.10940953086376 L 174.40234375 189.88488989385885 L 177.0390625 188.6370036951626 L 179.3828125 187.2659390248969 L 181.287109375 185.9018071741762 L 183.044921875 184.37084037899766 L 184.509765625 182.8275344723533 L 185.828125 181.16155176262805 L 187 179.3906420314966 L 188.025390625 177.54855140988982 L 189.05078125 175.34919912178188 L 189.9296875 173.09263475586937 L 190.80859375 170.38344338989975 L 191.541015625 167.6718409150653 L 192.2734375 164.41371825097477 L 193.005859375 160.4241587273989 L 193.73828125 155.42422066920582 L 194.470703125 148.97247258527253 L 195.203125 140.32650752808718 L 195.935546875 128.13372173257454 L 196.521484375 114.06748647868494 L 197.107421875 93.11768261056443 L 197.693359375 58.58678143430882 L 198.1328125 13.271878930101025 L 198.21385335441428 -3" stroke-linecap="round" stroke-linejoin="round" stroke-miterlimit="10" stroke-width="2.5" stroke-opacity="0.7" stroke-dasharray=""/></g><g><path fill="none" stroke="#2d70b3" class="dcg-svg-curve" paint-order="fill stroke markers" d=" M 200.78305757773998 403 L 200.78305757773998 403 L 201.0625 362.44193548833334 L 201.6484375 317.98202652329104 L 202.234375 292.57110246849794 L 202.966796875 272.88074588262987 L 203.845703125 258.00658670244906 L 204.724609375 248.13061262298726 L 205.603515625 241.09360326746463 L 206.3359375 236.6080695376212 L 207.068359375 232.98772087386425 L 207.80078125 230.00353486382426 L 208.6796875 227.04784200308796 L 209.55859375 224.60543417078586 L 210.4375 222.55256802047523 L 211.462890625 220.53534442903907 L 212.634765625 218.6114426057091 L 213.806640625 216.99862916914068 L 215.125 215.46889513508034 L 216.58984375 214.04088018666152 L 218.34765625 212.6137823343224 L 220.3984375 211.2441484843461 L 222.7421875 209.9651153746136 L 225.525390625 208.73334932794296 L 228.748046875 207.5851262937153 L 232.556640625 206.49827160690975 L 237.244140625 205.43700806982267 L 242.95703125 204.42001107494937 L 249.98828125 203.4391066207821 L 259.0703125 202.4476233885086 L 271.08203125 201.41443390621015 L 288.66015625 200.18774685423315 L 332.166015625 197.24616972710015 L 344.03125 196.13429646397097 L 352.8203125 195.05937677105504 L 359.55859375 193.98380280921705 L 364.83203125 192.89551982138823 L 369.2265625 191.7322191263046 L 372.7421875 190.55035901978584 L 375.671875 189.31691606515605 L 378.162109375 188.01621165988433 L 380.359375 186.59926316317458 L 382.1171875 185.21647945930806 L 383.728515625 183.6855801545223 L 385.193359375 182.00137083085932 L 386.365234375 180.3885573942909 L 387.537109375 178.46465557096093 L 388.5625 176.44743197952477 L 389.44140625 174.39456582921414 L 390.3203125 171.95215799691204 L 391.052734375 169.5315249586647 L 391.78515625 166.65421129915381 L 392.517578125 163.17650254441145 L 393.25 158.88731844956453 L 393.982421875 153.4635012023299 L 394.71484375 146.384041772769 L 395.447265625 136.75129869071816 L 396.1796875 122.87559461714977 L 396.765625 106.42889753150206 L 397.3515625 81.01797347670896 L 397.791015625 50.53038959802393 L 398.23046875 -1.0576093422433814 L 398.2399244921501 -3" stroke-linecap="round" stroke-linejoin="round" stroke-miterlimit="10" stroke-width="2.5" stroke-opacity="0.7" stroke-dasharray=""/></g><g><path fill="none" stroke="#2d70b3" class="dcg-svg-curve" paint-order="fill stroke markers" d=" M 400.78830065644405 403 L 400.78830065644405 403 L 401.013671875 367.7002054140555 L 401.599609375 320.7394918865011 L 402.185546875 294.2653687318026 L 402.91796875 273.931102972873 L 403.796875 258.6734924719128 L 404.67578125 248.59144877271999 L 405.5546875 241.43109160678625 L 406.287109375 236.87708986995835 L 407.01953125 233.2072294047639 L 407.751953125 230.18608514585185 L 408.630859375 227.1972131145444 L 409.509765625 224.72995681521525 L 410.388671875 222.6580007241139 L 411.4140625 220.62361401451 L 412.439453125 218.90820655937313 L 413.611328125 217.24911768810543 L 414.9296875 215.67933192380997 L 416.39453125 214.21729033737034 L 418.15234375 212.759419805622 L 420.056640625 211.4540627360425 L 422.25390625 210.21072777599036 L 424.890625 208.99170380490733 L 427.966796875 207.84112699073125 L 431.62890625 206.74120274741054 L 436.0234375 205.68990385729728 L 441.443359375 204.6662534875112 L 448.181640625 203.6691979900371 L 456.677734375 202.68631006785682 L 467.810546875 201.67367694534622 L 483.484375 200.52807197571352 L 537.390625 196.79163731172227 L 547.791015625 195.70919187749718 L 555.701171875 194.6336019014811 L 561.853515625 193.54329367875755 L 566.6875 192.43901251962325 L 570.642578125 191.2884857094621 L 574.01171875 190.04883460774695 L 576.794921875 188.76415544881365 L 579.138671875 187.42293463079588 L 581.189453125 185.97845586876952 L 582.947265625 184.46421340849506 L 584.412109375 182.93955483077465 L 585.73046875 181.29571320290313 L 586.90234375 179.55062451575816 L 587.927734375 177.7378869360979 L 588.953125 175.57690414651788 L 589.83203125 173.36345820468244 L 590.7109375 170.71103882664448 L 591.443359375 168.0617112037207 L 592.17578125 164.88560577495952 L 592.908203125 161.00712612170207 L 593.640625 156.1628780297936 L 594.373046875 149.93895677682855 L 595.10546875 141.6455217068517 L 595.837890625 130.0408602949525 L 596.5703125 112.64154830906239 L 597.15625 90.89931733720266 L 597.7421875 54.67045143151063 L 598.181640625 6.372457805294516 L 598.2242836843964 -3" stroke-linecap="round" stroke-linejoin="round" stroke-miterlimit="10" stroke-width="2.5" stroke-opacity="0.7" stroke-dasharray=""/></g></g><g id="labels-aa97bac3"/></g></svg>