<svg version="1.1" xmlns="http://www.w3.org/2000/svg" xmlns:xlink="http://www.w3.org/1999/xlink" width="600" height="400"><defs/><g transform="scale(1,1)"><g id="background-1fdbfbb6"><rect fill="white" stroke="none" x="0" y="0" width="600" height="400" class="dcg-svg-background"/></g><g id="background-images-1fdbfbb6"/><g id="graphpaper-1fdbfbb6"><g id="grid-1fdbfbb6"><g><path fill="none" stroke="rgb(0,0,0)" class="dcg-svg-minor-gridline" paint-order="fill stroke markers" d=" M 30.5 0 L 30.5 400" stroke-opacity="0.12" stroke-miterlimit="10" stroke-dasharray=""/><path fill="none" stroke="rgb(0,0,0)" class="dcg-svg-minor-gridline" paint-order="fill stroke markers" d=" M 60.5 0 L 60.5 400" stroke-opacity="0.12" stroke-miterlimit="10" stroke-dasharray=""/><path fill="none" stroke="rgb(0,0,0)" class="dcg-svg-minor-gridline" paint-order="fill stroke markers" d=" M 90.5 0 L 90.5 400" stroke-opacity="0.12" stroke-miterlimit="10" stroke-dasharray=""/><path fill="none" stroke="rgb(0,0,0)" class="dcg-svg-minor-gridline" paint-order="fill stroke markers" d=" M 120.5 0 L 120.5 400" stroke-opacity="0.12" stroke-miterlimit="10" stroke-dasharray=""/><path fill="none" stroke="rgb(0,0,0)" class="dcg-svg-minor-gridline" paint-order="fill stroke markers" d=" M 150.5 0 L 150.5 400" stroke-opacity="0.12" stroke-miterlimit="10" stroke-dasharray=""/><path fill="none" stroke="rgb(0,0,0)" class="dcg-svg-minor-gridline" paint-order="fill stroke markers" d=" M 180.5 0 L 180.5 400" stroke-opacity="0.12" stroke-miterlimit="10" stroke-dasharray=""/><path fill="none" stroke="rgb(0,0,0)" class="dcg-svg-minor-gridline" paint-order="fill stroke markers" d=" M 210.5 0 L 210.5 400" stroke-opacity="0.12" stroke-miterlimit="10" stroke-dasharray=""/><path fill="none" stroke="rgb(0,0,0)" class="dcg-svg-minor-gridline" paint-order="fill stroke markers" d=" M 240.5 0 L 240.5 400" stroke-opacity="0.12" stroke-miterlimit="10" stroke-dasharray=""/><path fill="none" stroke="rgb(0,0,0)" class="dcg-svg-minor-gridline" paint-order="fill stroke markers" d=" M 270.5 0 L 270.5 400" stroke-opacity="0.12" stroke-miterlimit="10" stroke-dasharray=""/><path fill="none" stroke="rgb(0,0,0)" class="dcg-svg-minor-gridline" paint-order="fill stroke markers" d=" M 330.5 0 L 330.5 400" stroke-opacity="0.12" stroke-miterlimit="10" stroke-dasharray=""/><path fill="none" stroke="rgb(0,0,0)" class="dcg-svg-minor-gridline" paint-order="fill stroke markers" d=" M 360.5 0 L 360.5 400" stroke-opacity="0.12" stroke-miterlimit="10" stroke-dasharray=""/><path fill="none" stroke="rgb(0,0,0)" class="dcg-svg-minor-gridline" paint-order="fill stroke markers" d=" M 390.5 0 L 390.5 400" stroke-opacity="0.12" stroke-miterlimit="10" stroke-dasharray=""/><path fill="none" stroke="rgb(0,0,0)" class="dcg-svg-minor-gridline" paint-order="fill stroke markers" d=" M 420.5 0 L 420.5 400" stroke-opacity="0.12" stroke-miterlimit="10" stroke-dasharray=""/><path fill="none" stroke="rgb(0,0,0)" class="dcg-svg-minor-gridline" paint-order="fill stroke markers" d=" M 450.5 0 L 450.5 400" stroke-opacity="0.12" stroke-miterlimit="10" stroke-dasharray=""/><path fill="none" stroke="rgb(0,0,0)" class="dcg-svg-minor-gridline" paint-order="fill stroke markers" d=" M 480.5 0 L 480.5 400" stroke-opacity="0.12" stroke-miterlimit="10" stroke-dasharray=""/><path fill="none" stroke="rgb(0,0,0)" class="dcg-svg-minor-gridline" paint-order="fill stroke markers" d=" M 510.5 0 L 510.5 400" stroke-opacity="0.12" stroke-miterlimit="10" stroke-dasharray=""/><path fill="none" stroke="rgb(0,0,0)" class="dcg-svg-minor-gridline" paint-order="fill stroke markers" d=" M 540.5 0 L 540.5 400" stroke-opacity="0.12" stroke-miterlimit="10" stroke-dasharray=""/><path fill="none" stroke="rgb(0,0,0)" class="dcg-svg-minor-gridline" paint-order="fill stroke markers" d=" M 570.5 0 L 570.5 400" stroke-opacity="0.12" stroke-miterlimit="10" stroke-dasharray=""/><path fill="none" stroke="rgb(0,0,0)" class="dcg-svg-minor-gridline" paint-order="fill stroke markers" d=" M 0 371.5 L 600 371.5" stroke-opacity="0.12" stroke-miterlimit="10" stroke-dasharray=""/><path fill="none" stroke="rgb(0,0,0)" class="dcg-svg-minor-gridline" paint-order="fill stroke markers" d=" M 0 342.5 L 600 342.5" stroke-opacity="0.12" stroke-miterlimit="10" stroke-dasharray=""/><path fill="none" stroke="rgb(0,0,0)" class="dcg-svg-minor-gridline" paint-order="fill stroke markers" d=" M 0 314.5 L 600 314.5" stroke-opacity="0.12" stroke-miterlimit="10" stroke-dasharray=""/><path fill="none" stroke="rgb(0,0,0)" class="dcg-svg-minor-gridline" paint-order="fill stroke markers" d=" M 0 285.5 L 600 285.5" stroke-opacity="0.12" stroke-miterlimit="10" stroke-dasharray=""/><path fill="none" stroke="rgb(0,0,0)" class="dcg-svg-minor-gridline" paint-order="fill stroke markers" d=" M 0 257.5 L 600 257.5" stroke-opacity="0.12" stroke-miterlimit="10" stroke-dasharray=""/><path fill="none" stroke="rgb(0,0,0)" class="dcg-svg-minor-gridline" paint-order="fill stroke markers" d=" M 0 228.5 L 600 228.5" stroke-opacity="0.12" stroke-miterlimit="10" stroke-dasharray=""/><path fill="none" stroke="rgb(0,0,0)" class="dcg-svg-minor-gridline" paint-order="fill stroke markers" d=" M 0 171.5 L 600 171.5" stroke-opacity="0.12" stroke-miterlimit="10" stroke-dasharray=""/><path fill="none" stroke="rgb(0,0,0)" class="dcg-svg-minor-gridline" paint-order="fill stroke markers" d=" M 0 142.5 L 600 142.5" stroke-opacity="0.12" stroke-miterlimit="10" stroke-dasharray=""/><path fill="none" stroke="rgb(0,0,0)" class="dcg-svg-minor-gridline" paint-order="fill stroke markers" d=" M 0 114.5 L 600 114.5" stroke-opacity="0.12" stroke-miterlimit="10" stroke-dasharray=""/><path fill="none" stroke="rgb(0,0,0)" class="dcg-svg-minor-gridline" paint-order="fill stroke markers" d=" M 0 85.5 L 600 85.5" stroke-opacity="0.12" stroke-miterlimit="10" stroke-dasharray=""/><path fill="none" stroke="rgb(0,0,0)" class="dcg-svg-minor-gridline" paint-order="fill stroke markers" d=" M 0 57.5 L 600 57.5" stroke-opacity="0.12" stroke-miterlimit="10" stroke-dasharray=""/><path fill="none" stroke="rgb(0,0,0)" class="dcg-svg-minor-gridline" paint-order="fill stroke markers" d=" M 0 28.5 L 600 28.5" stroke-opacity="0.12" stroke-miterlimit="10" stroke-dasharray=""/><path fill="none" stroke="rgb(0,0,0)" class="dcg-svg-major-gridline" paint-order="fill stroke markers" d=" M 150.5 0 L 150.5 400" stroke-opacity="0.31818181818181823" stroke-miterlimit="10" stroke-dasharray=""/><path fill="none" stroke="rgb(0,0,0)" class="dcg-svg-major-gridline" paint-order="fill stroke markers" d=" M 450.5 0 L 450.5 400" stroke-opacity="0.31818181818181823" stroke-miterlimit="10" stroke-dasharray=""/><path fill="none" stroke="rgb(0,0,0)" class="dcg-svg-major-gridline" paint-order="fill stroke markers" d=" M 0 342.5 L 600 342.5" stroke-opacity="0.31818181818181823" stroke-miterlimit="10" stroke-dasharray=""/><path fill="none" stroke="rgb(0,0,0)" class="dcg-svg-major-gridline" paint-order="fill stroke markers" d=" M 0 57.5 L 600 57.5" stroke-opacity="0.31818181818181823" stroke-miterlimit="10" stroke-dasharray=""/></g></g><g id="axis-1fdbfbb6"><g id="yaxis-1fdbfbb6"><title>Y axis</title><g><path fill="none" stroke="rgb(0,0,0)" class="dcg-svg-axis-line" paint-order="fill stroke markers" d=" M 299.75 0 L 299.75 400" stroke-opacity="0.9" stroke-miterlimit="10" stroke-width="1.5" stroke-dasharray=""/></g></g><g id="xaxis-1fdbfbb6"><title>X axis</title><g><path fill="none" stroke="rgb(0,0,0)" class="dcg-svg-axis-line" paint-order="fill stroke markers" d=" M 0 199.75 L 600 199.75" stroke-opacity="0.9" stroke-miterlimit="10" stroke-width="1.5" stroke-dasharray=""/></g></g><g><g class="dcg-svg-axis-value"><text fill="none" stroke="#ffffff" font-family="Arial" font-size="14px" font-style="normal" font-weight="normal" text-decoration="normal" x="291.10693359375" y="215.808" text-anchor="middle" stroke-miterlimit="2" stroke-width="3" stroke-dasharray="">0</text><text fill="#000000" stroke="none" font-family="Arial" font-size="14px" font-style="normal" font-weight="normal" text-decoration="normal" x="291.10693359375" y="215.808" text-anchor="middle">0</text></g><g class="dcg-svg-axis-value dcg-svg-offcenter-axis-value"><text fill="none" stroke="#ffffff" font-family="Arial" font-size="14px" font-style="normal" font-weight="normal" text-decoration="normal" x="13.1171875" y="215.808" text-anchor="middle" stroke-miterlimit="2" stroke-width="3" stroke-dasharray="">-10</text><text fill="#000000" stroke="none" font-family="Arial" font-size="14px" font-style="normal" font-weight="normal" text-decoration="normal" x="13.1171875" y="215.808" text-anchor="middle">-10</text></g><g class="dcg-svg-axis-value"><text fill="none" stroke="#ffffff" font-family="Arial" font-size="14px" font-style="normal" font-weight="normal" text-decoration="normal" x="147.6689453125" y="215.808" text-anchor="middle" stroke-miterlimit="2" stroke-width="3" stroke-dasharray="">-5</text><text fill="#000000" stroke="none" font-family="Arial" font-size="14px" font-style="normal" font-weight="normal" text-decoration="normal" x="147.6689453125" y="215.808" text-anchor="middle">-5</text></g><g class="dcg-svg-axis-value"><text fill="none" stroke="#ffffff" font-family="Arial" font-size="14px" font-style="normal" font-weight="normal" text-decoration="normal" x="450" y="215.808" text-anchor="middle" stroke-miterlimit="2" stroke-width="3" stroke-dasharray="">5</text><text fill="#000000" stroke="none" font-family="Arial" font-size="14px" font-style="normal" font-weight="normal" text-decoration="normal" x="450" y="215.808" text-anchor="middle">5</text></g><g class="dcg-svg-axis-value dcg-svg-offcenter-axis-value"><text fill="none" stroke="#ffffff" font-family="Arial" font-size="14px" font-style="normal" font-weight="normal" text-decoration="normal" x="589.2138671875" y="215.808" text-anchor="middle" stroke-miterlimit="2" stroke-width="3" stroke-dasharray="">10</text><text fill="#000000" stroke="none" font-family="Arial" font-size="14px" font-style="normal" font-weight="normal" text-decoration="normal" x="589.2138671875" y="215.808" text-anchor="middle">10</text></g><g class="dcg-svg-axis-value"><text fill="none" stroke="#ffffff" font-family="Arial" font-size="14px" font-style="normal" font-weight="normal" text-decoration="normal" x="288.77587890625" y="346.6651428571428" text-anchor="middle" stroke-miterlimit="2" stroke-width="3" stroke-dasharray="">-5</text><text fill="#000000" stroke="none" font-family="Arial" font-size="14px" font-style="normal" font-weight="normal" text-decoration="normal" x="288.77587890625" y="346.6651428571428" text-anchor="middle">-5</text></g><g class="dcg-svg-axis-value"><text fill="none" stroke="#ffffff" font-family="Arial" font-size="14px" font-style="normal" font-weight="normal" text-decoration="normal" x="291.10693359375" y="60.95085714285717" text-anchor="middle" stroke-miterlimit="2" stroke-width="3" stroke-dasharray="">5</text><text fill="#000000" stroke="none" font-family="Arial" font-size="14px" font-style="normal" font-weight="normal" text-decoration="normal" x="291.10693359375" y="60.95085714285717" text-anchor="middle">5</text></g></g></g></g><g id="expressions-1fdbfbb6"><g id="sketch-1fdbfbb6"><title>Expression 1</title><path fill="#2d70b3" stroke="none" paint-order="stroke fill markers" d="" fill-opacity="0.4"/><g><path fill="none" stroke="#2d70b3" class="dcg-svg-curve" paint-order="fill stroke markers" d=" M 0 140.34165080632172 L 0 140.34165080632172 L 4.39453125 147.67296853628724 L 9.66796875 157.12757826563842 L 17.724609375 172.31986518578057 L 27.099609375 189.84247597172728 L 32.373046875 199.01865852531128 L 36.767578125 206.02720338149928 L 40.576171875 211.5068300445486 L 44.091796875 215.99423173687873 L 47.314453125 219.5720148707339 L 50.390625 222.46994191663796 L 53.3203125 224.73176033607328 L 55.95703125 226.33362757898124 L 58.30078125 227.4019916484843 L 60.498046875 228.09356155779247 L 62.548828125 228.46494709854923 L 64.599609375 228.5699051947025 L 66.650390625 228.40794556760082 L 68.701171875 227.97982476057413 L 70.8984375 227.2280635868204 L 73.2421875 226.09653125816527 L 75.732421875 224.52905767111338 L 78.369140625 222.471086309595 L 81.4453125 219.5733859813665 L 84.66796875 215.9958248738784 L 88.037109375 211.7070403954956 L 91.69921875 206.47167742342972 L 95.80078125 199.99290038716418 L 100.48828125 191.94334083348917 L 106.34765625 181.202718702494 L 124.51171875 147.42179828256926 L 129.19921875 139.64477860275142 L 133.154296875 133.67810491457632 L 136.81640625 128.7354845187185 L 140.185546875 124.74787391216192 L 143.408203125 121.48336315806458 L 146.484375 118.90389911077304 L 149.267578125 117.04492292685397 L 151.7578125 115.77771627170233 L 154.1015625 114.93500884307552 L 156.298828125 114.45790017866877 L 158.349609375 114.28818047479474 L 160.400390625 114.38537409012504 L 162.451171875 114.7490270153321 L 164.501953125 115.37744056044053 L 166.69921875 116.34118415427442 L 169.04296875 117.69459494854172 L 171.6796875 119.60851538187742 L 174.609375 122.2035294062089 L 177.685546875 125.43262922552432 L 180.908203125 129.3331024370882 L 184.423828125 134.13993146110994 L 188.232421875 139.92229764113495 L 192.626953125 147.2180384571489 L 197.900390625 156.64287087711753 L 205.6640625 171.2606518753767 L 215.625 189.89625754283924 L 220.8984375 199.06840457819314 L 225.29296875 206.07240861270955 L 229.1015625 211.54731263269917 L 232.6171875 216.0297747223713 L 235.83984375 219.60259981149895 L 238.916015625 222.4954644083786 L 241.845703125 224.75221136301738 L 244.482421875 226.34934624631262 L 246.826171875 227.413400745835 L 249.0234375 228.1008667183617 L 251.07421875 228.46838613304377 L 253.125 228.56946203875708 L 255.17578125 228.4036222912787 L 257.2265625 227.97164155869748 L 259.423828125 227.21578764182382 L 261.767578125 226.07996280434327 L 264.2578125 224.5080397616844 L 266.89453125 222.44551560884554 L 269.970703125 219.54275556857164 L 273.193359375 215.96023979545993 L 276.5625 211.66671494025906 L 280.224609375 206.42677744323987 L 284.326171875 199.94367313401474 L 289.013671875 191.8902970275843 L 294.873046875 181.14672954175714 L 313.037109375 147.37024618545405 L 317.724609375 139.59757333308562 L 321.6796875 133.63546700604775 L 325.341796875 128.69773741756973 L 328.7109375 124.71512437810412 L 331.93359375 121.4557809080846 L 335.009765625 118.88154677657886 L 337.79296875 117.02750630838122 L 340.283203125 115.76484408572175 L 342.48046875 114.96883644028182 L 344.677734375 114.47556704431902 L 346.728515625 114.2906767771017 L 348.779296875 114.37268816839959 L 350.830078125 114.72121812785755 L 352.880859375 115.33463860766618 L 355.078125 116.2825419032265 L 357.421875 117.61940501345542 L 360.05859375 119.51526250253407 L 362.98828125 122.09105678309598 L 366.064453125 125.3011325141935 L 369.287109375 129.18316056337352 L 372.802734375 133.9718458640518 L 376.611328125 139.73716527271324 L 381.005859375 147.01695454325196 L 386.279296875 156.42835409735358 L 394.04296875 171.03845853958885 L 404.00390625 189.68584627227315 L 409.27734375 198.87372218234793 L 413.671875 205.89544322865436 L 417.48046875 211.38878385818595 L 420.99609375 215.89053653995484 L 424.21875 219.4827294552305 L 427.294921875 222.39537396653822 L 430.224609375 224.6719396700803 L 432.861328125 226.2875709773873 L 435.205078125 227.3684716245632 L 437.40234375 228.07198175598464 L 439.453125 228.45461719522982 L 441.50390625 228.5708734427577 L 443.5546875 228.42020744416513 L 445.60546875 228.00332298815752 L 447.802734375 227.26347757957106 L 450 226.22424426646506 L 452.490234375 224.69162216335812 L 455.126953125 222.66932717626682 L 458.056640625 219.95917722292504 L 461.279296875 216.44500258708896 L 464.6484375 212.21693796308728 L 468.310546875 207.040265214196 L 472.265625 200.85666076854605 L 476.806640625 193.13409977081415 L 482.51953125 182.73635015931848 L 502.587890625 145.5623789608414 L 507.12890625 138.17488671459398 L 511.083984375 132.3547169845588 L 514.599609375 127.74765799575054 L 517.96875 123.89406505993733 L 521.044921875 120.89751458133924 L 524.12109375 118.4317953863115 L 526.7578125 116.7606115989776 L 529.248046875 115.56960025216266 L 531.4453125 114.83794682473865 L 533.49609375 114.42878589551597 L 535.6194490192345 114.28571428571429 L 537.59765625 114.40990114588242 L 539.6484375 114.80026553962483 L 541.845703125 115.51197745073742 L 544.04296875 116.52351527816161 L 546.533203125 118.0254660485327 L 549.169921875 120.01634114922028 L 552.099609375 122.69314286290786 L 555.322265625 126.1729004481594 L 558.69140625 130.3679385981713 L 562.353515625 135.5126163203875 L 566.30859375 141.66676496903017 L 570.849609375 149.3626752075324 L 576.416015625 159.4656812755919 L 587.6953125 180.8181272194081 L 594.287109375 192.87809603209334 L 599.12109375 201.09765724052744 L 600 202.51549205082114" stroke-linecap="round" stroke-linejoin="round" stroke-miterlimit="10" stroke-width="2.5" stroke-dasharray=""/></g></g></g><g id="labels-1fdbfbb6"/></g></svg>