<svg version="1.1" xmlns="http://www.w3.org/2000/svg" xmlns:xlink="http://www.w3.org/1999/xlink" width="599" height="399"><defs/><g transform="scale(1,1)"><g id="background-c301858b"><rect fill="white" stroke="none" x="0" y="0" width="599.995849609375" height="399.99151611328125" class="dcg-svg-background"/></g><g id="background-images-c301858b"/><g id="graphpaper-c301858b"><g id="grid-c301858b"><g><path fill="none" stroke="rgb(0,0,0)" class="dcg-svg-minor-gridline" paint-order="fill stroke markers" d=" M 10.5 0 L 10.5 399.99151611328125" stroke-opacity="0.12" stroke-miterlimit="10" stroke-dasharray=""/><path fill="none" stroke="rgb(0,0,0)" class="dcg-svg-minor-gridline" paint-order="fill stroke markers" d=" M 32.5 0 L 32.5 399.99151611328125" stroke-opacity="0.12" stroke-miterlimit="10" stroke-dasharray=""/><path fill="none" stroke="rgb(0,0,0)" class="dcg-svg-minor-gridline" paint-order="fill stroke markers" d=" M 55.5 0 L 55.5 399.99151611328125" stroke-opacity="0.12" stroke-miterlimit="10" stroke-dasharray=""/><path fill="none" stroke="rgb(0,0,0)" class="dcg-svg-minor-gridline" paint-order="fill stroke markers" d=" M 77.5 0 L 77.5 399.99151611328125" stroke-opacity="0.12" stroke-miterlimit="10" stroke-dasharray=""/><path fill="none" stroke="rgb(0,0,0)" class="dcg-svg-minor-gridline" paint-order="fill stroke markers" d=" M 99.5 0 L 99.5 399.99151611328125" stroke-opacity="0.12" stroke-miterlimit="10" stroke-dasharray=""/><path fill="none" stroke="rgb(0,0,0)" class="dcg-svg-minor-gridline" paint-order="fill stroke markers" d=" M 121.5 0 L 121.5 399.99151611328125" stroke-opacity="0.12" stroke-miterlimit="10" stroke-dasharray=""/><path fill="none" stroke="rgb(0,0,0)" class="dcg-svg-minor-gridline" paint-order="fill stroke markers" d=" M 143.5 0 L 143.5 399.99151611328125" stroke-opacity="0.12" stroke-miterlimit="10" stroke-dasharray=""/><path fill="none" stroke="rgb(0,0,0)" class="dcg-svg-minor-gridline" paint-order="fill stroke markers" d=" M 166.5 0 L 166.5 399.99151611328125" stroke-opacity="0.12" stroke-miterlimit="10" stroke-dasharray=""/><path fill="none" stroke="rgb(0,0,0)" class="dcg-svg-minor-gridline" paint-order="fill stroke markers" d=" M 188.5 0 L 188.5 399.99151611328125" stroke-opacity="0.12" stroke-miterlimit="10" stroke-dasharray=""/><path fill="none" stroke="rgb(0,0,0)" class="dcg-svg-minor-gridline" paint-order="fill stroke markers" d=" M 210.5 0 L 210.5 399.99151611328125" stroke-opacity="0.12" stroke-miterlimit="10" stroke-dasharray=""/><path fill="none" stroke="rgb(0,0,0)" class="dcg-svg-minor-gridline" paint-order="fill stroke markers" d=" M 232.5 0 L 232.5 399.99151611328125" stroke-opacity="0.12" stroke-miterlimit="10" stroke-dasharray=""/><path fill="none" stroke="rgb(0,0,0)" class="dcg-svg-minor-gridline" paint-order="fill stroke markers" d=" M 255.5 0 L 255.5 399.99151611328125" stroke-opacity="0.12" stroke-miterlimit="10" stroke-dasharray=""/><path fill="none" stroke="rgb(0,0,0)" class="dcg-svg-minor-gridline" paint-order="fill stroke markers" d=" M 277.5 0 L 277.5 399.99151611328125" stroke-opacity="0.12" stroke-miterlimit="10" stroke-dasharray=""/><path fill="none" stroke="rgb(0,0,0)" class="dcg-svg-minor-gridline" paint-order="fill stroke markers" d=" M 321.5 0 L 321.5 399.99151611328125" stroke-opacity="0.12" stroke-miterlimit="10" stroke-dasharray=""/><path fill="none" stroke="rgb(0,0,0)" class="dcg-svg-minor-gridline" paint-order="fill stroke markers" d=" M 343.5 0 L 343.5 399.99151611328125" stroke-opacity="0.12" stroke-miterlimit="10" stroke-dasharray=""/><path fill="none" stroke="rgb(0,0,0)" class="dcg-svg-minor-gridline" paint-order="fill stroke markers" d=" M 366.5 0 L 366.5 399.99151611328125" stroke-opacity="0.12" stroke-miterlimit="10" stroke-dasharray=""/><path fill="none" stroke="rgb(0,0,0)" class="dcg-svg-minor-gridline" paint-order="fill stroke markers" d=" M 388.5 0 L 388.5 399.99151611328125" stroke-opacity="0.12" stroke-miterlimit="10" stroke-dasharray=""/><path fill="none" stroke="rgb(0,0,0)" class="dcg-svg-minor-gridline" paint-order="fill stroke markers" d=" M 410.5 0 L 410.5 399.99151611328125" stroke-opacity="0.12" stroke-miterlimit="10" stroke-dasharray=""/><path fill="none" stroke="rgb(0,0,0)" class="dcg-svg-minor-gridline" paint-order="fill stroke markers" d=" M 432.5 0 L 432.5 399.99151611328125" stroke-opacity="0.12" stroke-miterlimit="10" stroke-dasharray=""/><path fill="none" stroke="rgb(0,0,0)" class="dcg-svg-minor-gridline" paint-order="fill stroke markers" d=" M 455.5 0 L 455.5 399.99151611328125" stroke-opacity="0.12" stroke-miterlimit="10" stroke-dasharray=""/><path fill="none" stroke="rgb(0,0,0)" class="dcg-svg-minor-gridline" paint-order="fill stroke markers" d=" M 477.5 0 L 477.5 399.99151611328125" stroke-opacity="0.12" stroke-miterlimit="10" stroke-dasharray=""/><path fill="none" stroke="rgb(0,0,0)" class="dcg-svg-minor-gridline" paint-order="fill stroke markers" d=" M 499.5 0 L 499.5 399.99151611328125" stroke-opacity="0.12" stroke-miterlimit="10" stroke-dasharray=""/><path fill="none" stroke="rgb(0,0,0)" class="dcg-svg-minor-gridline" paint-order="fill stroke markers" d=" M 521.5 0 L 521.5 399.99151611328125" stroke-opacity="0.12" stroke-miterlimit="10" stroke-dasharray=""/><path fill="none" stroke="rgb(0,0,0)" class="dcg-svg-minor-gridline" paint-order="fill stroke markers" d=" M 543.5 0 L 543.5 399.99151611328125" stroke-opacity="0.12" stroke-miterlimit="10" stroke-dasharray=""/><path fill="none" stroke="rgb(0,0,0)" class="dcg-svg-minor-gridline" paint-order="fill stroke markers" d=" M 566.5 0 L 566.5 399.99151611328125" stroke-opacity="0.12" stroke-miterlimit="10" stroke-dasharray=""/><path fill="none" stroke="rgb(0,0,0)" class="dcg-svg-minor-gridline" paint-order="fill stroke markers" d=" M 588.5 0 L 588.5 399.99151611328125" stroke-opacity="0.12" stroke-miterlimit="10" stroke-dasharray=""/><path fill="none" stroke="rgb(0,0,0)" class="dcg-svg-minor-gridline" paint-order="fill stroke markers" d=" M 0 399.5 L 599.995849609375 399.5" stroke-opacity="0.12" stroke-miterlimit="10" stroke-dasharray=""/><path fill="none" stroke="rgb(0,0,0)" class="dcg-svg-minor-gridline" paint-order="fill stroke markers" d=" M 0 359.5 L 599.995849609375 359.5" stroke-opacity="0.12" stroke-miterlimit="10" stroke-dasharray=""/><path fill="none" stroke="rgb(0,0,0)" class="dcg-svg-minor-gridline" paint-order="fill stroke markers" d=" M 0 319.5 L 599.995849609375 319.5" stroke-opacity="0.12" stroke-miterlimit="10" stroke-dasharray=""/><path fill="none" stroke="rgb(0,0,0)" class="dcg-svg-minor-gridline" paint-order="fill stroke markers" d=" M 0 279.5 L 599.995849609375 279.5" stroke-opacity="0.12" stroke-miterlimit="10" stroke-dasharray=""/><path fill="none" stroke="rgb(0,0,0)" class="dcg-svg-minor-gridline" paint-order="fill stroke markers" d=" M 0 239.5 L 599.995849609375 239.5" stroke-opacity="0.12" stroke-miterlimit="10" stroke-dasharray=""/><path fill="none" stroke="rgb(0,0,0)" class="dcg-svg-minor-gridline" paint-order="fill stroke markers" d=" M 0 159.5 L 599.995849609375 159.5" stroke-opacity="0.12" stroke-miterlimit="10" stroke-dasharray=""/><path fill="none" stroke="rgb(0,0,0)" class="dcg-svg-minor-gridline" paint-order="fill stroke markers" d=" M 0 119.5 L 599.995849609375 119.5" stroke-opacity="0.12" stroke-miterlimit="10" stroke-dasharray=""/><path fill="none" stroke="rgb(0,0,0)" class="dcg-svg-minor-gridline" paint-order="fill stroke markers" d=" M 0 79.5 L 599.995849609375 79.5" stroke-opacity="0.12" stroke-miterlimit="10" stroke-dasharray=""/><path fill="none" stroke="rgb(0,0,0)" class="dcg-svg-minor-gridline" paint-order="fill stroke markers" d=" M 0 39.5 L 599.995849609375 39.5" stroke-opacity="0.12" stroke-miterlimit="10" stroke-dasharray=""/><path fill="none" stroke="rgb(0,0,0)" class="dcg-svg-minor-gridline" paint-order="fill stroke markers" d=" M 0 -0.5 L 599.995849609375 -0.5" stroke-opacity="0.12" stroke-miterlimit="10" stroke-dasharray=""/><path fill="none" stroke="rgb(0,0,0)" class="dcg-svg-major-gridline" paint-order="fill stroke markers" d=" M 77.5 0 L 77.5 399.99151611328125" stroke-opacity="0.31818181818181823" stroke-miterlimit="10" stroke-dasharray=""/><path fill="none" stroke="rgb(0,0,0)" class="dcg-svg-major-gridline" paint-order="fill stroke markers" d=" M 188.5 0 L 188.5 399.99151611328125" stroke-opacity="0.31818181818181823" stroke-miterlimit="10" stroke-dasharray=""/><path fill="none" stroke="rgb(0,0,0)" class="dcg-svg-major-gridline" paint-order="fill stroke markers" d=" M 410.5 0 L 410.5 399.99151611328125" stroke-opacity="0.31818181818181823" stroke-miterlimit="10" stroke-dasharray=""/><path fill="none" stroke="rgb(0,0,0)" class="dcg-svg-major-gridline" paint-order="fill stroke markers" d=" M 521.5 0 L 521.5 399.99151611328125" stroke-opacity="0.31818181818181823" stroke-miterlimit="10" stroke-dasharray=""/><path fill="none" stroke="rgb(0,0,0)" class="dcg-svg-major-gridline" paint-order="fill stroke markers" d=" M 0 399.5 L 599.995849609375 399.5" stroke-opacity="0.31818181818181823" stroke-miterlimit="10" stroke-dasharray=""/><path fill="none" stroke="rgb(0,0,0)" class="dcg-svg-major-gridline" paint-order="fill stroke markers" d=" M 0 -0.5 L 599.995849609375 -0.5" stroke-opacity="0.31818181818181823" stroke-miterlimit="10" stroke-dasharray=""/></g></g><g id="axis-c301858b"><path fill="none" stroke="rgb(0,0,0)" class="dcg-svg-axis-line" paint-order="fill stroke markers" d=" M 299.75 0 L 299.75 399.99151611328125" stroke-opacity="0.9" stroke-miterlimit="10" stroke-width="1.5" stroke-dasharray=""/><path fill="none" stroke="rgb(0,0,0)" class="dcg-svg-axis-line" paint-order="fill stroke markers" d=" M 0 199.75 L 599.995849609375 199.75" stroke-opacity="0.9" stroke-miterlimit="10" stroke-width="1.5" stroke-dasharray=""/><g><g class="dcg-svg-axis-value"><text fill="none" stroke="#ffffff" font-family="Arial" font-size="14px" font-style="normal" font-weight="normal" text-decoration="normal" x="291.1048583984375" y="215.80375805664062" text-anchor="middle" stroke-miterlimit="2" stroke-width="3" stroke-dasharray="">0</text><text fill="#000000" stroke="none" font-family="Arial" font-size="14px" font-style="normal" font-weight="normal" text-decoration="normal" x="291.1048583984375" y="215.80375805664062" text-anchor="middle">0</text></g><g class="dcg-svg-axis-value"><text fill="none" stroke="#ffffff" font-family="Arial" font-size="14px" font-style="normal" font-weight="normal" text-decoration="normal" x="75.44618507667826" y="215.80375805664062" text-anchor="middle" stroke-miterlimit="2" stroke-width="3" stroke-dasharray="">-200</text><text fill="#000000" stroke="none" font-family="Arial" font-size="14px" font-style="normal" font-weight="normal" text-decoration="normal" x="75.44618507667826" y="215.80375805664062" text-anchor="middle">-200</text></g><g class="dcg-svg-axis-value"><text fill="none" stroke="#ffffff" font-family="Arial" font-size="14px" font-style="normal" font-weight="normal" text-decoration="normal" x="186.55652759693288" y="215.80375805664062" text-anchor="middle" stroke-miterlimit="2" stroke-width="3" stroke-dasharray="">-100</text><text fill="#000000" stroke="none" font-family="Arial" font-size="14px" font-style="normal" font-weight="normal" text-decoration="normal" x="186.55652759693288" y="215.80375805664062" text-anchor="middle">-100</text></g><g class="dcg-svg-axis-value"><text fill="none" stroke="#ffffff" font-family="Arial" font-size="14px" font-style="normal" font-weight="normal" text-decoration="normal" x="411.1082673249421" y="215.80375805664062" text-anchor="middle" stroke-miterlimit="2" stroke-width="3" stroke-dasharray="">100</text><text fill="#000000" stroke="none" font-family="Arial" font-size="14px" font-style="normal" font-weight="normal" text-decoration="normal" x="411.1082673249421" y="215.80375805664062" text-anchor="middle">100</text></g><g class="dcg-svg-axis-value"><text fill="none" stroke="#ffffff" font-family="Arial" font-size="14px" font-style="normal" font-weight="normal" text-decoration="normal" x="522.2186098451967" y="215.80375805664062" text-anchor="middle" stroke-miterlimit="2" stroke-width="3" stroke-dasharray="">200</text><text fill="#000000" stroke="none" font-family="Arial" font-size="14px" font-style="normal" font-weight="normal" text-decoration="normal" x="522.2186098451967" y="215.80375805664062" text-anchor="middle">200</text></g><g class="dcg-svg-axis-value dcg-svg-offcenter-axis-value"><text fill="none" stroke="#ffffff" font-family="Arial" font-size="14px" font-style="normal" font-weight="normal" text-decoration="normal" x="284.8807373046875" y="393.79951611328124" text-anchor="middle" stroke-miterlimit="2" stroke-width="3" stroke-dasharray="">-50</text><text fill="#000000" stroke="none" font-family="Arial" font-size="14px" font-style="normal" font-weight="normal" text-decoration="normal" x="284.8807373046875" y="393.79951611328124" text-anchor="middle">-50</text></g><g class="dcg-svg-axis-value dcg-svg-offcenter-axis-value"><text fill="none" stroke="#ffffff" font-family="Arial" font-size="14px" font-style="normal" font-weight="normal" text-decoration="normal" x="287.2117919921875" y="13.808" text-anchor="middle" stroke-miterlimit="2" stroke-width="3" stroke-dasharray="">50</text><text fill="#000000" stroke="none" font-family="Arial" font-size="14px" font-style="normal" font-weight="normal" text-decoration="normal" x="287.2117919921875" y="13.808" text-anchor="middle">50</text></g></g></g></g><g id="expressions-c301858b"><path fill="#2d70b3" stroke="none" paint-order="stroke fill markers" d="" fill-opacity="0.4"/><g><path fill="none" stroke="#2d70b3" class="dcg-svg-curve" paint-order="fill stroke markers" d=" M 0.78972384137578 402.99151611328125 L 0.78972384137578 402.99151611328125 L 0.9648336172103882 373.3010300936686 L 1.5507670640945435 323.6213417374762 L 2.1367005109786987 296.0160585393902 L 2.869117319583893 275.0060319909695 L 3.601534128189087 261.4941017759629 L 4.48043429851532 250.51962819142943 L 5.359334468841553 242.83196085876324 L 6.091751277446747 237.9878155119849 L 6.824168086051941 234.1094181201825 L 7.556584894657135 230.93338005571798 L 8.435485064983368 227.80606718250678 L 9.3143852353096 225.23554705830398 L 10.193285405635834 223.0845233474062 L 11.218668937683105 220.97926412791134 L 12.244052469730377 219.20927918037438 L 13.415919363498688 217.50189649949604 L 14.734269618988037 215.89046746270614 L 16.199103236198425 214.39317069303848 L 17.810420215129852 213.01701539974943 L 19.714703917503357 211.66632302440607 L 21.91195434331894 210.38427212995288 L 24.548654854297638 209.13149729413394 L 27.624805450439453 207.9528681101215 L 31.286889493465424 206.8295634479185 L 35.68139034509659 205.75904383182723 L 40.954791367053986 204.74457824495425 L 47.54654264450073 203.74895499705576 L 55.896094262599945 202.76303009774452 L 66.73586302995682 201.75763133770482 L 81.97013264894485 200.62583821192416 L 139.24512708187103 196.6139533968004 L 149.20599567890167 195.5324892677747 L 156.67664712667465 194.47438213785162 L 162.5359815955162 193.39872707774796 L 167.22344917058945 192.29391158111036 L 171.1784999370575 191.105345549552 L 174.40113389492035 189.8808518842618 L 177.03783440589905 188.63299215287842 L 179.38156819343567 187.2619565625061 L 181.28585189580917 185.89785364463563 L 183.04365223646164 184.36691932082923 L 184.50848585367203 182.8236461472661 L 185.82683610916138 181.15769877256227 L 186.9987030029297 179.38682660192472 L 188.02408653497696 177.54477505053833 L 189.04947006702423 175.34546941006954 L 189.92837023735046 173.08895290524816 L 190.8072704076767 170.37981900046017 L 191.5396872162819 167.66827403794628 L 192.27210402488708 164.41022047771474 L 193.00452083349228 160.4207455715665 L 193.73693764209747 155.42091356064364 L 194.46935445070267 148.96930231646007 L 195.20177125930786 140.323520637745 L 195.93418806791306 128.13099344776606 L 196.5201215147972 114.06505653474261 L 197.10605496168137 93.11569700602905 L 197.69198840856552 58.58552822040815 L 198.13143849372864 13.271586832449145 L 198.21247905164483 -3" stroke-linecap="round" stroke-linejoin="round" stroke-miterlimit="10" stroke-width="2.5" stroke-opacity="0.7" stroke-dasharray=""/></g><g><path fill="none" stroke="#2d70b3" class="dcg-svg-curve" paint-order="fill stroke markers" d=" M 200.78166472740662 402.99151611328125 L 200.78166472740662 402.99151611328125 L 201.0611057281494 362.43423759266796 L 201.64703917503357 317.9752716097036 L 202.23297262191772 292.5648865134132 L 202.96538943052292 272.87494755443197 L 203.84428960084915 258.00110385095496 L 204.72318977117538 248.12533923810648 L 205.60208994150162 241.0884791355594 L 206.3345067501068 236.60304054261604 L 207.066923558712 232.98276866542898 L 207.7993403673172 229.99864594912913 L 208.67824053764343 227.04301577780134 L 209.55714070796967 224.60065974827765 L 210.4360408782959 222.5478371386767 L 211.46142441034317 220.53065633198162 L 212.63329130411148 218.60679531406447 L 213.8051581978798 216.9940160848123 L 215.12350845336914 215.4643144959776 L 216.58834207057953 214.0363298353514 L 218.346142411232 212.60926225135358 L 220.39690947532654 211.23965745092337 L 222.74064326286316 209.96065146912088 L 225.5238271355629 208.72891154785924 L 228.74646109342575 207.58071286711694 L 232.55502849817276 206.49388123219154 L 237.242496073246 205.43264020420352 L 242.95534718036652 204.41566477954845 L 249.98654854297638 203.43478113008686 L 259.0685169696808 202.44331892689192 L 271.08015263080597 201.4101513582498 L 288.6581560373306 200.18349032395778 L 332.16371446847916 197.24197558684259 L 344.0288667678833 196.1301259062304 L 352.81786847114563 195.05522901205674 L 359.5561031103134 193.9796778628379 L 364.8295041322708 192.89141795718302 L 369.224004983902 191.72814193537772 L 372.7396056652069 190.5463068957771 L 375.6692728996277 189.31289010212305 L 378.15949004888535 188.0122132844234 L 380.3567404747009 186.59529484079 L 382.1145408153534 185.21254046537422 L 383.7258577942848 183.68167363052916 L 385.1906914114952 181.99750002846895 L 386.3625583052635 180.38472079921678 L 387.53442519903183 178.4608597812996 L 388.5598087310791 176.44367897460455 L 389.43870890140533 174.3908563650036 L 390.31760907173157 171.9485003354799 L 391.05002588033676 169.5279186381738 L 391.78244268894196 166.65066600567076 L 392.51485949754715 163.17303101214617 L 393.24727630615234 158.8839378896792 L 393.97969311475754 153.46023568007234 L 394.71210992336273 146.38092640384102 L 395.4445267319679 136.74838762954295 L 396.1769435405731 122.87297785572832 L 396.7628769874573 106.42662959986802 L 397.34881043434143 81.01624450357764 L 397.78826051950455 50.529307257912535 L 398.22771060466766 -1.0575975155071546 L 398.2371665395404 -3" stroke-linecap="round" stroke-linejoin="round" stroke-miterlimit="10" stroke-width="2.5" stroke-opacity="0.7" stroke-dasharray=""/></g><g><path fill="none" stroke="#2d70b3" class="dcg-svg-curve" paint-order="fill stroke markers" d=" M 400.7855243438226 402.99151611328125 L 400.7855243438226 402.99151611328125 L 401.0108944773674 367.6923959919741 L 401.59682792425156 320.73267848785423 L 402.1827613711357 294.2591168418103 L 402.9151781797409 273.9252823668987 L 403.79407835006714 258.66799547553626 L 404.6729785203934 248.586165613635 L 405.5518786907196 241.42596031684891 L 406.2842954993248 236.87205516910814 L 407.01671230793 233.20227254061484 L 407.7491291165352 230.18119235931692 L 408.6280292868614 227.1923837211388 L 409.50692945718765 224.72517975161702 L 410.3858296275139 222.65326760611757 L 411.41121315956116 220.61892404527964 L 412.43659669160843 218.90355297344908 L 413.60846358537674 217.24449929098648 L 414.9268138408661 215.67474682140252 L 416.3916474580765 214.2127362444509 L 418.14944779872894 212.75489663372366 L 420.05373150110245 211.4495672503979 L 422.25098192691803 210.20625866112817 L 424.88768243789673 208.98726054519832 L 427.96383303403854 207.83670813443064 L 431.6259170770645 206.73680722019162 L 436.0204179286957 205.6855306278301 L 441.4403023123741 204.66190196937845 L 448.1785369515419 203.6648676191691 L 456.67457193136215 202.68200054376328 L 467.8073074221611 201.66938889891443 L 483.48102712631226 200.52380822723867 L 537.3869042396545 196.7874528119685 L 547.7872229218483 195.7050303361045 L 555.6973244547844 194.6294631730472 L 561.849625647068 193.5391780754523 L 566.6835765838623 192.43492033780865 L 570.6386273503304 191.2844179299953 L 574.0077446699142 190.04479312092894 L 576.790928542614 188.7601412096768 L 579.1346623301506 187.41894883857273 L 581.1854293942451 185.97450071353182 L 582.9432297348976 184.4602903699111 L 584.408063352108 182.93566412976736 L 585.7264136075974 181.2918573673112 L 586.8982805013657 179.54680569300308 L 587.9236640334129 177.73410656099352 L 588.9490475654602 175.57316960524645 L 589.8279477357864 173.3597706099726 L 590.7068479061127 170.70740748899846 L 591.4392647147179 168.05813605756327 L 592.1716815233231 164.88209799309874 L 592.9040983319283 161.00370060129634 L 593.6365151405334 156.159555254518 L 594.3689319491386 149.9357660091601 L 595.1013487577438 141.64250684059238 L 595.833765566349 130.03809156027523 L 596.5661823749542 112.63914860886479 L 597.1521158218384 90.89737878356652 L 597.7380492687225 54.66928128186021 L 598.1774993538857 6.372312042410783 L 598.2201423595611 -3" stroke-linecap="round" stroke-linejoin="round" stroke-miterlimit="10" stroke-width="2.5" stroke-opacity="0.7" stroke-dasharray=""/></g></g><g id="labels-c301858b"/></g></svg>