<svg version="1.1" xmlns="http://www.w3.org/2000/svg" xmlns:xlink="http://www.w3.org/1999/xlink" width="599" height="399"><defs/><g transform="scale(1,1)"><g id="background-d0b1eb64"><rect fill="white" stroke="none" x="0" y="0" width="599.995849609375" height="399.99151611328125" class="dcg-svg-background"/></g><g id="background-images-d0b1eb64"/><g id="graphpaper-d0b1eb64"><g id="grid-d0b1eb64"><g><path fill="none" stroke="rgb(0,0,0)" class="dcg-svg-minor-gridline" paint-order="fill stroke markers" d=" M -0.5 0 L -0.5 399.99151611328125" stroke-opacity="0.12" stroke-miterlimit="10" stroke-dasharray=""/><path fill="none" stroke="rgb(0,0,0)" class="dcg-svg-minor-gridline" paint-order="fill stroke markers" d=" M 29.5 0 L 29.5 399.99151611328125" stroke-opacity="0.12" stroke-miterlimit="10" stroke-dasharray=""/><path fill="none" stroke="rgb(0,0,0)" class="dcg-svg-minor-gridline" paint-order="fill stroke markers" d=" M 59.5 0 L 59.5 399.99151611328125" stroke-opacity="0.12" stroke-miterlimit="10" stroke-dasharray=""/><path fill="none" stroke="rgb(0,0,0)" class="dcg-svg-minor-gridline" paint-order="fill stroke markers" d=" M 89.5 0 L 89.5 399.99151611328125" stroke-opacity="0.12" stroke-miterlimit="10" stroke-dasharray=""/><path fill="none" stroke="rgb(0,0,0)" class="dcg-svg-minor-gridline" paint-order="fill stroke markers" d=" M 119.5 0 L 119.5 399.99151611328125" stroke-opacity="0.12" stroke-miterlimit="10" stroke-dasharray=""/><path fill="none" stroke="rgb(0,0,0)" class="dcg-svg-minor-gridline" paint-order="fill stroke markers" d=" M 149.5 0 L 149.5 399.99151611328125" stroke-opacity="0.12" stroke-miterlimit="10" stroke-dasharray=""/><path fill="none" stroke="rgb(0,0,0)" class="dcg-svg-minor-gridline" paint-order="fill stroke markers" d=" M 179.5 0 L 179.5 399.99151611328125" stroke-opacity="0.12" stroke-miterlimit="10" stroke-dasharray=""/><path fill="none" stroke="rgb(0,0,0)" class="dcg-svg-minor-gridline" paint-order="fill stroke markers" d=" M 209.5 0 L 209.5 399.99151611328125" stroke-opacity="0.12" stroke-miterlimit="10" stroke-dasharray=""/><path fill="none" stroke="rgb(0,0,0)" class="dcg-svg-minor-gridline" paint-order="fill stroke markers" d=" M 239.5 0 L 239.5 399.99151611328125" stroke-opacity="0.12" stroke-miterlimit="10" stroke-dasharray=""/><path fill="none" stroke="rgb(0,0,0)" class="dcg-svg-minor-gridline" paint-order="fill stroke markers" d=" M 269.5 0 L 269.5 399.99151611328125" stroke-opacity="0.12" stroke-miterlimit="10" stroke-dasharray=""/><path fill="none" stroke="rgb(0,0,0)" class="dcg-svg-minor-gridline" paint-order="fill stroke markers" d=" M 329.5 0 L 329.5 399.99151611328125" stroke-opacity="0.12" stroke-miterlimit="10" stroke-dasharray=""/><path fill="none" stroke="rgb(0,0,0)" class="dcg-svg-minor-gridline" paint-order="fill stroke markers" d=" M 359.5 0 L 359.5 399.99151611328125" stroke-opacity="0.12" stroke-miterlimit="10" stroke-dasharray=""/><path fill="none" stroke="rgb(0,0,0)" class="dcg-svg-minor-gridline" paint-order="fill stroke markers" d=" M 389.5 0 L 389.5 399.99151611328125" stroke-opacity="0.12" stroke-miterlimit="10" stroke-dasharray=""/><path fill="none" stroke="rgb(0,0,0)" class="dcg-svg-minor-gridline" paint-order="fill stroke markers" d=" M 419.5 0 L 419.5 399.99151611328125" stroke-opacity="0.12" stroke-miterlimit="10" stroke-dasharray=""/><path fill="none" stroke="rgb(0,0,0)" class="dcg-svg-minor-gridline" paint-order="fill stroke markers" d=" M 449.5 0 L 449.5 399.99151611328125" stroke-opacity="0.12" stroke-miterlimit="10" stroke-dasharray=""/><path fill="none" stroke="rgb(0,0,0)" class="dcg-svg-minor-gridline" paint-order="fill stroke markers" d=" M 479.5 0 L 479.5 399.99151611328125" stroke-opacity="0.12" stroke-miterlimit="10" stroke-dasharray=""/><path fill="none" stroke="rgb(0,0,0)" class="dcg-svg-minor-gridline" paint-order="fill stroke markers" d=" M 509.5 0 L 509.5 399.99151611328125" stroke-opacity="0.12" stroke-miterlimit="10" stroke-dasharray=""/><path fill="none" stroke="rgb(0,0,0)" class="dcg-svg-minor-gridline" paint-order="fill stroke markers" d=" M 539.5 0 L 539.5 399.99151611328125" stroke-opacity="0.12" stroke-miterlimit="10" stroke-dasharray=""/><path fill="none" stroke="rgb(0,0,0)" class="dcg-svg-minor-gridline" paint-order="fill stroke markers" d=" M 569.5 0 L 569.5 399.99151611328125" stroke-opacity="0.12" stroke-miterlimit="10" stroke-dasharray=""/><path fill="none" stroke="rgb(0,0,0)" class="dcg-svg-minor-gridline" paint-order="fill stroke markers" d=" M 599.5 0 L 599.5 399.99151611328125" stroke-opacity="0.12" stroke-miterlimit="10" stroke-dasharray=""/><path fill="none" stroke="rgb(0,0,0)" class="dcg-svg-minor-gridline" paint-order="fill stroke markers" d=" M 0 370.5 L 599.995849609375 370.5" stroke-opacity="0.12" stroke-miterlimit="10" stroke-dasharray=""/><path fill="none" stroke="rgb(0,0,0)" class="dcg-svg-minor-gridline" paint-order="fill stroke markers" d=" M 0 342.5 L 599.995849609375 342.5" stroke-opacity="0.12" stroke-miterlimit="10" stroke-dasharray=""/><path fill="none" stroke="rgb(0,0,0)" class="dcg-svg-minor-gridline" paint-order="fill stroke markers" d=" M 0 313.5 L 599.995849609375 313.5" stroke-opacity="0.12" stroke-miterlimit="10" stroke-dasharray=""/><path fill="none" stroke="rgb(0,0,0)" class="dcg-svg-minor-gridline" paint-order="fill stroke markers" d=" M 0 285.5 L 599.995849609375 285.5" stroke-opacity="0.12" stroke-miterlimit="10" stroke-dasharray=""/><path fill="none" stroke="rgb(0,0,0)" class="dcg-svg-minor-gridline" paint-order="fill stroke markers" d=" M 0 256.5 L 599.995849609375 256.5" stroke-opacity="0.12" stroke-miterlimit="10" stroke-dasharray=""/><path fill="none" stroke="rgb(0,0,0)" class="dcg-svg-minor-gridline" paint-order="fill stroke markers" d=" M 0 228.5 L 599.995849609375 228.5" stroke-opacity="0.12" stroke-miterlimit="10" stroke-dasharray=""/><path fill="none" stroke="rgb(0,0,0)" class="dcg-svg-minor-gridline" paint-order="fill stroke markers" d=" M 0 170.5 L 599.995849609375 170.5" stroke-opacity="0.12" stroke-miterlimit="10" stroke-dasharray=""/><path fill="none" stroke="rgb(0,0,0)" class="dcg-svg-minor-gridline" paint-order="fill stroke markers" d=" M 0 142.5 L 599.995849609375 142.5" stroke-opacity="0.12" stroke-miterlimit="10" stroke-dasharray=""/><path fill="none" stroke="rgb(0,0,0)" class="dcg-svg-minor-gridline" paint-order="fill stroke markers" d=" M 0 113.5 L 599.995849609375 113.5" stroke-opacity="0.12" stroke-miterlimit="10" stroke-dasharray=""/><path fill="none" stroke="rgb(0,0,0)" class="dcg-svg-minor-gridline" paint-order="fill stroke markers" d=" M 0 85.5 L 599.995849609375 85.5" stroke-opacity="0.12" stroke-miterlimit="10" stroke-dasharray=""/><path fill="none" stroke="rgb(0,0,0)" class="dcg-svg-minor-gridline" paint-order="fill stroke markers" d=" M 0 56.5 L 599.995849609375 56.5" stroke-opacity="0.12" stroke-miterlimit="10" stroke-dasharray=""/><path fill="none" stroke="rgb(0,0,0)" class="dcg-svg-minor-gridline" paint-order="fill stroke markers" d=" M 0 28.5 L 599.995849609375 28.5" stroke-opacity="0.12" stroke-miterlimit="10" stroke-dasharray=""/><path fill="none" stroke="rgb(0,0,0)" class="dcg-svg-major-gridline" paint-order="fill stroke markers" d=" M -0.5 0 L -0.5 399.99151611328125" stroke-opacity="0.31818181818181823" stroke-miterlimit="10" stroke-dasharray=""/><path fill="none" stroke="rgb(0,0,0)" class="dcg-svg-major-gridline" paint-order="fill stroke markers" d=" M 149.5 0 L 149.5 399.99151611328125" stroke-opacity="0.31818181818181823" stroke-miterlimit="10" stroke-dasharray=""/><path fill="none" stroke="rgb(0,0,0)" class="dcg-svg-major-gridline" paint-order="fill stroke markers" d=" M 449.5 0 L 449.5 399.99151611328125" stroke-opacity="0.31818181818181823" stroke-miterlimit="10" stroke-dasharray=""/><path fill="none" stroke="rgb(0,0,0)" class="dcg-svg-major-gridline" paint-order="fill stroke markers" d=" M 599.5 0 L 599.5 399.99151611328125" stroke-opacity="0.31818181818181823" stroke-miterlimit="10" stroke-dasharray=""/><path fill="none" stroke="rgb(0,0,0)" class="dcg-svg-major-gridline" paint-order="fill stroke markers" d=" M 0 342.5 L 599.995849609375 342.5" stroke-opacity="0.31818181818181823" stroke-miterlimit="10" stroke-dasharray=""/><path fill="none" stroke="rgb(0,0,0)" class="dcg-svg-major-gridline" paint-order="fill stroke markers" d=" M 0 56.5 L 599.995849609375 56.5" stroke-opacity="0.31818181818181823" stroke-miterlimit="10" stroke-dasharray=""/></g></g><g id="axis-d0b1eb64"><path fill="none" stroke="rgb(0,0,0)" class="dcg-svg-axis-line" paint-order="fill stroke markers" d=" M 299.75 0 L 299.75 399.99151611328125" stroke-opacity="0.9" stroke-miterlimit="10" stroke-width="1.5" stroke-dasharray=""/><path fill="none" stroke="rgb(0,0,0)" class="dcg-svg-axis-line" paint-order="fill stroke markers" d=" M 0 199.75 L 599.995849609375 199.75" stroke-opacity="0.9" stroke-miterlimit="10" stroke-width="1.5" stroke-dasharray=""/><g><g class="dcg-svg-axis-value"><text fill="none" stroke="#ffffff" font-family="Arial" font-size="14px" font-style="normal" font-weight="normal" text-decoration="normal" x="291.1048583984375" y="215.80375805664062" text-anchor="middle" stroke-miterlimit="2" stroke-width="3" stroke-dasharray="">0</text><text fill="#000000" stroke="none" font-family="Arial" font-size="14px" font-style="normal" font-weight="normal" text-decoration="normal" x="291.1048583984375" y="215.80375805664062" text-anchor="middle">0</text></g><g class="dcg-svg-axis-value dcg-svg-offcenter-axis-value"><text fill="none" stroke="#ffffff" font-family="Arial" font-size="14px" font-style="normal" font-weight="normal" text-decoration="normal" x="13.1171875" y="215.80375805664062" text-anchor="middle" stroke-miterlimit="2" stroke-width="3" stroke-dasharray="">-10</text><text fill="#000000" stroke="none" font-family="Arial" font-size="14px" font-style="normal" font-weight="normal" text-decoration="normal" x="13.1171875" y="215.80375805664062" text-anchor="middle">-10</text></g><g class="dcg-svg-axis-value"><text fill="none" stroke="#ffffff" font-family="Arial" font-size="14px" font-style="normal" font-weight="normal" text-decoration="normal" x="147.66790771484375" y="215.80375805664062" text-anchor="middle" stroke-miterlimit="2" stroke-width="3" stroke-dasharray="">-5</text><text fill="#000000" stroke="none" font-family="Arial" font-size="14px" font-style="normal" font-weight="normal" text-decoration="normal" x="147.66790771484375" y="215.80375805664062" text-anchor="middle">-5</text></g><g class="dcg-svg-axis-value"><text fill="none" stroke="#ffffff" font-family="Arial" font-size="14px" font-style="normal" font-weight="normal" text-decoration="normal" x="449.99688720703125" y="215.80375805664062" text-anchor="middle" stroke-miterlimit="2" stroke-width="3" stroke-dasharray="">5</text><text fill="#000000" stroke="none" font-family="Arial" font-size="14px" font-style="normal" font-weight="normal" text-decoration="normal" x="449.99688720703125" y="215.80375805664062" text-anchor="middle">5</text></g><g class="dcg-svg-axis-value dcg-svg-offcenter-axis-value"><text fill="none" stroke="#ffffff" font-family="Arial" font-size="14px" font-style="normal" font-weight="normal" text-decoration="normal" x="589.209716796875" y="215.80375805664062" text-anchor="middle" stroke-miterlimit="2" stroke-width="3" stroke-dasharray="">10</text><text fill="#000000" stroke="none" font-family="Arial" font-size="14px" font-style="normal" font-weight="normal" text-decoration="normal" x="589.209716796875" y="215.80375805664062" text-anchor="middle">10</text></g><g class="dcg-svg-axis-value"><text fill="none" stroke="#ffffff" font-family="Arial" font-size="14px" font-style="normal" font-weight="normal" text-decoration="normal" x="288.7738037109375" y="346.65787095424105" text-anchor="middle" stroke-miterlimit="2" stroke-width="3" stroke-dasharray="">-5</text><text fill="#000000" stroke="none" font-family="Arial" font-size="14px" font-style="normal" font-weight="normal" text-decoration="normal" x="288.7738037109375" y="346.65787095424105" text-anchor="middle">-5</text></g><g class="dcg-svg-axis-value"><text fill="none" stroke="#ffffff" font-family="Arial" font-size="14px" font-style="normal" font-weight="normal" text-decoration="normal" x="291.1048583984375" y="60.949645159040166" text-anchor="middle" stroke-miterlimit="2" stroke-width="3" stroke-dasharray="">5</text><text fill="#000000" stroke="none" font-family="Arial" font-size="14px" font-style="normal" font-weight="normal" text-decoration="normal" x="291.1048583984375" y="60.949645159040166" text-anchor="middle">5</text></g></g></g></g><g id="expressions-d0b1eb64"><path fill="#2d70b3" stroke="none" paint-order="stroke fill markers" d="" fill-opacity="0.4"/><path fill="#2d70b3" stroke="none" paint-order="stroke fill markers" d="" fill-opacity="0.4"/><g><path fill="none" stroke="#2d70b3" class="dcg-svg-curve" paint-order="fill stroke markers" d=" M 209.49854736328123 113.78329031808033 L 209.49854736328123 113.78329031808033 L 209.7036240696907 108.00033456654904 L 210.28955751657486 102.44431238845527 L 211.1684576869011 97.34858708220258 L 212.3403245806694 92.41456388920108 L 213.8051581978798 87.5864761450294 L 215.56295853853226 82.85246667144526 L 217.6137256026268 78.21436723518309 L 219.95745939016342 73.67966474062786 L 222.74064326286316 69.03005357889322 L 225.81679385900497 64.56350434183429 L 229.18591117858887 60.28000275108843 L 232.99447858333588 56.03197052389362 L 237.242496073246 51.8856439367575 L 241.63699692487717 48.13207745526353 L 246.03149777650833 44.8353866141976 L 250.57248198986053 41.84210827704834 L 255.25994956493378 39.139988013268805 L 259.947417140007 36.790735603976884 L 264.7813680768013 34.70440065299471 L 269.6153190135956 32.93342916898166 L 274.44926995038986 31.457466587604074 L 279.28322088718414 30.260871735513376 L 284.26365518569946 29.307690011713078 L 289.2440894842148 28.628937877452643 L 294.2245237827301 28.218084286270255 L 299.2049580812454 28.071276701717977 L 304.18539237976074 28.187156501775178 L 309.16582667827606 28.56679530890932 L 314.1462609767914 29.21374514832513 L 318.98021191358566 30.10315347864099 L 323.81416285037994 31.258538996901052 L 328.6481137871742 32.69126970146942 L 333.4820647239685 34.41636406630727 L 338.16953229904175 36.38684686708518 L 342.856999874115 38.673690851687525 L 347.3979840874672 41.218946754841795 L 351.9389683008194 44.12476478231849 L 356.33346915245056 47.32463768690536 L 360.5814866423607 50.83558113999197 L 364.6830207705498 54.68437918785651 L 368.6380715370178 58.912316849476554 L 372.3001555800438 63.39123911041315 L 375.52278953790665 67.91013816688547 L 378.3059734106064 72.38893758650443 L 380.79619055986404 77.01549755023979 L 382.9934409856796 81.79187334540717 L 384.89772468805313 86.73266911321878 L 386.3625583052635 91.3586614345005 L 387.53442519903183 95.97981416527983 L 388.41332536935806 100.5204173588017 L 388.9992588162422 104.77855009314368 L 389.2922255396843 108.00033456654904 L 389.49730224609374 113.78329031808033" stroke-linecap="round" stroke-linejoin="round" stroke-miterlimit="10" stroke-width="2.5" stroke-opacity="0.7" stroke-dasharray=""/></g><g><path fill="none" stroke="#2d70b3" class="dcg-svg-curve" paint-order="fill stroke markers" d=" M 209.49854736328123 113.78329031808033 L 209.49854736328123 113.78329031808033 L 209.7036240696907 119.56624606961162 L 210.28955751657486 125.12226824770539 L 211.1684576869011 130.21799355395808 L 212.3403245806694 135.1520167469596 L 213.8051581978798 139.98010449113127 L 215.56295853853226 144.7141139647154 L 217.6137256026268 149.35221340097755 L 219.95745939016342 153.88691589553284 L 222.74064326286316 158.53652705726742 L 225.81679385900497 163.00307629432638 L 229.18591117858887 167.28657788507226 L 232.99447858333588 171.53461011226707 L 237.242496073246 175.6809366994031 L 241.63699692487717 179.4345031808972 L 246.03149777650833 182.73119402196312 L 250.57248198986053 185.72447235911227 L 255.25994956493378 188.42659262289183 L 259.947417140007 190.77584503218378 L 264.7813680768013 192.86217998316602 L 269.6153190135956 194.633151467179 L 274.44926995038986 196.10911404855662 L 279.28322088718414 197.30570890064735 L 284.26365518569946 198.25889062444764 L 289.2440894842148 198.93764275870808 L 294.2245237827301 199.34849634989038 L 299.2049580812454 199.49530393444272 L 304.18539237976074 199.37942413438546 L 309.16582667827606 198.99978532725137 L 314.1462609767914 198.3528354878355 L 318.98021191358566 197.46342715751967 L 323.81416285037994 196.30804163925967 L 328.6481137871742 194.87531093469127 L 333.4820647239685 193.15021656985343 L 338.16953229904175 191.17973376907548 L 342.856999874115 188.8928897844731 L 347.3979840874672 186.34763388131887 L 351.9389683008194 183.44181585384214 L 356.33346915245056 180.24194294925533 L 360.5814866423607 176.73099949616872 L 364.6830207705498 172.88220144830416 L 368.6380715370178 168.65426378668406 L 372.3001555800438 164.17534152574748 L 375.52278953790665 159.65644246927522 L 378.3059734106064 155.17764304965624 L 380.79619055986404 150.5510830859209 L 382.9934409856796 145.77470729075353 L 384.89772468805313 140.8339115229419 L 386.3625583052635 136.20791920166016 L 387.53442519903183 131.58676647088083 L 388.41332536935806 127.04616327735897 L 388.9992588162422 122.78803054301704 L 389.2922255396843 119.56624606961162 L 389.49730224609374 113.78329031808033" stroke-linecap="round" stroke-linejoin="round" stroke-miterlimit="10" stroke-width="2.5" stroke-opacity="0.7" stroke-dasharray=""/></g><path fill="#388c46" stroke="none" paint-order="stroke fill markers" d="" fill-opacity="0.4"/><g><path fill="none" stroke="#388c46" class="dcg-svg-curve" paint-order="fill stroke markers" d=" M 219.6700764942035 -3 L 219.6700764942035 -3 L 222.00822645425797 8.873248065102473 L 226.84217739105225 31.914212042731833 L 231.5296449661255 52.840107486716306 L 236.0706291794777 71.7817212435807 L 240.46513003110886 88.86575307089612 L 244.71314752101898 104.21481563727963 L 248.81468164920807 117.94743452239442 L 252.76973241567612 130.17804821694983 L 256.72478318214417 141.4154992957067 L 260.5333505868912 151.29808038624466 L 264.19543462991714 159.93205580136518 L 267.7110353112221 167.41960276491588 L 271.08015263080597 173.8588114117904 L 274.3027865886688 179.3436847879285 L 277.5254205465317 184.16917447950357 L 280.6015711426735 188.16021684299005 L 283.6777217388153 191.55045713025277 L 286.6073889732361 194.2206885801362 L 289.2440894842148 196.15796874428634 L 291.73430663347244 197.5823192447216 L 294.07804042100906 198.56322059365837 L 296.27529084682465 199.1660662143591 L 298.3260579109192 199.45216244113232 L 300.37682497501373 199.4712355229172 L 302.4275920391083 199.22328545971374 L 304.4783591032028 198.70831225152193 L 306.6756095290184 197.86024129358702 L 308.872859954834 196.70563866410936 L 311.2165937423706 195.13619650581052 L 313.8532942533493 192.95369100442622 L 316.63647812604904 190.17106460831045 L 319.5661453604698 186.71066262733905 L 322.64229595661163 182.49074328243398 L 325.71844655275345 177.67002186130514 L 328.9410805106163 171.97534458553335 L 332.3101978302002 165.31679549813268 L 335.6793151497841 157.93755639186043 L 339.194915831089 149.46910807937297 L 342.856999874115 139.81336042577664 L 346.665567278862 128.8681362072238 L 350.62061804533005 116.52717111091306 L 354.72215217351913 102.68011373508898 L 358.8236863017082 87.76496377931153 L 363.07170379161835 71.1911368897417 L 367.4662046432495 52.840107486716306 L 372.0071888566017 32.58926290161821 L 376.69465643167496 10.311903376876387 L 379.32817309803585 -3" stroke-linecap="round" stroke-linejoin="round" stroke-miterlimit="10" stroke-width="2.5" stroke-opacity="0.7" stroke-dasharray=""/></g></g><g id="labels-d0b1eb64"/></g></svg>