<svg version="1.1" xmlns="http://www.w3.org/2000/svg" xmlns:xlink="http://www.w3.org/1999/xlink" width="599" height="399"><defs/><g transform="scale(1,1)"><g id="background-ffa4bee1"><rect fill="white" stroke="none" x="0" y="0" width="599.995849609375" height="399.99151611328125" class="dcg-svg-background"/></g><g id="background-images-ffa4bee1"/><g id="graphpaper-ffa4bee1"><g id="grid-ffa4bee1"><g><path fill="none" stroke="rgb(0,0,0)" class="dcg-svg-minor-gridline" paint-order="fill stroke markers" d=" M 13.5 0 L 13.5 399.99151611328125" stroke-opacity="0.12" stroke-miterlimit="10" stroke-dasharray=""/><path fill="none" stroke="rgb(0,0,0)" class="dcg-svg-minor-gridline" paint-order="fill stroke markers" d=" M 49.5 0 L 49.5 399.99151611328125" stroke-opacity="0.12" stroke-miterlimit="10" stroke-dasharray=""/><path fill="none" stroke="rgb(0,0,0)" class="dcg-svg-minor-gridline" paint-order="fill stroke markers" d=" M 85.5 0 L 85.5 399.99151611328125" stroke-opacity="0.12" stroke-miterlimit="10" stroke-dasharray=""/><path fill="none" stroke="rgb(0,0,0)" class="dcg-svg-minor-gridline" paint-order="fill stroke markers" d=" M 120.5 0 L 120.5 399.99151611328125" stroke-opacity="0.12" stroke-miterlimit="10" stroke-dasharray=""/><path fill="none" stroke="rgb(0,0,0)" class="dcg-svg-minor-gridline" paint-order="fill stroke markers" d=" M 156.5 0 L 156.5 399.99151611328125" stroke-opacity="0.12" stroke-miterlimit="10" stroke-dasharray=""/><path fill="none" stroke="rgb(0,0,0)" class="dcg-svg-minor-gridline" paint-order="fill stroke markers" d=" M 192.5 0 L 192.5 399.99151611328125" stroke-opacity="0.12" stroke-miterlimit="10" stroke-dasharray=""/><path fill="none" stroke="rgb(0,0,0)" class="dcg-svg-minor-gridline" paint-order="fill stroke markers" d=" M 228.5 0 L 228.5 399.99151611328125" stroke-opacity="0.12" stroke-miterlimit="10" stroke-dasharray=""/><path fill="none" stroke="rgb(0,0,0)" class="dcg-svg-minor-gridline" paint-order="fill stroke markers" d=" M 263.5 0 L 263.5 399.99151611328125" stroke-opacity="0.12" stroke-miterlimit="10" stroke-dasharray=""/><path fill="none" stroke="rgb(0,0,0)" class="dcg-svg-minor-gridline" paint-order="fill stroke markers" d=" M 335.5 0 L 335.5 399.99151611328125" stroke-opacity="0.12" stroke-miterlimit="10" stroke-dasharray=""/><path fill="none" stroke="rgb(0,0,0)" class="dcg-svg-minor-gridline" paint-order="fill stroke markers" d=" M 370.5 0 L 370.5 399.99151611328125" stroke-opacity="0.12" stroke-miterlimit="10" stroke-dasharray=""/><path fill="none" stroke="rgb(0,0,0)" class="dcg-svg-minor-gridline" paint-order="fill stroke markers" d=" M 406.5 0 L 406.5 399.99151611328125" stroke-opacity="0.12" stroke-miterlimit="10" stroke-dasharray=""/><path fill="none" stroke="rgb(0,0,0)" class="dcg-svg-minor-gridline" paint-order="fill stroke markers" d=" M 442.5 0 L 442.5 399.99151611328125" stroke-opacity="0.12" stroke-miterlimit="10" stroke-dasharray=""/><path fill="none" stroke="rgb(0,0,0)" class="dcg-svg-minor-gridline" paint-order="fill stroke markers" d=" M 478.5 0 L 478.5 399.99151611328125" stroke-opacity="0.12" stroke-miterlimit="10" stroke-dasharray=""/><path fill="none" stroke="rgb(0,0,0)" class="dcg-svg-minor-gridline" paint-order="fill stroke markers" d=" M 513.5 0 L 513.5 399.99151611328125" stroke-opacity="0.12" stroke-miterlimit="10" stroke-dasharray=""/><path fill="none" stroke="rgb(0,0,0)" class="dcg-svg-minor-gridline" paint-order="fill stroke markers" d=" M 549.5 0 L 549.5 399.99151611328125" stroke-opacity="0.12" stroke-miterlimit="10" stroke-dasharray=""/><path fill="none" stroke="rgb(0,0,0)" class="dcg-svg-minor-gridline" paint-order="fill stroke markers" d=" M 585.5 0 L 585.5 399.99151611328125" stroke-opacity="0.12" stroke-miterlimit="10" stroke-dasharray=""/><path fill="none" stroke="rgb(0,0,0)" class="dcg-svg-minor-gridline" paint-order="fill stroke markers" d=" M 0 399.5 L 599.995849609375 399.5" stroke-opacity="0.12" stroke-miterlimit="10" stroke-dasharray=""/><path fill="none" stroke="rgb(0,0,0)" class="dcg-svg-minor-gridline" paint-order="fill stroke markers" d=" M 0 379.5 L 599.995849609375 379.5" stroke-opacity="0.12" stroke-miterlimit="10" stroke-dasharray=""/><path fill="none" stroke="rgb(0,0,0)" class="dcg-svg-minor-gridline" paint-order="fill stroke markers" d=" M 0 359.5 L 599.995849609375 359.5" stroke-opacity="0.12" stroke-miterlimit="10" stroke-dasharray=""/><path fill="none" stroke="rgb(0,0,0)" class="dcg-svg-minor-gridline" paint-order="fill stroke markers" d=" M 0 339.5 L 599.995849609375 339.5" stroke-opacity="0.12" stroke-miterlimit="10" stroke-dasharray=""/><path fill="none" stroke="rgb(0,0,0)" class="dcg-svg-minor-gridline" paint-order="fill stroke markers" d=" M 0 319.5 L 599.995849609375 319.5" stroke-opacity="0.12" stroke-miterlimit="10" stroke-dasharray=""/><path fill="none" stroke="rgb(0,0,0)" class="dcg-svg-minor-gridline" paint-order="fill stroke markers" d=" M 0 299.5 L 599.995849609375 299.5" stroke-opacity="0.12" stroke-miterlimit="10" stroke-dasharray=""/><path fill="none" stroke="rgb(0,0,0)" class="dcg-svg-minor-gridline" paint-order="fill stroke markers" d=" M 0 279.5 L 599.995849609375 279.5" stroke-opacity="0.12" stroke-miterlimit="10" stroke-dasharray=""/><path fill="none" stroke="rgb(0,0,0)" class="dcg-svg-minor-gridline" paint-order="fill stroke markers" d=" M 0 259.5 L 599.995849609375 259.5" stroke-opacity="0.12" stroke-miterlimit="10" stroke-dasharray=""/><path fill="none" stroke="rgb(0,0,0)" class="dcg-svg-minor-gridline" paint-order="fill stroke markers" d=" M 0 239.5 L 599.995849609375 239.5" stroke-opacity="0.12" stroke-miterlimit="10" stroke-dasharray=""/><path fill="none" stroke="rgb(0,0,0)" class="dcg-svg-minor-gridline" paint-order="fill stroke markers" d=" M 0 219.5 L 599.995849609375 219.5" stroke-opacity="0.12" stroke-miterlimit="10" stroke-dasharray=""/><path fill="none" stroke="rgb(0,0,0)" class="dcg-svg-minor-gridline" paint-order="fill stroke markers" d=" M 0 179.5 L 599.995849609375 179.5" stroke-opacity="0.12" stroke-miterlimit="10" stroke-dasharray=""/><path fill="none" stroke="rgb(0,0,0)" class="dcg-svg-minor-gridline" paint-order="fill stroke markers" d=" M 0 159.5 L 599.995849609375 159.5" stroke-opacity="0.12" stroke-miterlimit="10" stroke-dasharray=""/><path fill="none" stroke="rgb(0,0,0)" class="dcg-svg-minor-gridline" paint-order="fill stroke markers" d=" M 0 139.5 L 599.995849609375 139.5" stroke-opacity="0.12" stroke-miterlimit="10" stroke-dasharray=""/><path fill="none" stroke="rgb(0,0,0)" class="dcg-svg-minor-gridline" paint-order="fill stroke markers" d=" M 0 119.5 L 599.995849609375 119.5" stroke-opacity="0.12" stroke-miterlimit="10" stroke-dasharray=""/><path fill="none" stroke="rgb(0,0,0)" class="dcg-svg-minor-gridline" paint-order="fill stroke markers" d=" M 0 99.5 L 599.995849609375 99.5" stroke-opacity="0.12" stroke-miterlimit="10" stroke-dasharray=""/><path fill="none" stroke="rgb(0,0,0)" class="dcg-svg-minor-gridline" paint-order="fill stroke markers" d=" M 0 79.5 L 599.995849609375 79.5" stroke-opacity="0.12" stroke-miterlimit="10" stroke-dasharray=""/><path fill="none" stroke="rgb(0,0,0)" class="dcg-svg-minor-gridline" paint-order="fill stroke markers" d=" M 0 59.5 L 599.995849609375 59.5" stroke-opacity="0.12" stroke-miterlimit="10" stroke-dasharray=""/><path fill="none" stroke="rgb(0,0,0)" class="dcg-svg-minor-gridline" paint-order="fill stroke markers" d=" M 0 39.5 L 599.995849609375 39.5" stroke-opacity="0.12" stroke-miterlimit="10" stroke-dasharray=""/><path fill="none" stroke="rgb(0,0,0)" class="dcg-svg-minor-gridline" paint-order="fill stroke markers" d=" M 0 19.5 L 599.995849609375 19.5" stroke-opacity="0.12" stroke-miterlimit="10" stroke-dasharray=""/><path fill="none" stroke="rgb(0,0,0)" class="dcg-svg-minor-gridline" paint-order="fill stroke markers" d=" M 0 -0.5 L 599.995849609375 -0.5" stroke-opacity="0.12" stroke-miterlimit="10" stroke-dasharray=""/><path fill="none" stroke="rgb(0,0,0)" class="dcg-svg-major-gridline" paint-order="fill stroke markers" d=" M 13.5 0 L 13.5 399.99151611328125" stroke-opacity="0.31818181818181823" stroke-miterlimit="10" stroke-dasharray=""/><path fill="none" stroke="rgb(0,0,0)" class="dcg-svg-major-gridline" paint-order="fill stroke markers" d=" M 156.5 0 L 156.5 399.99151611328125" stroke-opacity="0.31818181818181823" stroke-miterlimit="10" stroke-dasharray=""/><path fill="none" stroke="rgb(0,0,0)" class="dcg-svg-major-gridline" paint-order="fill stroke markers" d=" M 442.5 0 L 442.5 399.99151611328125" stroke-opacity="0.31818181818181823" stroke-miterlimit="10" stroke-dasharray=""/><path fill="none" stroke="rgb(0,0,0)" class="dcg-svg-major-gridline" paint-order="fill stroke markers" d=" M 585.5 0 L 585.5 399.99151611328125" stroke-opacity="0.31818181818181823" stroke-miterlimit="10" stroke-dasharray=""/><path fill="none" stroke="rgb(0,0,0)" class="dcg-svg-major-gridline" paint-order="fill stroke markers" d=" M 0 399.5 L 599.995849609375 399.5" stroke-opacity="0.31818181818181823" stroke-miterlimit="10" stroke-dasharray=""/><path fill="none" stroke="rgb(0,0,0)" class="dcg-svg-major-gridline" paint-order="fill stroke markers" d=" M 0 299.5 L 599.995849609375 299.5" stroke-opacity="0.31818181818181823" stroke-miterlimit="10" stroke-dasharray=""/><path fill="none" stroke="rgb(0,0,0)" class="dcg-svg-major-gridline" paint-order="fill stroke markers" d=" M 0 99.5 L 599.995849609375 99.5" stroke-opacity="0.31818181818181823" stroke-miterlimit="10" stroke-dasharray=""/><path fill="none" stroke="rgb(0,0,0)" class="dcg-svg-major-gridline" paint-order="fill stroke markers" d=" M 0 -0.5 L 599.995849609375 -0.5" stroke-opacity="0.31818181818181823" stroke-miterlimit="10" stroke-dasharray=""/></g></g><g id="axis-ffa4bee1"><path fill="none" stroke="rgb(0,0,0)" class="dcg-svg-axis-line" paint-order="fill stroke markers" d=" M 299.75 0 L 299.75 399.99151611328125" stroke-opacity="0.9" stroke-miterlimit="10" stroke-width="1.5" stroke-dasharray=""/><path fill="none" stroke="rgb(0,0,0)" class="dcg-svg-axis-line" paint-order="fill stroke markers" d=" M 0 199.75 L 599.995849609375 199.75" stroke-opacity="0.9" stroke-miterlimit="10" stroke-width="1.5" stroke-dasharray=""/><g><g class="dcg-svg-axis-value"><text fill="none" stroke="#ffffff" font-family="Arial" font-size="14px" font-style="normal" font-weight="normal" text-decoration="normal" x="291.1048583984375" y="215.80375805664062" text-anchor="middle" stroke-miterlimit="2" stroke-width="3" stroke-dasharray="">0</text><text fill="#000000" stroke="none" font-family="Arial" font-size="14px" font-style="normal" font-weight="normal" text-decoration="normal" x="291.1048583984375" y="215.80375805664062" text-anchor="middle">0</text></g><g class="dcg-svg-axis-value dcg-svg-offcenter-axis-value"><text fill="none" stroke="#ffffff" font-family="Arial" font-size="14px" font-style="normal" font-weight="normal" text-decoration="normal" x="17.01025390625" y="215.80375805664062" text-anchor="middle" stroke-miterlimit="2" stroke-width="3" stroke-dasharray="">-400</text><text fill="#000000" stroke="none" font-family="Arial" font-size="14px" font-style="normal" font-weight="normal" text-decoration="normal" x="17.01025390625" y="215.80375805664062" text-anchor="middle">-400</text></g><g class="dcg-svg-axis-value"><text fill="none" stroke="#ffffff" font-family="Arial" font-size="14px" font-style="normal" font-weight="normal" text-decoration="normal" x="154.8107154482887" y="215.80375805664062" text-anchor="middle" stroke-miterlimit="2" stroke-width="3" stroke-dasharray="">-200</text><text fill="#000000" stroke="none" font-family="Arial" font-size="14px" font-style="normal" font-weight="normal" text-decoration="normal" x="154.8107154482887" y="215.80375805664062" text-anchor="middle">-200</text></g><g class="dcg-svg-axis-value"><text fill="none" stroke="#ffffff" font-family="Arial" font-size="14px" font-style="normal" font-weight="normal" text-decoration="normal" x="442.8540794735863" y="215.80375805664062" text-anchor="middle" stroke-miterlimit="2" stroke-width="3" stroke-dasharray="">200</text><text fill="#000000" stroke="none" font-family="Arial" font-size="14px" font-style="normal" font-weight="normal" text-decoration="normal" x="442.8540794735863" y="215.80375805664062" text-anchor="middle">200</text></g><g class="dcg-svg-axis-value dcg-svg-offcenter-axis-value"><text fill="none" stroke="#ffffff" font-family="Arial" font-size="14px" font-style="normal" font-weight="normal" text-decoration="normal" x="585.316650390625" y="215.80375805664062" text-anchor="middle" stroke-miterlimit="2" stroke-width="3" stroke-dasharray="">400</text><text fill="#000000" stroke="none" font-family="Arial" font-size="14px" font-style="normal" font-weight="normal" text-decoration="normal" x="585.316650390625" y="215.80375805664062" text-anchor="middle">400</text></g><g class="dcg-svg-axis-value dcg-svg-offcenter-axis-value"><text fill="none" stroke="#ffffff" font-family="Arial" font-size="14px" font-style="normal" font-weight="normal" text-decoration="normal" x="288.7738037109375" y="393.79951611328124" text-anchor="middle" stroke-miterlimit="2" stroke-width="3" stroke-dasharray="">-2</text><text fill="#000000" stroke="none" font-family="Arial" font-size="14px" font-style="normal" font-weight="normal" text-decoration="normal" x="288.7738037109375" y="393.79951611328124" text-anchor="middle">-2</text></g><g class="dcg-svg-axis-value"><text fill="none" stroke="#ffffff" font-family="Arial" font-size="14px" font-style="normal" font-weight="normal" text-decoration="normal" x="288.7738037109375" y="303.80163708496093" text-anchor="middle" stroke-miterlimit="2" stroke-width="3" stroke-dasharray="">-1</text><text fill="#000000" stroke="none" font-family="Arial" font-size="14px" font-style="normal" font-weight="normal" text-decoration="normal" x="288.7738037109375" y="303.80163708496093" text-anchor="middle">-1</text></g><g class="dcg-svg-axis-value"><text fill="none" stroke="#ffffff" font-family="Arial" font-size="14px" font-style="normal" font-weight="normal" text-decoration="normal" x="291.1048583984375" y="103.80587902832032" text-anchor="middle" stroke-miterlimit="2" stroke-width="3" stroke-dasharray="">1</text><text fill="#000000" stroke="none" font-family="Arial" font-size="14px" font-style="normal" font-weight="normal" text-decoration="normal" x="291.1048583984375" y="103.80587902832032" text-anchor="middle">1</text></g><g class="dcg-svg-axis-value dcg-svg-offcenter-axis-value"><text fill="none" stroke="#ffffff" font-family="Arial" font-size="14px" font-style="normal" font-weight="normal" text-decoration="normal" x="291.1048583984375" y="13.808" text-anchor="middle" stroke-miterlimit="2" stroke-width="3" stroke-dasharray="">2</text><text fill="#000000" stroke="none" font-family="Arial" font-size="14px" font-style="normal" font-weight="normal" text-decoration="normal" x="291.1048583984375" y="13.808" text-anchor="middle">2</text></g></g></g></g><g id="expressions-ffa4bee1"><path fill="#2d70b3" stroke="none" paint-order="stroke fill markers" d="" fill-opacity="0.4"/><g><path fill="none" stroke="#2d70b3" class="dcg-svg-curve" paint-order="fill stroke markers" d=" M -0.5 149.49681854248053 L -0.5 149.49681854248053 L 2.4296672344207764 143.43078958423206 L 5.212851107120514 137.93360251088313 L 7.849551618099213 132.98787830491926 L 10.339768767356873 128.56997976033216 L 12.829985916614532 124.41460059181753 L 15.173719704151154 120.75725341054351 L 17.517453491687775 117.35807389023961 L 19.861187279224396 114.22820725432513 L 22.058437705039978 111.5476867227514 L 24.25568813085556 109.12061947603365 L 26.452938556671143 106.9539999616556 L 28.650188982486725 105.05407205540251 L 30.847439408302307 103.42631106743767 L 33.04468983411789 102.07540796327191 L 35.09545689821243 101.06779865565869 L 37.146223962306976 100.30729181747921 L 39.19699102640152 99.7957966940217 L 41.24775809049606 99.53459738899903 L 43.29852515459061 99.52434964081806 L 45.34929221868515 99.76507917635445 L 47.400059282779694 100.2561816463658 L 49.45082634687424 100.99642414270471 L 51.50159341096878 101.98394829352293 L 53.552360475063324 103.21627492869669 L 55.749610900878906 104.80475351911741 L 57.94686132669449 106.66611752683417 L 60.14411175251007 108.79500277711423 L 62.34136217832565 111.18527413871931 L 64.53861260414124 113.83004320444394 L 66.88234639167786 116.92304215052081 L 69.22608017921448 120.2867803622371 L 71.5698139667511 123.91022882106978 L 74.06003111600876 128.0314050412013 L 76.55024826526642 132.41709407762744 L 79.18694877624512 137.3310192441034 L 81.82364928722382 142.5028924937294 L 84.60683315992355 148.21820559871784 L 87.53650039434433 154.48991258840445 L 90.75913435220718 161.65378521031488 L 94.27473503351212 169.73481854761891 L 98.3762691617012 179.43581071409974 L 103.6496701836586 192.19045174959086 L 115.95427256822586 222.05348839123005 L 120.05580669641495 231.68743667941408 L 123.57140737771988 239.69155596602505 L 126.79404133558273 246.76965856436658 L 129.7237085700035 252.95117961701425 L 132.50689244270325 258.5704752579309 L 135.14359295368195 263.6424987744377 L 137.78029346466064 268.4483500343799 L 140.2705106139183 272.72482148511676 L 142.76072776317596 276.73024835229876 L 145.10446155071259 280.2391728971667 L 147.4481953382492 283.4833560852892 L 149.6454457640648 286.27486713360497 L 151.84269618988037 288.8162936727457 L 154.03994661569595 291.10031168872456 L 156.23719704151154 293.1203389807037 L 158.43444746732712 294.8705541299199 L 160.6316978931427 296.34591327614925 L 162.68246495723724 297.47117136711245 L 164.7332320213318 298.35046310136016 L 166.78399908542633 298.98158102523587 L 168.83476614952087 299.36294072310767 L 170.92738560267856 299.49363708496094 L 172.93630027770996 299.37318526028145 L 174.9870673418045 299.0020443807689 L 177.03783440589905 298.3810939021902 L 179.0886014699936 297.511892714901 L 181.13936853408813 296.3966229403346 L 183.33661895990372 294.9318236345527 L 185.5338693857193 293.1919917561677 L 187.73111981153488 291.1821412423583 L 189.92837023735046 288.908064183924 L 192.12562066316605 286.37631413333884 L 194.32287108898163 283.5941872183862 L 196.66660487651825 280.3596610785984 L 199.01033866405487 276.8599985256423 L 201.3540724515915 273.1066742465157 L 203.84428960084915 268.85460829516626 L 206.3345067501068 264.3458226781734 L 208.9712072610855 259.3105600743554 L 211.75439113378525 253.72673317022003 L 214.68405836820602 247.5786712700713 L 217.76020896434784 240.85871196533816 L 221.12932628393173 233.2321671183901 L 224.93789368867874 224.3384653183963 L 229.47887790203094 213.46002978298176 L 236.94952934980392 195.2531084442133 L 243.54128062725067 179.28555768751758 L 247.7892981171608 169.247063549716 L 251.45138216018677 160.8506321303717 L 254.67401611804962 153.7153987058044 L 257.75016671419144 147.16855757771788 L 260.5333505868912 141.4988704669325 L 263.1700510978699 136.37450718848294 L 265.8067516088486 131.5120609707095 L 268.29696875810623 127.17844298829277 L 270.7871859073639 123.1124949121783 L 273.1309196949005 119.54372694175476 L 275.47465348243713 116.23710554060528 L 277.81838726997375 113.20347245276213 L 280.01563769578934 110.61622846917794 L 282.2128881216049 108.28512209485268 L 284.4101385474205 106.21687123228213 L 286.6073889732361 104.41743627340077 L 288.80463939905167 102.89200292261677 L 290.8554064631462 101.7193653251494 L 292.90617352724075 100.79219444509948 L 294.9569405913353 100.1128179362704 L 297.00770765542984 99.68294136701911 L 299.0584747195244 99.50364393844319 L 301.1092417836189 99.57537577505644 L 303.16000884771347 99.89795679475543 L 305.210775911808 100.47057716091388 L 307.26154297590256 101.29179931547037 L 309.3123100399971 102.35956158790367 L 311.5095604658127 103.77411872539528 L 313.70681089162827 105.46453141665097 L 315.90406131744385 107.42592814325258 L 318.10131174325943 109.65265645102187 L 320.298562169075 112.1382992395549 L 322.4958125948906 114.87569325535253 L 324.8395463824272 118.06416432494825 L 327.18328016996384 121.51963315094378 L 329.52701395750046 125.23076994865033 L 332.0172311067581 129.44036454888737 L 334.5074482560158 133.90925694797755 L 337.1441487669945 138.9052536843128 L 339.9273326396942 144.4511282687516 L 342.856999874115 150.56330722001533 L 345.9331504702568 157.25027584933747 L 349.3022677898407 164.8464123645789 L 352.96435183286667 173.36754064286598 L 357.35885268449783 183.86274384616385 L 363.9506039619446 199.90480978320883 L 371.8607054948807 219.104664516266 L 376.25520634651184 229.5006731263345 L 379.9172903895378 237.90496289269834 L 383.13992434740067 245.0486756742526 L 386.2160749435425 251.60492648139626 L 388.9992588162422 257.2841896494456 L 391.6359593272209 262.41851471724294 L 394.2726598381996 267.29174636170796 L 396.7628769874573 271.63626656137143 L 399.25309413671494 275.7137712733358 L 401.59682792425156 279.2939756073201 L 403.9405617117882 282.61253769565536 L 406.2842954993248 285.6585766432068 L 408.4815459251404 288.25783743842936 L 410.67879635095596 290.60129909844926 L 412.87604677677155 292.68220811467137 L 415.0732972025871 294.4945676162418 L 417.2705476284027 296.033154652139 L 419.32131469249725 297.2182423277176 L 421.3720817565918 298.15799862256324 L 423.42284882068634 298.85006428730674 L 425.4736158847809 299.29270189758415 L 427.5243829488754 299.48480021582395 L 429.57515001296997 299.42587698099896 L 431.6259170770645 299.1160801193379 L 433.67668414115906 298.5561873729578 L 435.7274512052536 297.74760434735043 L 437.77821826934814 296.69236098262184 L 439.9754686951637 295.29104785266907 L 442.1727191209793 293.6136669192467 L 444.3699695467949 291.66505214518173 L 446.5672199726105 289.45081914896264 L 448.76447039842606 286.9773490213605 L 450.96172082424164 284.251769936073 L 453.30545461177826 281.07546881805285 L 455.6491883993149 277.6316842977942 L 457.9929221868515 273.9317078495065 L 460.48313933610916 269.7333561218376 L 462.9733564853668 265.27503219698133 L 465.6100569963455 260.2894471091414 L 468.39324086904526 254.75364712381847 L 471.32290810346603 248.65100707627178 L 474.39905869960785 241.97282523187758 L 477.76817601919174 234.38481018995802 L 481.4302600622177 225.87066653791928 L 485.8247609138489 215.3812354564037 L 492.2700288295746 199.7002843477203 L 500.47309708595276 179.78658406535746 L 504.8675979375839 169.3933075879803 L 508.5296819806099 160.9921545712598 L 511.75231593847275 153.85182793231712 L 514.8284665346146 147.29933585773904 L 517.6116504073143 141.62389866147828 L 520.248350918293 136.49355428587535 L 522.8850514292717 131.6246329936365 L 525.3752685785294 127.28447027716749 L 527.865485727787 123.21158502551629 L 530.2092195153236 119.63595243295111 L 532.5529533028603 116.32216402089296 L 534.8966870903969 113.28108503255584 L 537.0939375162125 110.68662892761483 L 539.291187942028 108.3481075482631 L 541.4884383678436 106.27226016594028 L 543.6856887936592 104.46506906462275 L 545.8829392194748 102.93174230076994 L 547.9337062835693 101.75163373145023 L 549.9844733476639 100.81691087001656 L 552.0352404117584 100.12992032945061 L 554.086007475853 99.69238679306466 L 556.1367745399475 99.50540868470057 L 558.187541604042 99.56945541114669 L 560.2383086681366 99.88436618369661 L 562.2890757322311 100.44935042180776 L 564.3398427963257 101.2629897378464 L 566.3906098604202 102.32324149793652 L 568.5878602862358 103.72985333489532 L 570.7851107120514 105.41244829190208 L 572.982361137867 107.36617738008795 L 575.1796115636826 109.58541024227043 L 577.3768619894981 112.06375137880696 L 579.5741124153137 114.79405857847541 L 581.9178462028503 117.97523017296373 L 584.261579990387 121.4236911209822 L 586.6053137779236 125.12813461525917 L 589.0955309271812 129.33098678911585 L 591.5857480764389 133.79354160449276 L 594.2224485874176 138.7832952660665 L 597.0056324601173 144.32312943681788 L 599.495849609375 149.49681854248053" stroke-linecap="round" stroke-linejoin="round" stroke-miterlimit="10" stroke-width="2.5" stroke-opacity="0.7" stroke-dasharray=""/></g></g><g id="labels-ffa4bee1"/></g></svg>