<svg version="1.1" xmlns="http://www.w3.org/2000/svg" xmlns:xlink="http://www.w3.org/1999/xlink" width="599" height="399"><defs/><g transform="scale(1,1)"><g id="background-ad13cc38"><rect fill="white" stroke="none" x="0" y="0" width="599.995849609375" height="399.99151611328125" class="dcg-svg-background"/></g><g id="background-images-ad13cc38"/><g id="graphpaper-ad13cc38"><g id="axis-ad13cc38"><path fill="none" stroke="rgb(0,0,0)" class="dcg-svg-axis-line" paint-order="fill stroke markers" d=" M 299.75 0 L 299.75 399.99151611328125" stroke-opacity="0.9" stroke-miterlimit="10" stroke-width="1.5" stroke-dasharray=""/><path fill="none" stroke="rgb(0,0,0)" class="dcg-svg-axis-line" paint-order="fill stroke markers" d=" M 0 199.75 L 599.995849609375 199.75" stroke-opacity="0.9" stroke-miterlimit="10" stroke-width="1.5" stroke-dasharray=""/><g><g class="dcg-svg-axis-value"><text fill="none" stroke="#ffffff" font-family="Arial" font-size="14px" font-style="normal" font-weight="normal" text-decoration="normal" x="291.1048583984375" y="215.80375805664062" text-anchor="middle" stroke-miterlimit="2" stroke-width="3" stroke-dasharray="">0</text><text fill="#000000" stroke="none" font-family="Arial" font-size="14px" font-style="normal" font-weight="normal" text-decoration="normal" x="291.1048583984375" y="215.80375805664062" text-anchor="middle">0</text></g><g><path fill="none" stroke="rgb(0,0,0)" class="dcg-svg-tickmark" paint-order="fill stroke markers" d=" M -0.25 197 L -0.25 202.5 M 149.75 197 L 149.75 202.5 M 449.75 197 L 449.75 202.5 M 599.75 197 L 599.75 202.5 M 297 342.75 L 302.5 342.75 M 297 56.75 L 302.5 56.75" stroke-opacity="0.9" stroke-miterlimit="2" stroke-width="1.5" stroke-dasharray=""/></g><g class="dcg-svg-axis-value dcg-svg-offcenter-axis-value"><text fill="none" stroke="#ffffff" font-family="Arial" font-size="14px" font-style="normal" font-weight="normal" text-decoration="normal" x="13.1171875" y="215.80375805664062" text-anchor="middle" stroke-miterlimit="2" stroke-width="3" stroke-dasharray="">-10</text><text fill="#000000" stroke="none" font-family="Arial" font-size="14px" font-style="normal" font-weight="normal" text-decoration="normal" x="13.1171875" y="215.80375805664062" text-anchor="middle">-10</text></g><g class="dcg-svg-axis-value"><text fill="none" stroke="#ffffff" font-family="Arial" font-size="14px" font-style="normal" font-weight="normal" text-decoration="normal" x="147.66790771484375" y="215.80375805664062" text-anchor="middle" stroke-miterlimit="2" stroke-width="3" stroke-dasharray="">-5</text><text fill="#000000" stroke="none" font-family="Arial" font-size="14px" font-style="normal" font-weight="normal" text-decoration="normal" x="147.66790771484375" y="215.80375805664062" text-anchor="middle">-5</text></g><g class="dcg-svg-axis-value"><text fill="none" stroke="#ffffff" font-family="Arial" font-size="14px" font-style="normal" font-weight="normal" text-decoration="normal" x="449.99688720703125" y="215.80375805664062" text-anchor="middle" stroke-miterlimit="2" stroke-width="3" stroke-dasharray="">5</text><text fill="#000000" stroke="none" font-family="Arial" font-size="14px" font-style="normal" font-weight="normal" text-decoration="normal" x="449.99688720703125" y="215.80375805664062" text-anchor="middle">5</text></g><g class="dcg-svg-axis-value dcg-svg-offcenter-axis-value"><text fill="none" stroke="#ffffff" font-family="Arial" font-size="14px" font-style="normal" font-weight="normal" text-decoration="normal" x="589.209716796875" y="215.80375805664062" text-anchor="middle" stroke-miterlimit="2" stroke-width="3" stroke-dasharray="">10</text><text fill="#000000" stroke="none" font-family="Arial" font-size="14px" font-style="normal" font-weight="normal" text-decoration="normal" x="589.209716796875" y="215.80375805664062" text-anchor="middle">10</text></g><g class="dcg-svg-axis-value"><text fill="none" stroke="#ffffff" font-family="Arial" font-size="14px" font-style="normal" font-weight="normal" text-decoration="normal" x="288.7738037109375" y="346.65787095424105" text-anchor="middle" stroke-miterlimit="2" stroke-width="3" stroke-dasharray="">-5</text><text fill="#000000" stroke="none" font-family="Arial" font-size="14px" font-style="normal" font-weight="normal" text-decoration="normal" x="288.7738037109375" y="346.65787095424105" text-anchor="middle">-5</text></g><g class="dcg-svg-axis-value"><text fill="none" stroke="#ffffff" font-family="Arial" font-size="14px" font-style="normal" font-weight="normal" text-decoration="normal" x="291.1048583984375" y="60.949645159040166" text-anchor="middle" stroke-miterlimit="2" stroke-width="3" stroke-dasharray="">5</text><text fill="#000000" stroke="none" font-family="Arial" font-size="14px" font-style="normal" font-weight="normal" text-decoration="normal" x="291.1048583984375" y="60.949645159040166" text-anchor="middle">5</text></g></g></g></g><g id="expressions-ad13cc38"><path fill="#2d70b3" stroke="none" paint-order="stroke fill markers" d="" fill-opacity="0.4"/><path fill="#2d70b3" stroke="none" paint-order="stroke fill markers" d="" fill-opacity="0.4"/><g><path fill="none" stroke="#2d70b3" class="dcg-svg-curve" paint-order="fill stroke markers" d=" M 209.49854736328123 113.78329031808033 L 209.49854736328123 113.78329031808033 L 209.7036240696907 108.00033456654904 L 210.28955751657486 102.44431238845527 L 211.1684576869011 97.34858708220258 L 212.3403245806694 92.41456388920108 L 213.8051581978798 87.5864761450294 L 215.56295853853226 82.85246667144526 L 217.6137256026268 78.21436723518309 L 219.95745939016342 73.67966474062786 L 222.74064326286316 69.03005357889322 L 225.81679385900497 64.56350434183429 L 229.18591117858887 60.28000275108843 L 232.99447858333588 56.03197052389362 L 237.242496073246 51.8856439367575 L 241.63699692487717 48.13207745526353 L 246.03149777650833 44.8353866141976 L 250.57248198986053 41.84210827704834 L 255.25994956493378 39.139988013268805 L 259.947417140007 36.790735603976884 L 264.7813680768013 34.70440065299471 L 269.6153190135956 32.93342916898166 L 274.44926995038986 31.457466587604074 L 279.28322088718414 30.260871735513376 L 284.26365518569946 29.307690011713078 L 289.2440894842148 28.628937877452643 L 294.2245237827301 28.218084286270255 L 299.2049580812454 28.071276701717977 L 304.18539237976074 28.187156501775178 L 309.16582667827606 28.56679530890932 L 314.1462609767914 29.21374514832513 L 318.98021191358566 30.10315347864099 L 323.81416285037994 31.258538996901052 L 328.6481137871742 32.69126970146942 L 333.4820647239685 34.41636406630727 L 338.16953229904175 36.38684686708518 L 342.856999874115 38.673690851687525 L 347.3979840874672 41.218946754841795 L 351.9389683008194 44.12476478231849 L 356.33346915245056 47.32463768690536 L 360.5814866423607 50.83558113999197 L 364.6830207705498 54.68437918785651 L 368.6380715370178 58.912316849476554 L 372.3001555800438 63.39123911041315 L 375.52278953790665 67.91013816688547 L 378.3059734106064 72.38893758650443 L 380.79619055986404 77.01549755023979 L 382.9934409856796 81.79187334540717 L 384.89772468805313 86.73266911321878 L 386.3625583052635 91.3586614345005 L 387.53442519903183 95.97981416527983 L 388.41332536935806 100.5204173588017 L 388.9992588162422 104.77855009314368 L 389.2922255396843 108.00033456654904 L 389.49730224609374 113.78329031808033" stroke-linecap="round" stroke-linejoin="round" stroke-miterlimit="10" stroke-width="2.5" stroke-opacity="0.7" stroke-dasharray=""/></g><g><path fill="none" stroke="#2d70b3" class="dcg-svg-curve" paint-order="fill stroke markers" d=" M 209.49854736328123 113.78329031808033 L 209.49854736328123 113.78329031808033 L 209.7036240696907 119.56624606961162 L 210.28955751657486 125.12226824770539 L 211.1684576869011 130.21799355395808 L 212.3403245806694 135.1520167469596 L 213.8051581978798 139.98010449113127 L 215.56295853853226 144.7141139647154 L 217.6137256026268 149.35221340097755 L 219.95745939016342 153.88691589553284 L 222.74064326286316 158.53652705726742 L 225.81679385900497 163.00307629432638 L 229.18591117858887 167.28657788507226 L 232.99447858333588 171.53461011226707 L 237.242496073246 175.6809366994031 L 241.63699692487717 179.4345031808972 L 246.03149777650833 182.73119402196312 L 250.57248198986053 185.72447235911227 L 255.25994956493378 188.42659262289183 L 259.947417140007 190.77584503218378 L 264.7813680768013 192.86217998316602 L 269.6153190135956 194.633151467179 L 274.44926995038986 196.10911404855662 L 279.28322088718414 197.30570890064735 L 284.26365518569946 198.25889062444764 L 289.2440894842148 198.93764275870808 L 294.2245237827301 199.34849634989038 L 299.2049580812454 199.49530393444272 L 304.18539237976074 199.37942413438546 L 309.16582667827606 198.99978532725137 L 314.1462609767914 198.3528354878355 L 318.98021191358566 197.46342715751967 L 323.81416285037994 196.30804163925967 L 328.6481137871742 194.87531093469127 L 333.4820647239685 193.15021656985343 L 338.16953229904175 191.17973376907548 L 342.856999874115 188.8928897844731 L 347.3979840874672 186.34763388131887 L 351.9389683008194 183.44181585384214 L 356.33346915245056 180.24194294925533 L 360.5814866423607 176.73099949616872 L 364.6830207705498 172.88220144830416 L 368.6380715370178 168.65426378668406 L 372.3001555800438 164.17534152574748 L 375.52278953790665 159.65644246927522 L 378.3059734106064 155.17764304965624 L 380.79619055986404 150.5510830859209 L 382.9934409856796 145.77470729075353 L 384.89772468805313 140.8339115229419 L 386.3625583052635 136.20791920166016 L 387.53442519903183 131.58676647088083 L 388.41332536935806 127.04616327735897 L 388.9992588162422 122.78803054301704 L 389.2922255396843 119.56624606961162 L 389.49730224609374 113.78329031808033" stroke-linecap="round" stroke-linejoin="round" stroke-miterlimit="10" stroke-width="2.5" stroke-opacity="0.7" stroke-dasharray=""/></g><path fill="#388c46" stroke="none" paint-order="stroke fill markers" d="" fill-opacity="0.4"/><g><path fill="none" stroke="#388c46" class="dcg-svg-curve" paint-order="fill stroke markers" d=" M -0.5 56.64164515904014 L -0.5 56.64164515904014 L 12.244052469730377 68.52087138078366 L 24.841621577739716 79.75682386025744 L 37.146223962306976 90.24511153376386 L 49.15785962343216 100.02006594851571 L 61.023011922836304 109.22613163995885 L 72.59519749879837 117.77438036427128 L 84.0208997130394 125.79733598078326 L 95.15363520383835 133.21594737731147 L 106.13988733291626 140.15122644596596 L 116.97965610027313 146.61849977032395 L 127.52645814418793 152.5529529313914 L 137.92677682638168 158.05918134731365 L 148.1806121468544 163.15169418387705 L 158.28796410560608 167.84479625242028 L 168.24883270263672 172.1525880098343 L 178.06321793794632 176.0889655585623 L 187.87760317325592 179.71956073538914 L 197.54550504684448 182.99699736752413 L 207.066923558712 185.93476284851513 L 216.58834207057953 188.58472914900213 L 225.963277220726 190.91273501714542 L 235.3382123708725 192.96172894603555 L 244.56666415929794 194.7062006887853 L 253.7951159477234 196.18031149723433 L 263.02356773614883 197.38406137138267 L 272.10553616285324 198.30474627639862 L 281.18750458955765 198.9635850157678 L 290.26947301626205 199.36057758949028 L 299.35144144296646 199.495723997566 L 308.43340986967087 199.369024239995 L 317.5153782963753 198.98047831677727 L 326.5973467230797 198.3300862279128 L 335.6793151497841 197.41784797340162 L 344.7612835764885 196.24376355324367 L 353.98973536491394 194.78252707499942 L 363.2181871533394 193.05092966245448 L 372.44663894176483 191.04897131560884 L 381.8215740919113 188.73840369366891 L 391.1965092420578 186.14882413247582 L 400.7179277539253 183.23319704998514 L 410.23934626579285 180.0297707869904 L 419.9072481393814 176.4825862838978 L 429.721633374691 172.57815614715946 L 439.5360186100006 168.36794363851988 L 449.49688720703125 163.7822298322405 L 459.60423916578293 158.80711862587793 L 469.85807448625565 153.4285095625413 L 480.2583931684494 147.63209783089192 L 490.8051952123642 141.40337426514344 L 501.49848061800003 134.72762534506177 L 512.4847327470779 127.49092346605693 L 523.6174682378769 119.7668702883737 L 534.8966870903969 111.5399348739873 L 546.468872666359 102.67956878989514 L 558.187541604042 93.27381474397924 L 570.1991772651672 83.1804760997183 L 582.3572962880135 72.49760893293148 L 594.8083820343018 61.070959694683495 L 599.495849609375 56.64164515904014" stroke-linecap="round" stroke-linejoin="round" stroke-miterlimit="10" stroke-width="2.5" stroke-opacity="0.7" stroke-dasharray=""/></g></g><g id="labels-ad13cc38"/></g></svg>