<svg version="1.1" xmlns="http://www.w3.org/2000/svg" xmlns:xlink="http://www.w3.org/1999/xlink" width="600" height="400"><defs/><g transform="scale(1,1)"><g id="background-ac99ae9a"><rect fill="white" stroke="none" x="0" y="0" width="600" height="400" class="dcg-svg-background"/></g><g id="background-images-ac99ae9a"/><g id="graphpaper-ac99ae9a"><g id="grid-ac99ae9a"><g><path fill="none" stroke="rgb(0,0,0)" class="dcg-svg-minor-gridline" paint-order="fill stroke markers" d=" M 13.5 0 L 13.5 400" stroke-opacity="0.12" stroke-miterlimit="10" stroke-dasharray=""/><path fill="none" stroke="rgb(0,0,0)" class="dcg-svg-minor-gridline" paint-order="fill stroke markers" d=" M 49.5 0 L 49.5 400" stroke-opacity="0.12" stroke-miterlimit="10" stroke-dasharray=""/><path fill="none" stroke="rgb(0,0,0)" class="dcg-svg-minor-gridline" paint-order="fill stroke markers" d=" M 85.5 0 L 85.5 400" stroke-opacity="0.12" stroke-miterlimit="10" stroke-dasharray=""/><path fill="none" stroke="rgb(0,0,0)" class="dcg-svg-minor-gridline" paint-order="fill stroke markers" d=" M 120.5 0 L 120.5 400" stroke-opacity="0.12" stroke-miterlimit="10" stroke-dasharray=""/><path fill="none" stroke="rgb(0,0,0)" class="dcg-svg-minor-gridline" paint-order="fill stroke markers" d=" M 156.5 0 L 156.5 400" stroke-opacity="0.12" stroke-miterlimit="10" stroke-dasharray=""/><path fill="none" stroke="rgb(0,0,0)" class="dcg-svg-minor-gridline" paint-order="fill stroke markers" d=" M 192.5 0 L 192.5 400" stroke-opacity="0.12" stroke-miterlimit="10" stroke-dasharray=""/><path fill="none" stroke="rgb(0,0,0)" class="dcg-svg-minor-gridline" paint-order="fill stroke markers" d=" M 228.5 0 L 228.5 400" stroke-opacity="0.12" stroke-miterlimit="10" stroke-dasharray=""/><path fill="none" stroke="rgb(0,0,0)" class="dcg-svg-minor-gridline" paint-order="fill stroke markers" d=" M 263.5 0 L 263.5 400" stroke-opacity="0.12" stroke-miterlimit="10" stroke-dasharray=""/><path fill="none" stroke="rgb(0,0,0)" class="dcg-svg-minor-gridline" paint-order="fill stroke markers" d=" M 335.5 0 L 335.5 400" stroke-opacity="0.12" stroke-miterlimit="10" stroke-dasharray=""/><path fill="none" stroke="rgb(0,0,0)" class="dcg-svg-minor-gridline" paint-order="fill stroke markers" d=" M 370.5 0 L 370.5 400" stroke-opacity="0.12" stroke-miterlimit="10" stroke-dasharray=""/><path fill="none" stroke="rgb(0,0,0)" class="dcg-svg-minor-gridline" paint-order="fill stroke markers" d=" M 406.5 0 L 406.5 400" stroke-opacity="0.12" stroke-miterlimit="10" stroke-dasharray=""/><path fill="none" stroke="rgb(0,0,0)" class="dcg-svg-minor-gridline" paint-order="fill stroke markers" d=" M 442.5 0 L 442.5 400" stroke-opacity="0.12" stroke-miterlimit="10" stroke-dasharray=""/><path fill="none" stroke="rgb(0,0,0)" class="dcg-svg-minor-gridline" paint-order="fill stroke markers" d=" M 478.5 0 L 478.5 400" stroke-opacity="0.12" stroke-miterlimit="10" stroke-dasharray=""/><path fill="none" stroke="rgb(0,0,0)" class="dcg-svg-minor-gridline" paint-order="fill stroke markers" d=" M 513.5 0 L 513.5 400" stroke-opacity="0.12" stroke-miterlimit="10" stroke-dasharray=""/><path fill="none" stroke="rgb(0,0,0)" class="dcg-svg-minor-gridline" paint-order="fill stroke markers" d=" M 549.5 0 L 549.5 400" stroke-opacity="0.12" stroke-miterlimit="10" stroke-dasharray=""/><path fill="none" stroke="rgb(0,0,0)" class="dcg-svg-minor-gridline" paint-order="fill stroke markers" d=" M 585.5 0 L 585.5 400" stroke-opacity="0.12" stroke-miterlimit="10" stroke-dasharray=""/><path fill="none" stroke="rgb(0,0,0)" class="dcg-svg-minor-gridline" paint-order="fill stroke markers" d=" M 0 379.5 L 600 379.5" stroke-opacity="0.12" stroke-miterlimit="10" stroke-dasharray=""/><path fill="none" stroke="rgb(0,0,0)" class="dcg-svg-minor-gridline" paint-order="fill stroke markers" d=" M 0 359.5 L 600 359.5" stroke-opacity="0.12" stroke-miterlimit="10" stroke-dasharray=""/><path fill="none" stroke="rgb(0,0,0)" class="dcg-svg-minor-gridline" paint-order="fill stroke markers" d=" M 0 339.5 L 600 339.5" stroke-opacity="0.12" stroke-miterlimit="10" stroke-dasharray=""/><path fill="none" stroke="rgb(0,0,0)" class="dcg-svg-minor-gridline" paint-order="fill stroke markers" d=" M 0 319.5 L 600 319.5" stroke-opacity="0.12" stroke-miterlimit="10" stroke-dasharray=""/><path fill="none" stroke="rgb(0,0,0)" class="dcg-svg-minor-gridline" paint-order="fill stroke markers" d=" M 0 299.5 L 600 299.5" stroke-opacity="0.12" stroke-miterlimit="10" stroke-dasharray=""/><path fill="none" stroke="rgb(0,0,0)" class="dcg-svg-minor-gridline" paint-order="fill stroke markers" d=" M 0 279.5 L 600 279.5" stroke-opacity="0.12" stroke-miterlimit="10" stroke-dasharray=""/><path fill="none" stroke="rgb(0,0,0)" class="dcg-svg-minor-gridline" paint-order="fill stroke markers" d=" M 0 259.5 L 600 259.5" stroke-opacity="0.12" stroke-miterlimit="10" stroke-dasharray=""/><path fill="none" stroke="rgb(0,0,0)" class="dcg-svg-minor-gridline" paint-order="fill stroke markers" d=" M 0 239.5 L 600 239.5" stroke-opacity="0.12" stroke-miterlimit="10" stroke-dasharray=""/><path fill="none" stroke="rgb(0,0,0)" class="dcg-svg-minor-gridline" paint-order="fill stroke markers" d=" M 0 219.5 L 600 219.5" stroke-opacity="0.12" stroke-miterlimit="10" stroke-dasharray=""/><path fill="none" stroke="rgb(0,0,0)" class="dcg-svg-minor-gridline" paint-order="fill stroke markers" d=" M 0 179.5 L 600 179.5" stroke-opacity="0.12" stroke-miterlimit="10" stroke-dasharray=""/><path fill="none" stroke="rgb(0,0,0)" class="dcg-svg-minor-gridline" paint-order="fill stroke markers" d=" M 0 159.5 L 600 159.5" stroke-opacity="0.12" stroke-miterlimit="10" stroke-dasharray=""/><path fill="none" stroke="rgb(0,0,0)" class="dcg-svg-minor-gridline" paint-order="fill stroke markers" d=" M 0 139.5 L 600 139.5" stroke-opacity="0.12" stroke-miterlimit="10" stroke-dasharray=""/><path fill="none" stroke="rgb(0,0,0)" class="dcg-svg-minor-gridline" paint-order="fill stroke markers" d=" M 0 119.5 L 600 119.5" stroke-opacity="0.12" stroke-miterlimit="10" stroke-dasharray=""/><path fill="none" stroke="rgb(0,0,0)" class="dcg-svg-minor-gridline" paint-order="fill stroke markers" d=" M 0 99.5 L 600 99.5" stroke-opacity="0.12" stroke-miterlimit="10" stroke-dasharray=""/><path fill="none" stroke="rgb(0,0,0)" class="dcg-svg-minor-gridline" paint-order="fill stroke markers" d=" M 0 79.5 L 600 79.5" stroke-opacity="0.12" stroke-miterlimit="10" stroke-dasharray=""/><path fill="none" stroke="rgb(0,0,0)" class="dcg-svg-minor-gridline" paint-order="fill stroke markers" d=" M 0 59.5 L 600 59.5" stroke-opacity="0.12" stroke-miterlimit="10" stroke-dasharray=""/><path fill="none" stroke="rgb(0,0,0)" class="dcg-svg-minor-gridline" paint-order="fill stroke markers" d=" M 0 39.5 L 600 39.5" stroke-opacity="0.12" stroke-miterlimit="10" stroke-dasharray=""/><path fill="none" stroke="rgb(0,0,0)" class="dcg-svg-minor-gridline" paint-order="fill stroke markers" d=" M 0 19.5 L 600 19.5" stroke-opacity="0.12" stroke-miterlimit="10" stroke-dasharray=""/><path fill="none" stroke="rgb(0,0,0)" class="dcg-svg-minor-gridline" paint-order="fill stroke markers" d=" M 0 -0.5 L 600 -0.5" stroke-opacity="0.12" stroke-miterlimit="10" stroke-dasharray=""/><path fill="none" stroke="rgb(0,0,0)" class="dcg-svg-major-gridline" paint-order="fill stroke markers" d=" M 13.5 0 L 13.5 400" stroke-opacity="0.31818181818181823" stroke-miterlimit="10" stroke-dasharray=""/><path fill="none" stroke="rgb(0,0,0)" class="dcg-svg-major-gridline" paint-order="fill stroke markers" d=" M 156.5 0 L 156.5 400" stroke-opacity="0.31818181818181823" stroke-miterlimit="10" stroke-dasharray=""/><path fill="none" stroke="rgb(0,0,0)" class="dcg-svg-major-gridline" paint-order="fill stroke markers" d=" M 442.5 0 L 442.5 400" stroke-opacity="0.31818181818181823" stroke-miterlimit="10" stroke-dasharray=""/><path fill="none" stroke="rgb(0,0,0)" class="dcg-svg-major-gridline" paint-order="fill stroke markers" d=" M 585.5 0 L 585.5 400" stroke-opacity="0.31818181818181823" stroke-miterlimit="10" stroke-dasharray=""/><path fill="none" stroke="rgb(0,0,0)" class="dcg-svg-major-gridline" paint-order="fill stroke markers" d=" M 0 299.5 L 600 299.5" stroke-opacity="0.31818181818181823" stroke-miterlimit="10" stroke-dasharray=""/><path fill="none" stroke="rgb(0,0,0)" class="dcg-svg-major-gridline" paint-order="fill stroke markers" d=" M 0 99.5 L 600 99.5" stroke-opacity="0.31818181818181823" stroke-miterlimit="10" stroke-dasharray=""/><path fill="none" stroke="rgb(0,0,0)" class="dcg-svg-major-gridline" paint-order="fill stroke markers" d=" M 0 -0.5 L 600 -0.5" stroke-opacity="0.31818181818181823" stroke-miterlimit="10" stroke-dasharray=""/></g></g><g id="axis-ac99ae9a"><path fill="none" stroke="rgb(0,0,0)" class="dcg-svg-axis-line" paint-order="fill stroke markers" d=" M 299.75 0 L 299.75 400" stroke-opacity="0.9" stroke-miterlimit="10" stroke-width="1.5" stroke-dasharray=""/><path fill="none" stroke="rgb(0,0,0)" class="dcg-svg-axis-line" paint-order="fill stroke markers" d=" M 0 199.75 L 600 199.75" stroke-opacity="0.9" stroke-miterlimit="10" stroke-width="1.5" stroke-dasharray=""/><g><g class="dcg-svg-axis-value"><text fill="none" stroke="#ffffff" font-family="Arial" font-size="14px" font-style="normal" font-weight="normal" text-decoration="normal" x="291.10693359375" y="215.808" text-anchor="middle" stroke-miterlimit="2" stroke-width="3" stroke-dasharray="">0</text><text fill="#000000" stroke="none" font-family="Arial" font-size="14px" font-style="normal" font-weight="normal" text-decoration="normal" x="291.10693359375" y="215.808" text-anchor="middle">0</text></g><g class="dcg-svg-axis-value dcg-svg-offcenter-axis-value"><text fill="none" stroke="#ffffff" font-family="Arial" font-size="14px" font-style="normal" font-weight="normal" text-decoration="normal" x="17.01025390625" y="215.808" text-anchor="middle" stroke-miterlimit="2" stroke-width="3" stroke-dasharray="">-400</text><text fill="#000000" stroke="none" font-family="Arial" font-size="14px" font-style="normal" font-weight="normal" text-decoration="normal" x="17.01025390625" y="215.808" text-anchor="middle">-400</text></g><g class="dcg-svg-axis-value"><text fill="none" stroke="#ffffff" font-family="Arial" font-size="14px" font-style="normal" font-weight="normal" text-decoration="normal" x="154.81180245535714" y="215.808" text-anchor="middle" stroke-miterlimit="2" stroke-width="3" stroke-dasharray="">-200</text><text fill="#000000" stroke="none" font-family="Arial" font-size="14px" font-style="normal" font-weight="normal" text-decoration="normal" x="154.81180245535714" y="215.808" text-anchor="middle">-200</text></g><g class="dcg-svg-axis-value"><text fill="none" stroke="#ffffff" font-family="Arial" font-size="14px" font-style="normal" font-weight="normal" text-decoration="normal" x="442.8571428571429" y="215.808" text-anchor="middle" stroke-miterlimit="2" stroke-width="3" stroke-dasharray="">200</text><text fill="#000000" stroke="none" font-family="Arial" font-size="14px" font-style="normal" font-weight="normal" text-decoration="normal" x="442.8571428571429" y="215.808" text-anchor="middle">200</text></g><g class="dcg-svg-axis-value dcg-svg-offcenter-axis-value"><text fill="none" stroke="#ffffff" font-family="Arial" font-size="14px" font-style="normal" font-weight="normal" text-decoration="normal" x="585.32080078125" y="215.808" text-anchor="middle" stroke-miterlimit="2" stroke-width="3" stroke-dasharray="">400</text><text fill="#000000" stroke="none" font-family="Arial" font-size="14px" font-style="normal" font-weight="normal" text-decoration="normal" x="585.32080078125" y="215.808" text-anchor="middle">400</text></g><g class="dcg-svg-axis-value dcg-svg-offcenter-axis-value"><text fill="none" stroke="#ffffff" font-family="Arial" font-size="14px" font-style="normal" font-weight="normal" text-decoration="normal" x="288.77587890625" y="393.808" text-anchor="middle" stroke-miterlimit="2" stroke-width="3" stroke-dasharray="">-2</text><text fill="#000000" stroke="none" font-family="Arial" font-size="14px" font-style="normal" font-weight="normal" text-decoration="normal" x="288.77587890625" y="393.808" text-anchor="middle">-2</text></g><g class="dcg-svg-axis-value"><text fill="none" stroke="#ffffff" font-family="Arial" font-size="14px" font-style="normal" font-weight="normal" text-decoration="normal" x="288.77587890625" y="303.808" text-anchor="middle" stroke-miterlimit="2" stroke-width="3" stroke-dasharray="">-1</text><text fill="#000000" stroke="none" font-family="Arial" font-size="14px" font-style="normal" font-weight="normal" text-decoration="normal" x="288.77587890625" y="303.808" text-anchor="middle">-1</text></g><g class="dcg-svg-axis-value"><text fill="none" stroke="#ffffff" font-family="Arial" font-size="14px" font-style="normal" font-weight="normal" text-decoration="normal" x="291.10693359375" y="103.808" text-anchor="middle" stroke-miterlimit="2" stroke-width="3" stroke-dasharray="">1</text><text fill="#000000" stroke="none" font-family="Arial" font-size="14px" font-style="normal" font-weight="normal" text-decoration="normal" x="291.10693359375" y="103.808" text-anchor="middle">1</text></g><g class="dcg-svg-axis-value dcg-svg-offcenter-axis-value"><text fill="none" stroke="#ffffff" font-family="Arial" font-size="14px" font-style="normal" font-weight="normal" text-decoration="normal" x="291.10693359375" y="13.808" text-anchor="middle" stroke-miterlimit="2" stroke-width="3" stroke-dasharray="">2</text><text fill="#000000" stroke="none" font-family="Arial" font-size="14px" font-style="normal" font-weight="normal" text-decoration="normal" x="291.10693359375" y="13.808" text-anchor="middle">2</text></g></g></g></g><g id="expressions-ac99ae9a"><path fill="#2d70b3" stroke="none" paint-order="stroke fill markers" d="" fill-opacity="0.4"/><g><path fill="none" stroke="#2d70b3" class="dcg-svg-curve" paint-order="fill stroke markers" d=" M -0.5 149.50000000000006 L -0.5 149.50000000000006 L 2.4296875 143.4338423802664 L 5.212890625 137.93653871066357 L 7.849609375 132.99070960506498 L 10.33984375 128.57271735611346 L 12.830078125 124.41725005131417 L 15.173828125 120.75982529709688 L 17.517578125 117.36057367962883 L 19.861328125 114.23064065872143 L 22.05859375 111.55006327286048 L 24.255859375 109.12294454764196 L 26.453125 106.95627907890292 L 28.650390625 105.05631087486228 L 30.84765625 103.42851536181558 L 33.044921875 102.07758360476987 L 35.095703125 101.06995292559532 L 37.146484375 100.30942995693903 L 39.197265625 99.79792398458477 L 41.248046875 99.53671913948125 L 43.298828125 99.52647117394383 L 45.349609375 99.76720581539382 L 47.400390625 100.2583187017704 L 49.451171875 100.99857689877598 L 51.501953125 101.98612199514605 L 53.552734375 103.21847476817317 L 55.75 104.80698705048945 L 57.947265625 106.66839053804705 L 60.14453125 108.79732094233805 L 62.341796875 111.18764300199712 L 64.5390625 113.8324681637144 L 66.8828125 116.9255327128144 L 69.2265625 120.28934226997876 L 71.5703125 123.91286758275709 L 74.060546875 128.03413121372313 L 76.55078125 132.41991327134463 L 79.1875 137.33394266299229 L 81.82421875 142.5059256089118 L 84.607421875 148.22135993664375 L 87.537109375 154.49319995028085 L 90.759765625 161.65722451912347 L 94.275390625 169.7384292564914 L 98.376953125 179.43962718263282 L 103.650390625 192.19453874618597 L 115.955078125 222.05820878780926 L 120.056640625 231.69236141364206 L 123.572265625 239.69665046895707 L 126.794921875 246.7749031950343 L 129.724609375 252.95655535877373 L 132.5078125 258.5759701858874 L 135.14453125 263.64810128085827 L 137.78125 268.4540544737067 L 140.271484375 272.7306166291157 L 142.76171875 276.73612845206907 L 145.10546875 280.24512742181145 L 147.44921875 283.48937941959997 L 149.646484375 286.28094967633035 L 151.84375 288.82243011955154 L 154.041015625 291.10649657993315 L 156.23828125 293.1265667170278 L 158.435546875 294.87681898859904 L 160.6328125 296.3522094274417 L 162.68359375 297.47749138531657 L 164.734375 298.35680176948847 L 166.78515625 298.98793307948057 L 168.8359375 299.36930086605514 L 170.92857142857144 299.5 L 172.9375 299.3795456205172 L 174.98828125 299.00839686904476 L 177.0390625 298.3874332200029 L 179.08984375 297.51821359681173 L 181.140625 296.4029201671875 L 183.337890625 294.9380897927682 L 185.53515625 293.19822101225907 L 187.732421875 291.18832786918534 L 189.9296875 288.91420257719767 L 192.126953125 286.382398827772 L 194.32421875 283.6002129034438 L 196.66796875 280.3656181588175 L 199.01171875 276.8658813774354 L 201.35546875 273.11247748967537 L 203.845703125 268.86032135129847 L 206.3359375 264.35144010221126 L 208.97265625 259.3160706996342 L 211.755859375 253.7321253615996 L 214.685546875 247.5839330600334 L 217.76171875 240.86383122384345 L 221.130859375 233.23712461660813 L 224.939453125 224.34323417971692 L 229.48046875 213.46456791087172 L 236.951171875 195.2572604002673 L 243.54296875 179.28937096915894 L 247.791015625 169.25066391322366 L 251.453125 160.85405440416966 L 254.67578125 153.71866964011227 L 257.751953125 147.17168965243434 L 260.53515625 141.5018822866404 L 263.171875 136.37741031959172 L 265.80859375 131.51486096852364 L 268.298828125 127.18115106934727 L 270.7890625 123.11511675379643 L 273.1328125 119.54627308920954 L 275.4765625 116.23958155406905 L 277.8203125 113.20588412236253 L 280.017578125 110.61858526290223 L 282.21484375 108.28742944542228 L 284.412109375 106.2191347149062 L 286.609375 104.4196615897095 L 288.806640625 102.89419588422993 L 290.857421875 101.72153341492367 L 292.908203125 100.7943428694249 L 294.958984375 100.1149519509068 L 297.009765625 99.68506626390183 L 299.060546875 99.50576503239762 L 301.111328125 99.57749839045505 L 303.162109375 99.9000862521512 L 305.212890625 100.47271876368308 L 307.263671875 101.29395833649829 L 309.314453125 102.36174325634738 L 311.51171875 103.77633039683161 L 313.708984375 105.46677894202224 L 315.90625 107.42821727017525 L 318.103515625 109.65499280722304 L 320.30078125 112.14068831665395 L 322.498046875 114.87814039303481 L 324.841796875 118.06667909063333 L 327.185546875 121.52222120769852 L 329.529296875 125.23343671923504 L 332.01953125 129.44312060567512 L 334.509765625 133.91210779071787 L 337.146484375 138.90821049297654 L 339.9296875 144.45420270633952 L 342.859375 150.56651129793747 L 345.935546875 157.25362175897865 L 349.3046875 164.84991938954153 L 352.966796875 173.37122840237953 L 357.361328125 183.86665421068645 L 363.953125 199.90906040262348 L 371.86328125 219.10932236779936 L 376.2578125 229.5055514789431 L 379.919921875 237.91001950169348 L 383.142578125 245.05388380258643 L 386.21875 251.61027366890235 L 389.001953125 257.2896572950699 L 391.638671875 262.42409126275766 L 394.275390625 267.2974262692781 L 396.765625 271.642038616939 L 399.255859375 275.7196298134579 L 401.599609375 279.2999100841728 L 403.943359375 282.618542559763 L 406.287109375 285.66464611430814 L 408.484375 288.2639620402854 L 410.681640625 290.6074734055176 L 412.87890625 292.6884265581668 L 415.076171875 294.5008245001843 L 417.2734375 296.03944416976896 L 419.32421875 297.22455698125464 L 421.375 298.1643332084879 L 423.42578125 298.8564135520595 L 425.4765625 299.2990605507544 L 427.52734375 299.49116294343156 L 429.578125 299.43223845883495 L 431.62890625 299.1224350263308 L 433.6796875 298.56253040453225 L 435.73046875 297.75393022874414 L 437.78125 296.6986644821279 L 439.978515625 295.2973216300901 L 442.17578125 293.6199051191386 L 444.373046875 291.67124901462955 L 446.5703125 289.4569690541596 L 448.767578125 286.98344646384385 L 450.96484375 284.25780956856966 L 453.30859375 281.0814410806734 L 455.65234375 277.6375835171712 L 457.99609375 273.93752859176635 L 460.486328125 269.7390878163576 L 462.9765625 265.28066932970785 L 465.61328125 260.2949784967774 L 468.396484375 254.75906109621417 L 471.326171875 248.656291610655 L 474.40234375 241.9779681209109 L 477.771484375 234.38979213592768 L 481.43359375 225.87546789748313 L 485.828125 215.38581433338615 L 492.2734375 199.7045306291164 L 500.4765625 179.79040797385179 L 504.87109375 169.39691105334842 L 508.533203125 160.99557984677227 L 511.755859375 153.8551017603116 L 514.83203125 147.3024707062846 L 517.615234375 141.62691313305504 L 520.251953125 136.4964599419929 L 522.888671875 131.627435379122 L 525.37890625 127.28718060707843 L 527.869140625 123.21420896885229 L 530.212890625 119.6385005365239 L 532.556640625 116.32464183846128 L 534.900390625 113.28349834833193 L 537.09765625 110.68898721454457 L 539.294921875 108.35041623476468 L 541.4921875 106.27452482337293 L 543.689453125 104.46729539123095 L 545.88671875 102.93393610526192 L 547.9375 101.7538025056428 L 549.98828125 100.81905981858142 L 552.0390625 100.13205470683158 L 554.08984375 99.69451189028644 L 556.140625 99.50752981608554 L 558.19140625 99.57157790097341 L 560.2421875 99.88649535283326 L 562.29296875 100.45149157435429 L 564.34375 101.26514814781842 L 566.39453125 102.32542239602509 L 568.591796875 103.73206406745533 L 570.7890625 105.41469471258159 L 572.986328125 107.368465239687 L 575.18359375 109.58774517216835 L 577.380859375 112.06613887473344 L 579.578125 114.7965039846726 L 581.921875 117.9777430523406 L 584.265625 121.42627714279052 L 586.609375 125.13079920893136 L 589.099609375 129.3337405259831 L 591.58984375 133.79638999289136 L 594.2265625 138.78624948797182 L 597.009765625 144.32620115952923 L 599.5 149.50000000000006" stroke-linecap="round" stroke-linejoin="round" stroke-miterlimit="10" stroke-width="2.5" stroke-opacity="0.7" stroke-dasharray=""/></g></g><g id="labels-ac99ae9a"/></g></svg>