<svg version="1.1" xmlns="http://www.w3.org/2000/svg" xmlns:xlink="http://www.w3.org/1999/xlink" width="599" height="399"><defs/><g transform="scale(1,1)"><g id="background-a7c169ab"><rect fill="white" stroke="none" x="0" y="0" width="599.995849609375" height="399.99151611328125" class="dcg-svg-background"/></g><g id="background-images-a7c169ab"/><g id="graphpaper-a7c169ab"><g id="grid-a7c169ab"><g><path fill="none" stroke="rgb(0,0,0)" class="dcg-svg-minor-gridline" paint-order="fill stroke markers" d=" M -0.5 0 L -0.5 399.99151611328125" stroke-opacity="0.12" stroke-miterlimit="10" stroke-dasharray=""/><path fill="none" stroke="rgb(0,0,0)" class="dcg-svg-minor-gridline" paint-order="fill stroke markers" d=" M 29.5 0 L 29.5 399.99151611328125" stroke-opacity="0.12" stroke-miterlimit="10" stroke-dasharray=""/><path fill="none" stroke="rgb(0,0,0)" class="dcg-svg-minor-gridline" paint-order="fill stroke markers" d=" M 59.5 0 L 59.5 399.99151611328125" stroke-opacity="0.12" stroke-miterlimit="10" stroke-dasharray=""/><path fill="none" stroke="rgb(0,0,0)" class="dcg-svg-minor-gridline" paint-order="fill stroke markers" d=" M 89.5 0 L 89.5 399.99151611328125" stroke-opacity="0.12" stroke-miterlimit="10" stroke-dasharray=""/><path fill="none" stroke="rgb(0,0,0)" class="dcg-svg-minor-gridline" paint-order="fill stroke markers" d=" M 119.5 0 L 119.5 399.99151611328125" stroke-opacity="0.12" stroke-miterlimit="10" stroke-dasharray=""/><path fill="none" stroke="rgb(0,0,0)" class="dcg-svg-minor-gridline" paint-order="fill stroke markers" d=" M 149.5 0 L 149.5 399.99151611328125" stroke-opacity="0.12" stroke-miterlimit="10" stroke-dasharray=""/><path fill="none" stroke="rgb(0,0,0)" class="dcg-svg-minor-gridline" paint-order="fill stroke markers" d=" M 179.5 0 L 179.5 399.99151611328125" stroke-opacity="0.12" stroke-miterlimit="10" stroke-dasharray=""/><path fill="none" stroke="rgb(0,0,0)" class="dcg-svg-minor-gridline" paint-order="fill stroke markers" d=" M 209.5 0 L 209.5 399.99151611328125" stroke-opacity="0.12" stroke-miterlimit="10" stroke-dasharray=""/><path fill="none" stroke="rgb(0,0,0)" class="dcg-svg-minor-gridline" paint-order="fill stroke markers" d=" M 239.5 0 L 239.5 399.99151611328125" stroke-opacity="0.12" stroke-miterlimit="10" stroke-dasharray=""/><path fill="none" stroke="rgb(0,0,0)" class="dcg-svg-minor-gridline" paint-order="fill stroke markers" d=" M 269.5 0 L 269.5 399.99151611328125" stroke-opacity="0.12" stroke-miterlimit="10" stroke-dasharray=""/><path fill="none" stroke="rgb(0,0,0)" class="dcg-svg-minor-gridline" paint-order="fill stroke markers" d=" M 329.5 0 L 329.5 399.99151611328125" stroke-opacity="0.12" stroke-miterlimit="10" stroke-dasharray=""/><path fill="none" stroke="rgb(0,0,0)" class="dcg-svg-minor-gridline" paint-order="fill stroke markers" d=" M 359.5 0 L 359.5 399.99151611328125" stroke-opacity="0.12" stroke-miterlimit="10" stroke-dasharray=""/><path fill="none" stroke="rgb(0,0,0)" class="dcg-svg-minor-gridline" paint-order="fill stroke markers" d=" M 389.5 0 L 389.5 399.99151611328125" stroke-opacity="0.12" stroke-miterlimit="10" stroke-dasharray=""/><path fill="none" stroke="rgb(0,0,0)" class="dcg-svg-minor-gridline" paint-order="fill stroke markers" d=" M 419.5 0 L 419.5 399.99151611328125" stroke-opacity="0.12" stroke-miterlimit="10" stroke-dasharray=""/><path fill="none" stroke="rgb(0,0,0)" class="dcg-svg-minor-gridline" paint-order="fill stroke markers" d=" M 449.5 0 L 449.5 399.99151611328125" stroke-opacity="0.12" stroke-miterlimit="10" stroke-dasharray=""/><path fill="none" stroke="rgb(0,0,0)" class="dcg-svg-minor-gridline" paint-order="fill stroke markers" d=" M 479.5 0 L 479.5 399.99151611328125" stroke-opacity="0.12" stroke-miterlimit="10" stroke-dasharray=""/><path fill="none" stroke="rgb(0,0,0)" class="dcg-svg-minor-gridline" paint-order="fill stroke markers" d=" M 509.5 0 L 509.5 399.99151611328125" stroke-opacity="0.12" stroke-miterlimit="10" stroke-dasharray=""/><path fill="none" stroke="rgb(0,0,0)" class="dcg-svg-minor-gridline" paint-order="fill stroke markers" d=" M 539.5 0 L 539.5 399.99151611328125" stroke-opacity="0.12" stroke-miterlimit="10" stroke-dasharray=""/><path fill="none" stroke="rgb(0,0,0)" class="dcg-svg-minor-gridline" paint-order="fill stroke markers" d=" M 569.5 0 L 569.5 399.99151611328125" stroke-opacity="0.12" stroke-miterlimit="10" stroke-dasharray=""/><path fill="none" stroke="rgb(0,0,0)" class="dcg-svg-minor-gridline" paint-order="fill stroke markers" d=" M 599.5 0 L 599.5 399.99151611328125" stroke-opacity="0.12" stroke-miterlimit="10" stroke-dasharray=""/><path fill="none" stroke="rgb(0,0,0)" class="dcg-svg-minor-gridline" paint-order="fill stroke markers" d=" M 0 370.5 L 599.995849609375 370.5" stroke-opacity="0.12" stroke-miterlimit="10" stroke-dasharray=""/><path fill="none" stroke="rgb(0,0,0)" class="dcg-svg-minor-gridline" paint-order="fill stroke markers" d=" M 0 342.5 L 599.995849609375 342.5" stroke-opacity="0.12" stroke-miterlimit="10" stroke-dasharray=""/><path fill="none" stroke="rgb(0,0,0)" class="dcg-svg-minor-gridline" paint-order="fill stroke markers" d=" M 0 313.5 L 599.995849609375 313.5" stroke-opacity="0.12" stroke-miterlimit="10" stroke-dasharray=""/><path fill="none" stroke="rgb(0,0,0)" class="dcg-svg-minor-gridline" paint-order="fill stroke markers" d=" M 0 285.5 L 599.995849609375 285.5" stroke-opacity="0.12" stroke-miterlimit="10" stroke-dasharray=""/><path fill="none" stroke="rgb(0,0,0)" class="dcg-svg-minor-gridline" paint-order="fill stroke markers" d=" M 0 256.5 L 599.995849609375 256.5" stroke-opacity="0.12" stroke-miterlimit="10" stroke-dasharray=""/><path fill="none" stroke="rgb(0,0,0)" class="dcg-svg-minor-gridline" paint-order="fill stroke markers" d=" M 0 228.5 L 599.995849609375 228.5" stroke-opacity="0.12" stroke-miterlimit="10" stroke-dasharray=""/><path fill="none" stroke="rgb(0,0,0)" class="dcg-svg-minor-gridline" paint-order="fill stroke markers" d=" M 0 170.5 L 599.995849609375 170.5" stroke-opacity="0.12" stroke-miterlimit="10" stroke-dasharray=""/><path fill="none" stroke="rgb(0,0,0)" class="dcg-svg-minor-gridline" paint-order="fill stroke markers" d=" M 0 142.5 L 599.995849609375 142.5" stroke-opacity="0.12" stroke-miterlimit="10" stroke-dasharray=""/><path fill="none" stroke="rgb(0,0,0)" class="dcg-svg-minor-gridline" paint-order="fill stroke markers" d=" M 0 113.5 L 599.995849609375 113.5" stroke-opacity="0.12" stroke-miterlimit="10" stroke-dasharray=""/><path fill="none" stroke="rgb(0,0,0)" class="dcg-svg-minor-gridline" paint-order="fill stroke markers" d=" M 0 85.5 L 599.995849609375 85.5" stroke-opacity="0.12" stroke-miterlimit="10" stroke-dasharray=""/><path fill="none" stroke="rgb(0,0,0)" class="dcg-svg-minor-gridline" paint-order="fill stroke markers" d=" M 0 56.5 L 599.995849609375 56.5" stroke-opacity="0.12" stroke-miterlimit="10" stroke-dasharray=""/><path fill="none" stroke="rgb(0,0,0)" class="dcg-svg-minor-gridline" paint-order="fill stroke markers" d=" M 0 28.5 L 599.995849609375 28.5" stroke-opacity="0.12" stroke-miterlimit="10" stroke-dasharray=""/><path fill="none" stroke="rgb(0,0,0)" class="dcg-svg-major-gridline" paint-order="fill stroke markers" d=" M -0.5 0 L -0.5 399.99151611328125" stroke-opacity="0.31818181818181823" stroke-miterlimit="10" stroke-dasharray=""/><path fill="none" stroke="rgb(0,0,0)" class="dcg-svg-major-gridline" paint-order="fill stroke markers" d=" M 149.5 0 L 149.5 399.99151611328125" stroke-opacity="0.31818181818181823" stroke-miterlimit="10" stroke-dasharray=""/><path fill="none" stroke="rgb(0,0,0)" class="dcg-svg-major-gridline" paint-order="fill stroke markers" d=" M 449.5 0 L 449.5 399.99151611328125" stroke-opacity="0.31818181818181823" stroke-miterlimit="10" stroke-dasharray=""/><path fill="none" stroke="rgb(0,0,0)" class="dcg-svg-major-gridline" paint-order="fill stroke markers" d=" M 599.5 0 L 599.5 399.99151611328125" stroke-opacity="0.31818181818181823" stroke-miterlimit="10" stroke-dasharray=""/><path fill="none" stroke="rgb(0,0,0)" class="dcg-svg-major-gridline" paint-order="fill stroke markers" d=" M 0 342.5 L 599.995849609375 342.5" stroke-opacity="0.31818181818181823" stroke-miterlimit="10" stroke-dasharray=""/><path fill="none" stroke="rgb(0,0,0)" class="dcg-svg-major-gridline" paint-order="fill stroke markers" d=" M 0 56.5 L 599.995849609375 56.5" stroke-opacity="0.31818181818181823" stroke-miterlimit="10" stroke-dasharray=""/></g></g><g id="axis-a7c169ab"><path fill="none" stroke="rgb(0,0,0)" class="dcg-svg-axis-line" paint-order="fill stroke markers" d=" M 299.75 0 L 299.75 399.99151611328125" stroke-opacity="0.9" stroke-miterlimit="10" stroke-width="1.5" stroke-dasharray=""/><path fill="none" stroke="rgb(0,0,0)" class="dcg-svg-axis-line" paint-order="fill stroke markers" d=" M 0 199.75 L 599.995849609375 199.75" stroke-opacity="0.9" stroke-miterlimit="10" stroke-width="1.5" stroke-dasharray=""/><g><g class="dcg-svg-axis-value"><text fill="none" stroke="#ffffff" font-family="Arial" font-size="14px" font-style="normal" font-weight="normal" text-decoration="normal" x="291.1048583984375" y="215.80375805664062" text-anchor="middle" stroke-miterlimit="2" stroke-width="3" stroke-dasharray="">0</text><text fill="#000000" stroke="none" font-family="Arial" font-size="14px" font-style="normal" font-weight="normal" text-decoration="normal" x="291.1048583984375" y="215.80375805664062" text-anchor="middle">0</text></g><g class="dcg-svg-axis-value dcg-svg-offcenter-axis-value"><text fill="none" stroke="#ffffff" font-family="Arial" font-size="14px" font-style="normal" font-weight="normal" text-decoration="normal" x="13.1171875" y="215.80375805664062" text-anchor="middle" stroke-miterlimit="2" stroke-width="3" stroke-dasharray="">-10</text><text fill="#000000" stroke="none" font-family="Arial" font-size="14px" font-style="normal" font-weight="normal" text-decoration="normal" x="13.1171875" y="215.80375805664062" text-anchor="middle">-10</text></g><g class="dcg-svg-axis-value"><text fill="none" stroke="#ffffff" font-family="Arial" font-size="14px" font-style="normal" font-weight="normal" text-decoration="normal" x="147.66790771484375" y="215.80375805664062" text-anchor="middle" stroke-miterlimit="2" stroke-width="3" stroke-dasharray="">-5</text><text fill="#000000" stroke="none" font-family="Arial" font-size="14px" font-style="normal" font-weight="normal" text-decoration="normal" x="147.66790771484375" y="215.80375805664062" text-anchor="middle">-5</text></g><g class="dcg-svg-axis-value"><text fill="none" stroke="#ffffff" font-family="Arial" font-size="14px" font-style="normal" font-weight="normal" text-decoration="normal" x="449.99688720703125" y="215.80375805664062" text-anchor="middle" stroke-miterlimit="2" stroke-width="3" stroke-dasharray="">5</text><text fill="#000000" stroke="none" font-family="Arial" font-size="14px" font-style="normal" font-weight="normal" text-decoration="normal" x="449.99688720703125" y="215.80375805664062" text-anchor="middle">5</text></g><g class="dcg-svg-axis-value dcg-svg-offcenter-axis-value"><text fill="none" stroke="#ffffff" font-family="Arial" font-size="14px" font-style="normal" font-weight="normal" text-decoration="normal" x="589.209716796875" y="215.80375805664062" text-anchor="middle" stroke-miterlimit="2" stroke-width="3" stroke-dasharray="">10</text><text fill="#000000" stroke="none" font-family="Arial" font-size="14px" font-style="normal" font-weight="normal" text-decoration="normal" x="589.209716796875" y="215.80375805664062" text-anchor="middle">10</text></g><g class="dcg-svg-axis-value"><text fill="none" stroke="#ffffff" font-family="Arial" font-size="14px" font-style="normal" font-weight="normal" text-decoration="normal" x="288.7738037109375" y="346.65787095424105" text-anchor="middle" stroke-miterlimit="2" stroke-width="3" stroke-dasharray="">-5</text><text fill="#000000" stroke="none" font-family="Arial" font-size="14px" font-style="normal" font-weight="normal" text-decoration="normal" x="288.7738037109375" y="346.65787095424105" text-anchor="middle">-5</text></g><g class="dcg-svg-axis-value"><text fill="none" stroke="#ffffff" font-family="Arial" font-size="14px" font-style="normal" font-weight="normal" text-decoration="normal" x="291.1048583984375" y="60.949645159040166" text-anchor="middle" stroke-miterlimit="2" stroke-width="3" stroke-dasharray="">5</text><text fill="#000000" stroke="none" font-family="Arial" font-size="14px" font-style="normal" font-weight="normal" text-decoration="normal" x="291.1048583984375" y="60.949645159040166" text-anchor="middle">5</text></g></g></g></g><g id="expressions-a7c169ab"><path fill="#2d70b3" stroke="none" paint-order="stroke fill markers" d="" fill-opacity="0.4"/><path fill="#2d70b3" stroke="none" paint-order="stroke fill markers" d="" fill-opacity="0.4"/><g><path fill="none" stroke="#2d70b3" class="dcg-svg-curve" paint-order="fill stroke markers" d=" M 209.49854736328123 113.78329031808033 L 209.49854736328123 113.78329031808033 L 209.7036240696907 108.00033456654904 L 210.28955751657486 102.44431238845527 L 211.1684576869011 97.34858708220258 L 212.3403245806694 92.41456388920108 L 213.8051581978798 87.5864761450294 L 215.56295853853226 82.85246667144526 L 217.6137256026268 78.21436723518309 L 219.95745939016342 73.67966474062786 L 222.74064326286316 69.03005357889322 L 225.81679385900497 64.56350434183429 L 229.18591117858887 60.28000275108843 L 232.99447858333588 56.03197052389362 L 237.242496073246 51.8856439367575 L 241.63699692487717 48.13207745526353 L 246.03149777650833 44.8353866141976 L 250.57248198986053 41.84210827704834 L 255.25994956493378 39.139988013268805 L 259.947417140007 36.790735603976884 L 264.7813680768013 34.70440065299471 L 269.6153190135956 32.93342916898166 L 274.44926995038986 31.457466587604074 L 279.28322088718414 30.260871735513376 L 284.26365518569946 29.307690011713078 L 289.2440894842148 28.628937877452643 L 294.2245237827301 28.218084286270255 L 299.2049580812454 28.071276701717977 L 304.18539237976074 28.187156501775178 L 309.16582667827606 28.56679530890932 L 314.1462609767914 29.21374514832513 L 318.98021191358566 30.10315347864099 L 323.81416285037994 31.258538996901052 L 328.6481137871742 32.69126970146942 L 333.4820647239685 34.41636406630727 L 338.16953229904175 36.38684686708518 L 342.856999874115 38.673690851687525 L 347.3979840874672 41.218946754841795 L 351.9389683008194 44.12476478231849 L 356.33346915245056 47.32463768690536 L 360.5814866423607 50.83558113999197 L 364.6830207705498 54.68437918785651 L 368.6380715370178 58.912316849476554 L 372.3001555800438 63.39123911041315 L 375.52278953790665 67.91013816688547 L 378.3059734106064 72.38893758650443 L 380.79619055986404 77.01549755023979 L 382.9934409856796 81.79187334540717 L 384.89772468805313 86.73266911321878 L 386.3625583052635 91.3586614345005 L 387.53442519903183 95.97981416527983 L 388.41332536935806 100.5204173588017 L 388.9992588162422 104.77855009314368 L 389.2922255396843 108.00033456654904 L 389.49730224609374 113.78329031808033" stroke-linecap="round" stroke-linejoin="round" stroke-miterlimit="10" stroke-width="2.5" stroke-opacity="0.7" stroke-dasharray=""/></g><g><path fill="none" stroke="#2d70b3" class="dcg-svg-curve" paint-order="fill stroke markers" d=" M 209.49854736328123 113.78329031808033 L 209.49854736328123 113.78329031808033 L 209.7036240696907 119.56624606961162 L 210.28955751657486 125.12226824770539 L 211.1684576869011 130.21799355395808 L 212.3403245806694 135.1520167469596 L 213.8051581978798 139.98010449113127 L 215.56295853853226 144.7141139647154 L 217.6137256026268 149.35221340097755 L 219.95745939016342 153.88691589553284 L 222.74064326286316 158.53652705726742 L 225.81679385900497 163.00307629432638 L 229.18591117858887 167.28657788507226 L 232.99447858333588 171.53461011226707 L 237.242496073246 175.6809366994031 L 241.63699692487717 179.4345031808972 L 246.03149777650833 182.73119402196312 L 250.57248198986053 185.72447235911227 L 255.25994956493378 188.42659262289183 L 259.947417140007 190.77584503218378 L 264.7813680768013 192.86217998316602 L 269.6153190135956 194.633151467179 L 274.44926995038986 196.10911404855662 L 279.28322088718414 197.30570890064735 L 284.26365518569946 198.25889062444764 L 289.2440894842148 198.93764275870808 L 294.2245237827301 199.34849634989038 L 299.2049580812454 199.49530393444272 L 304.18539237976074 199.37942413438546 L 309.16582667827606 198.99978532725137 L 314.1462609767914 198.3528354878355 L 318.98021191358566 197.46342715751967 L 323.81416285037994 196.30804163925967 L 328.6481137871742 194.87531093469127 L 333.4820647239685 193.15021656985343 L 338.16953229904175 191.17973376907548 L 342.856999874115 188.8928897844731 L 347.3979840874672 186.34763388131887 L 351.9389683008194 183.44181585384214 L 356.33346915245056 180.24194294925533 L 360.5814866423607 176.73099949616872 L 364.6830207705498 172.88220144830416 L 368.6380715370178 168.65426378668406 L 372.3001555800438 164.17534152574748 L 375.52278953790665 159.65644246927522 L 378.3059734106064 155.17764304965624 L 380.79619055986404 150.5510830859209 L 382.9934409856796 145.77470729075353 L 384.89772468805313 140.8339115229419 L 386.3625583052635 136.20791920166016 L 387.53442519903183 131.58676647088083 L 388.41332536935806 127.04616327735897 L 388.9992588162422 122.78803054301704 L 389.2922255396843 119.56624606961162 L 389.49730224609374 113.78329031808033" stroke-linecap="round" stroke-linejoin="round" stroke-miterlimit="10" stroke-width="2.5" stroke-opacity="0.7" stroke-dasharray=""/></g><path fill="#388c46" stroke="none" paint-order="stroke fill markers" d="" fill-opacity="0.4"/><g><path fill="none" stroke="#388c46" class="dcg-svg-curve" paint-order="fill stroke markers" d=" M 186.5724269754512 -3 L 186.5724269754512 -3 L 191.5396872162819 14.49742305641945 L 197.39902168512344 34.03370825607681 L 203.11187279224396 52.03222623682808 L 208.67824053764343 68.57267523327437 L 214.09812492132187 83.73270993553984 L 219.37152594327927 97.58794148927177 L 224.49844360351562 110.21193749564031 L 229.47887790203094 121.67622201133884 L 234.45931220054626 132.3530607219186 L 239.29326313734055 141.96282862478358 L 243.9807307124138 150.572962687673 L 248.521714925766 158.24885633384937 L 253.0626991391182 165.27013456590893 L 257.45719999074936 171.44163888630283 L 261.7052174806595 176.8246756293395 L 265.9532349705696 181.63483873733742 L 270.20125246047974 185.87212821029658 L 274.1563032269478 189.30221761485984 L 277.9648706316948 192.13593262289942 L 281.4804713129997 194.34296065800714 L 284.8495886325836 196.0898505950546 L 288.0722225904465 197.4236039570117 L 291.1483731865883 198.38917872237133 L 294.07804042100906 199.02948932514948 L 297.00770765542984 199.39732733100078 L 299.9373748898506 199.4926927399252 L 302.8670421242714 199.3155855519227 L 305.79670935869217 198.86600576699337 L 308.72637659311295 198.14395338513714 L 311.6560438275337 197.14942840635402 L 314.73219442367554 195.8119285461892 L 317.9548283815384 194.08853937062668 L 321.3239457011223 191.9343029011735 L 324.8395463824272 189.30221761485984 L 328.6481137871742 186.00802391801386 L 332.6031645536423 182.0997451058439 L 336.8511820435524 177.3488447876776 L 341.0991995334625 172.0250708344725 L 345.34721702337265 166.1284232462286 L 349.7417178750038 159.42559736182736 L 354.282702088356 151.85528684696013 L 358.8236863017082 143.63036091797608 L 363.51115387678146 134.4534838534787 L 368.34510481357574 124.25926223020565 L 373.17905575037 113.32323396179913 L 378.15949004888535 101.27994517763096 L 383.2864077091217 88.05991536548487 L 388.5598087310791 73.59162046866754 L 393.97969311475754 57.801492886008646 L 399.546060860157 40.61392147186098 L 405.2589119672775 21.95125153610047 L 411.1182464361191 1.7337848441258643 L 412.4199953391642 -3" stroke-linecap="round" stroke-linejoin="round" stroke-miterlimit="10" stroke-width="2.5" stroke-opacity="0.7" stroke-dasharray=""/></g></g><g id="labels-a7c169ab"/></g></svg>