<svg version="1.1" xmlns="http://www.w3.org/2000/svg" xmlns:xlink="http://www.w3.org/1999/xlink" width="600" height="400"><defs/><g transform="scale(1,1)"><g id="background-f5bcdab1"><rect fill="white" stroke="none" x="0" y="0" width="600" height="400" class="dcg-svg-background"/></g><g id="background-images-f5bcdab1"/><g id="graphpaper-f5bcdab1"><g id="grid-f5bcdab1"><g><path fill="none" stroke="rgb(0,0,0)" class="dcg-svg-minor-gridline" paint-order="fill stroke markers" d=" M 13.5 0 L 13.5 400" stroke-opacity="0.12" stroke-miterlimit="10" stroke-dasharray=""/><path fill="none" stroke="rgb(0,0,0)" class="dcg-svg-minor-gridline" paint-order="fill stroke markers" d=" M 49.5 0 L 49.5 400" stroke-opacity="0.12" stroke-miterlimit="10" stroke-dasharray=""/><path fill="none" stroke="rgb(0,0,0)" class="dcg-svg-minor-gridline" paint-order="fill stroke markers" d=" M 85.5 0 L 85.5 400" stroke-opacity="0.12" stroke-miterlimit="10" stroke-dasharray=""/><path fill="none" stroke="rgb(0,0,0)" class="dcg-svg-minor-gridline" paint-order="fill stroke markers" d=" M 120.5 0 L 120.5 400" stroke-opacity="0.12" stroke-miterlimit="10" stroke-dasharray=""/><path fill="none" stroke="rgb(0,0,0)" class="dcg-svg-minor-gridline" paint-order="fill stroke markers" d=" M 156.5 0 L 156.5 400" stroke-opacity="0.12" stroke-miterlimit="10" stroke-dasharray=""/><path fill="none" stroke="rgb(0,0,0)" class="dcg-svg-minor-gridline" paint-order="fill stroke markers" d=" M 192.5 0 L 192.5 400" stroke-opacity="0.12" stroke-miterlimit="10" stroke-dasharray=""/><path fill="none" stroke="rgb(0,0,0)" class="dcg-svg-minor-gridline" paint-order="fill stroke markers" d=" M 228.5 0 L 228.5 400" stroke-opacity="0.12" stroke-miterlimit="10" stroke-dasharray=""/><path fill="none" stroke="rgb(0,0,0)" class="dcg-svg-minor-gridline" paint-order="fill stroke markers" d=" M 263.5 0 L 263.5 400" stroke-opacity="0.12" stroke-miterlimit="10" stroke-dasharray=""/><path fill="none" stroke="rgb(0,0,0)" class="dcg-svg-minor-gridline" paint-order="fill stroke markers" d=" M 335.5 0 L 335.5 400" stroke-opacity="0.12" stroke-miterlimit="10" stroke-dasharray=""/><path fill="none" stroke="rgb(0,0,0)" class="dcg-svg-minor-gridline" paint-order="fill stroke markers" d=" M 370.5 0 L 370.5 400" stroke-opacity="0.12" stroke-miterlimit="10" stroke-dasharray=""/><path fill="none" stroke="rgb(0,0,0)" class="dcg-svg-minor-gridline" paint-order="fill stroke markers" d=" M 406.5 0 L 406.5 400" stroke-opacity="0.12" stroke-miterlimit="10" stroke-dasharray=""/><path fill="none" stroke="rgb(0,0,0)" class="dcg-svg-minor-gridline" paint-order="fill stroke markers" d=" M 442.5 0 L 442.5 400" stroke-opacity="0.12" stroke-miterlimit="10" stroke-dasharray=""/><path fill="none" stroke="rgb(0,0,0)" class="dcg-svg-minor-gridline" paint-order="fill stroke markers" d=" M 478.5 0 L 478.5 400" stroke-opacity="0.12" stroke-miterlimit="10" stroke-dasharray=""/><path fill="none" stroke="rgb(0,0,0)" class="dcg-svg-minor-gridline" paint-order="fill stroke markers" d=" M 513.5 0 L 513.5 400" stroke-opacity="0.12" stroke-miterlimit="10" stroke-dasharray=""/><path fill="none" stroke="rgb(0,0,0)" class="dcg-svg-minor-gridline" paint-order="fill stroke markers" d=" M 549.5 0 L 549.5 400" stroke-opacity="0.12" stroke-miterlimit="10" stroke-dasharray=""/><path fill="none" stroke="rgb(0,0,0)" class="dcg-svg-minor-gridline" paint-order="fill stroke markers" d=" M 585.5 0 L 585.5 400" stroke-opacity="0.12" stroke-miterlimit="10" stroke-dasharray=""/><path fill="none" stroke="rgb(0,0,0)" class="dcg-svg-minor-gridline" paint-order="fill stroke markers" d=" M 0 379.5 L 600 379.5" stroke-opacity="0.12" stroke-miterlimit="10" stroke-dasharray=""/><path fill="none" stroke="rgb(0,0,0)" class="dcg-svg-minor-gridline" paint-order="fill stroke markers" d=" M 0 359.5 L 600 359.5" stroke-opacity="0.12" stroke-miterlimit="10" stroke-dasharray=""/><path fill="none" stroke="rgb(0,0,0)" class="dcg-svg-minor-gridline" paint-order="fill stroke markers" d=" M 0 339.5 L 600 339.5" stroke-opacity="0.12" stroke-miterlimit="10" stroke-dasharray=""/><path fill="none" stroke="rgb(0,0,0)" class="dcg-svg-minor-gridline" paint-order="fill stroke markers" d=" M 0 319.5 L 600 319.5" stroke-opacity="0.12" stroke-miterlimit="10" stroke-dasharray=""/><path fill="none" stroke="rgb(0,0,0)" class="dcg-svg-minor-gridline" paint-order="fill stroke markers" d=" M 0 299.5 L 600 299.5" stroke-opacity="0.12" stroke-miterlimit="10" stroke-dasharray=""/><path fill="none" stroke="rgb(0,0,0)" class="dcg-svg-minor-gridline" paint-order="fill stroke markers" d=" M 0 279.5 L 600 279.5" stroke-opacity="0.12" stroke-miterlimit="10" stroke-dasharray=""/><path fill="none" stroke="rgb(0,0,0)" class="dcg-svg-minor-gridline" paint-order="fill stroke markers" d=" M 0 259.5 L 600 259.5" stroke-opacity="0.12" stroke-miterlimit="10" stroke-dasharray=""/><path fill="none" stroke="rgb(0,0,0)" class="dcg-svg-minor-gridline" paint-order="fill stroke markers" d=" M 0 239.5 L 600 239.5" stroke-opacity="0.12" stroke-miterlimit="10" stroke-dasharray=""/><path fill="none" stroke="rgb(0,0,0)" class="dcg-svg-minor-gridline" paint-order="fill stroke markers" d=" M 0 219.5 L 600 219.5" stroke-opacity="0.12" stroke-miterlimit="10" stroke-dasharray=""/><path fill="none" stroke="rgb(0,0,0)" class="dcg-svg-minor-gridline" paint-order="fill stroke markers" d=" M 0 179.5 L 600 179.5" stroke-opacity="0.12" stroke-miterlimit="10" stroke-dasharray=""/><path fill="none" stroke="rgb(0,0,0)" class="dcg-svg-minor-gridline" paint-order="fill stroke markers" d=" M 0 159.5 L 600 159.5" stroke-opacity="0.12" stroke-miterlimit="10" stroke-dasharray=""/><path fill="none" stroke="rgb(0,0,0)" class="dcg-svg-minor-gridline" paint-order="fill stroke markers" d=" M 0 139.5 L 600 139.5" stroke-opacity="0.12" stroke-miterlimit="10" stroke-dasharray=""/><path fill="none" stroke="rgb(0,0,0)" class="dcg-svg-minor-gridline" paint-order="fill stroke markers" d=" M 0 119.5 L 600 119.5" stroke-opacity="0.12" stroke-miterlimit="10" stroke-dasharray=""/><path fill="none" stroke="rgb(0,0,0)" class="dcg-svg-minor-gridline" paint-order="fill stroke markers" d=" M 0 99.5 L 600 99.5" stroke-opacity="0.12" stroke-miterlimit="10" stroke-dasharray=""/><path fill="none" stroke="rgb(0,0,0)" class="dcg-svg-minor-gridline" paint-order="fill stroke markers" d=" M 0 79.5 L 600 79.5" stroke-opacity="0.12" stroke-miterlimit="10" stroke-dasharray=""/><path fill="none" stroke="rgb(0,0,0)" class="dcg-svg-minor-gridline" paint-order="fill stroke markers" d=" M 0 59.5 L 600 59.5" stroke-opacity="0.12" stroke-miterlimit="10" stroke-dasharray=""/><path fill="none" stroke="rgb(0,0,0)" class="dcg-svg-minor-gridline" paint-order="fill stroke markers" d=" M 0 39.5 L 600 39.5" stroke-opacity="0.12" stroke-miterlimit="10" stroke-dasharray=""/><path fill="none" stroke="rgb(0,0,0)" class="dcg-svg-minor-gridline" paint-order="fill stroke markers" d=" M 0 19.5 L 600 19.5" stroke-opacity="0.12" stroke-miterlimit="10" stroke-dasharray=""/><path fill="none" stroke="rgb(0,0,0)" class="dcg-svg-minor-gridline" paint-order="fill stroke markers" d=" M 0 -0.5 L 600 -0.5" stroke-opacity="0.12" stroke-miterlimit="10" stroke-dasharray=""/><path fill="none" stroke="rgb(0,0,0)" class="dcg-svg-major-gridline" paint-order="fill stroke markers" d=" M 13.5 0 L 13.5 400" stroke-opacity="0.31818181818181823" stroke-miterlimit="10" stroke-dasharray=""/><path fill="none" stroke="rgb(0,0,0)" class="dcg-svg-major-gridline" paint-order="fill stroke markers" d=" M 156.5 0 L 156.5 400" stroke-opacity="0.31818181818181823" stroke-miterlimit="10" stroke-dasharray=""/><path fill="none" stroke="rgb(0,0,0)" class="dcg-svg-major-gridline" paint-order="fill stroke markers" d=" M 442.5 0 L 442.5 400" stroke-opacity="0.31818181818181823" stroke-miterlimit="10" stroke-dasharray=""/><path fill="none" stroke="rgb(0,0,0)" class="dcg-svg-major-gridline" paint-order="fill stroke markers" d=" M 585.5 0 L 585.5 400" stroke-opacity="0.31818181818181823" stroke-miterlimit="10" stroke-dasharray=""/><path fill="none" stroke="rgb(0,0,0)" class="dcg-svg-major-gridline" paint-order="fill stroke markers" d=" M 0 299.5 L 600 299.5" stroke-opacity="0.31818181818181823" stroke-miterlimit="10" stroke-dasharray=""/><path fill="none" stroke="rgb(0,0,0)" class="dcg-svg-major-gridline" paint-order="fill stroke markers" d=" M 0 99.5 L 600 99.5" stroke-opacity="0.31818181818181823" stroke-miterlimit="10" stroke-dasharray=""/><path fill="none" stroke="rgb(0,0,0)" class="dcg-svg-major-gridline" paint-order="fill stroke markers" d=" M 0 -0.5 L 600 -0.5" stroke-opacity="0.31818181818181823" stroke-miterlimit="10" stroke-dasharray=""/></g></g><g id="axis-f5bcdab1"><path fill="none" stroke="rgb(0,0,0)" class="dcg-svg-axis-line" paint-order="fill stroke markers" d=" M 299.75 0 L 299.75 400" stroke-opacity="0.9" stroke-miterlimit="10" stroke-width="1.5" stroke-dasharray=""/><path fill="none" stroke="rgb(0,0,0)" class="dcg-svg-axis-line" paint-order="fill stroke markers" d=" M 0 199.75 L 600 199.75" stroke-opacity="0.9" stroke-miterlimit="10" stroke-width="1.5" stroke-dasharray=""/><g><g class="dcg-svg-axis-value"><text fill="none" stroke="#ffffff" font-family="Arial" font-size="14px" font-style="normal" font-weight="normal" text-decoration="normal" x="291.10693359375" y="215.808" text-anchor="middle" stroke-miterlimit="2" stroke-width="3" stroke-dasharray="">0</text><text fill="#000000" stroke="none" font-family="Arial" font-size="14px" font-style="normal" font-weight="normal" text-decoration="normal" x="291.10693359375" y="215.808" text-anchor="middle">0</text></g><g class="dcg-svg-axis-value dcg-svg-offcenter-axis-value"><text fill="none" stroke="#ffffff" font-family="Arial" font-size="14px" font-style="normal" font-weight="normal" text-decoration="normal" x="17.01025390625" y="215.808" text-anchor="middle" stroke-miterlimit="2" stroke-width="3" stroke-dasharray="">-400</text><text fill="#000000" stroke="none" font-family="Arial" font-size="14px" font-style="normal" font-weight="normal" text-decoration="normal" x="17.01025390625" y="215.808" text-anchor="middle">-400</text></g><g class="dcg-svg-axis-value"><text fill="none" stroke="#ffffff" font-family="Arial" font-size="14px" font-style="normal" font-weight="normal" text-decoration="normal" x="154.81180245535714" y="215.808" text-anchor="middle" stroke-miterlimit="2" stroke-width="3" stroke-dasharray="">-200</text><text fill="#000000" stroke="none" font-family="Arial" font-size="14px" font-style="normal" font-weight="normal" text-decoration="normal" x="154.81180245535714" y="215.808" text-anchor="middle">-200</text></g><g class="dcg-svg-axis-value"><text fill="none" stroke="#ffffff" font-family="Arial" font-size="14px" font-style="normal" font-weight="normal" text-decoration="normal" x="442.8571428571429" y="215.808" text-anchor="middle" stroke-miterlimit="2" stroke-width="3" stroke-dasharray="">200</text><text fill="#000000" stroke="none" font-family="Arial" font-size="14px" font-style="normal" font-weight="normal" text-decoration="normal" x="442.8571428571429" y="215.808" text-anchor="middle">200</text></g><g class="dcg-svg-axis-value dcg-svg-offcenter-axis-value"><text fill="none" stroke="#ffffff" font-family="Arial" font-size="14px" font-style="normal" font-weight="normal" text-decoration="normal" x="585.32080078125" y="215.808" text-anchor="middle" stroke-miterlimit="2" stroke-width="3" stroke-dasharray="">400</text><text fill="#000000" stroke="none" font-family="Arial" font-size="14px" font-style="normal" font-weight="normal" text-decoration="normal" x="585.32080078125" y="215.808" text-anchor="middle">400</text></g><g class="dcg-svg-axis-value dcg-svg-offcenter-axis-value"><text fill="none" stroke="#ffffff" font-family="Arial" font-size="14px" font-style="normal" font-weight="normal" text-decoration="normal" x="288.77587890625" y="393.808" text-anchor="middle" stroke-miterlimit="2" stroke-width="3" stroke-dasharray="">-2</text><text fill="#000000" stroke="none" font-family="Arial" font-size="14px" font-style="normal" font-weight="normal" text-decoration="normal" x="288.77587890625" y="393.808" text-anchor="middle">-2</text></g><g class="dcg-svg-axis-value"><text fill="none" stroke="#ffffff" font-family="Arial" font-size="14px" font-style="normal" font-weight="normal" text-decoration="normal" x="288.77587890625" y="303.808" text-anchor="middle" stroke-miterlimit="2" stroke-width="3" stroke-dasharray="">-1</text><text fill="#000000" stroke="none" font-family="Arial" font-size="14px" font-style="normal" font-weight="normal" text-decoration="normal" x="288.77587890625" y="303.808" text-anchor="middle">-1</text></g><g class="dcg-svg-axis-value"><text fill="none" stroke="#ffffff" font-family="Arial" font-size="14px" font-style="normal" font-weight="normal" text-decoration="normal" x="291.10693359375" y="103.808" text-anchor="middle" stroke-miterlimit="2" stroke-width="3" stroke-dasharray="">1</text><text fill="#000000" stroke="none" font-family="Arial" font-size="14px" font-style="normal" font-weight="normal" text-decoration="normal" x="291.10693359375" y="103.808" text-anchor="middle">1</text></g><g class="dcg-svg-axis-value dcg-svg-offcenter-axis-value"><text fill="none" stroke="#ffffff" font-family="Arial" font-size="14px" font-style="normal" font-weight="normal" text-decoration="normal" x="291.10693359375" y="13.808" text-anchor="middle" stroke-miterlimit="2" stroke-width="3" stroke-dasharray="">2</text><text fill="#000000" stroke="none" font-family="Arial" font-size="14px" font-style="normal" font-weight="normal" text-decoration="normal" x="291.10693359375" y="13.808" text-anchor="middle">2</text></g></g></g></g><g id="expressions-f5bcdab1"><path fill="#2d70b3" stroke="none" paint-order="stroke fill markers" d="" fill-opacity="0.4"/><g><path fill="none" stroke="#2d70b3" class="dcg-svg-curve" paint-order="fill stroke markers" d=" M -0.5 286.1025403784439 L -0.5 286.1025403784439 L 1.697265625 283.2945756636077 L 4.041015625 280.0334561537704 L 6.384765625 276.5082836993348 L 8.728515625 272.7306166291157 L 11.21875 268.4540544737067 L 13.708984375 263.92227093345105 L 16.345703125 258.86438516685615 L 19.12890625 253.25870762956453 L 22.05859375 247.09000556516207 L 25.134765625 240.3510931655392 L 28.50390625 232.70711019436737 L 32.3125 223.79801799032637 L 37 212.55261922200512 L 45.642578125 191.48078714047796 L 51.501953125 177.34049647545177 L 55.603515625 167.69519226149845 L 59.119140625 159.67824378466264 L 62.341796875 152.5859551791013 L 65.271484375 146.38959988487446 L 68.0546875 140.75457346161306 L 70.69140625 135.6662415699854 L 73.328125 130.84278323757832 L 75.818359375 126.5485561853003 L 78.30859375 122.52434615608291 L 80.65234375 118.99686688570364 L 82.99609375 115.73334113679783 L 85.193359375 112.92303728825004 L 87.390625 110.36223539306337 L 89.587890625 108.05831530212424 L 91.78515625 106.01791657109595 L 93.982421875 104.24691932620459 L 96.1796875 102.75042731858866 L 98.23046875 101.60518246809374 L 100.28125 100.70570163936776 L 102.33203125 100.0542429705996 L 104.3828125 99.65244194267052 L 106.43359375 99.5013072732948 L 108.484375 99.60121838464323 L 110.53515625 99.95192445080733 L 112.5859375 100.55254502749534 L 114.63671875 101.4015722623796 L 116.6875 102.4968746805456 L 118.884765625 103.9405665869229 L 121.08203125 105.65964659368922 L 123.279296875 107.64916056747876 L 125.4765625 109.90337502438149 L 127.673828125 112.41579365299214 L 129.87109375 115.17917603581549 L 132.21484375 118.39441572090504 L 134.55859375 121.87558424321429 L 136.90234375 125.61126755393849 L 139.392578125 129.84558932483344 L 141.8828125 134.33772472668716 L 144.51953125 139.35661849539207 L 147.302734375 144.92464760209128 L 150.232421875 151.05780150728324 L 153.30859375 157.76408936737622 L 156.677734375 165.37807976797174 L 160.486328125 174.26073761995116 L 165.02734375 185.13049668497058 L 172.205078125 202.6185885452113 L 179.236328125 219.66054889306554 L 183.484375 229.7005949319228 L 187.146484375 238.09878053603748 L 190.369140625 245.2358649404053 L 193.4453125 251.78473032926547 L 196.228515625 257.45645591394054 L 198.865234375 262.5829229628424 L 201.501953125 267.4476319899365 L 203.9921875 271.78352464723383 L 206.482421875 275.85187246756874 L 208.826171875 279.42300532196026 L 211.169921875 282.732086776793 L 213.513671875 285.76826702201527 L 215.7109375 288.35797065021893 L 217.908203125 290.6915987988203 L 220.10546875 292.7624262979442 L 222.302734375 294.56448533017243 L 224.5 296.0925826289068 L 226.55078125 297.267735782451 L 228.6015625 298.19744395176707 L 230.65234375 298.87937311321093 L 232.703125 299.31181129001493 L 234.75390625 299.4936728501898 L 236.8046875 299.4245012319936 L 238.85546875 299.10447009012523 L 240.90625 298.5343828597665 L 242.95703125 297.7156707395654 L 245.0078125 296.65038909862517 L 247.205078125 295.2384500788976 L 249.40234375 293.5506070593268 L 251.599609375 291.59172415291897 L 253.796875 289.3674465693954 L 255.994140625 286.8841843465367 L 258.19140625 284.1490938774052 L 260.53515625 280.9629875569715 L 262.87890625 277.50978054612256 L 265.22265625 273.8007952135122 L 267.712890625 269.59335775034083 L 270.203125 265.12648197030575 L 272.83984375 260.1324590315745 L 275.623046875 254.5884788828196 L 278.552734375 248.47807491823258 L 281.62890625 241.79271835652654 L 284.998046875 234.19804108459238 L 288.66015625 225.67812457220964 L 293.0546875 215.18384772578062 L 299.646484375 199.14207191374888 L 307.556640625 179.940820158369 L 311.951171875 169.5432290289493 L 315.61328125 161.13719589399497 L 318.8359375 153.99164128736564 L 321.912109375 147.43337458596326 L 324.6953125 141.75208016043342 L 327.33203125 136.61565781780968 L 329.96875 131.74016950042113 L 332.458984375 127.39338006854922 L 334.94921875 123.31348069174334 L 337.29296875 119.73091590566088 L 339.63671875 116.40989784250559 L 341.98046875 113.36131545005793 L 344.177734375 110.7595981470788 L 346.375 108.4136175078824 L 348.572265625 106.33013430038784 L 350.76953125 104.51515281388612 L 352.966796875 102.97390355557013 L 355.017578125 101.78630160260661 L 357.068359375 100.84400897352248 L 359.119140625 100.14939128513026 L 361.169921875 99.70419236862546 L 363.220703125 99.50952989171469 L 365.271484375 99.56589255272166 L 367.322265625 99.87313885371412 L 369.373046875 100.43049745573353 L 371.423828125 101.23656911523409 L 373.474609375 102.28933019687054 L 375.671875 103.6880230892832 L 377.869140625 105.36283187495252 L 380.06640625 107.30893000359958 L 382.263671875 109.52070910933446 L 384.4609375 111.99179517313394 L 386.658203125 114.71506689181848 L 389.001953125 117.88899884379327 L 391.345703125 121.33051679289412 L 393.689453125 125.02833669654086 L 396.1796875 129.22452555427748 L 398.669921875 133.6808268020061 L 401.306640625 138.6644313482867 L 404.08984375 144.19832944199723 L 407.01953125 150.29918631754845 L 410.095703125 156.9757471729453 L 413.46484375 164.5622928752064 L 417.126953125 173.07521347896477 L 421.521484375 183.5637043652847 L 427.966796875 199.24433681387126 L 436.169921875 219.159459767008 L 440.564453125 229.55432414172736 L 444.2265625 237.95722485488176 L 447.44921875 245.09939698223766 L 450.525390625 251.65390829926477 L 453.30859375 257.33137964116554 L 455.9453125 262.46382389149267 L 458.58203125 267.33500431298614 L 461.072265625 271.6774384405144 L 463.5625 275.75272039063884 L 465.90625 279.33071520990313 L 468.25 282.64696123025453 L 470.59375 285.69058515047743 L 472.791015625 288.28749901984804 L 474.98828125 290.6285404983929 L 477.185546875 292.7069630521206 L 479.3828125 294.516776975793 L 481.580078125 296.0527666543661 L 483.630859375 297.23539001452 L 485.681640625 298.172649594193 L 487.732421875 298.86219241199603 L 489.783203125 299.3022873771486 L 491.833984375 299.4918296353661 L 493.884765625 299.43034334258584 L 495.935546875 299.1179828595697 L 497.986328125 298.55553236438215 L 500.037109375 297.7444038837191 L 502.087890625 296.68663374802793 L 504.28515625 295.2826413027533 L 506.482421875 293.6026175050889 L 508.6796875 291.65140393420415 L 510.876953125 289.43462369793417 L 513.07421875 286.9586652278176 L 515.271484375 284.23066386858585 L 517.615234375 281.0518596752462 L 519.958984375 277.6056633977571 L 522.302734375 273.90337441799295 L 524.79296875 269.7026828226162 L 527.283203125 265.24214826272225 L 529.919921875 260.2543724466768 L 532.703125 254.71643718665538 L 535.6328125 248.6117566866892 L 538.708984375 241.9316723086804 L 542.078125 234.3418680249435 L 545.740234375 225.82614237792728 L 550.134765625 215.33532887862788 L 556.580078125 199.65339801862854 L 564.63671875 180.09127836752583 L 569.03125 169.68961749572603 L 572.693359375 161.27890221260137 L 575.916015625 154.12828789998366 L 578.9921875 147.564400983441 L 581.775390625 141.87738307424542 L 584.412109375 136.7350036665581 L 587.048828125 131.85306306714676 L 589.5390625 127.49974920386188 L 592.029296875 123.4129316888737 L 594.373046875 119.82351897915817 L 596.716796875 116.49534936558649 L 599.060546875 113.43933524442934 L 599.5 112.8974596215561" stroke-linecap="round" stroke-linejoin="round" stroke-miterlimit="10" stroke-width="2.5" stroke-opacity="0.7" stroke-dasharray=""/></g><path fill="#388c46" stroke="none" paint-order="stroke fill markers" d="" fill-opacity="0.4"/><g><path fill="none" stroke="#388c46" class="dcg-svg-curve" paint-order="fill stroke markers" d=" M -0.5 249.49999999999997 L -0.5 249.49999999999997 L 2.4296875 255.5661576197336 L 5.212890625 261.06346128933643 L 7.849609375 266.00929039493496 L 10.33984375 270.42728264388654 L 12.830078125 274.58274994868583 L 15.173828125 278.2401747029031 L 17.517578125 281.6394263203712 L 19.861328125 284.7693593412786 L 22.05859375 287.4499367271395 L 24.255859375 289.8770554523581 L 26.453125 292.0437209210971 L 28.650390625 293.9436891251377 L 30.84765625 295.57148463818436 L 33.044921875 296.92241639523013 L 35.095703125 297.9300470744046 L 37.146484375 298.6905700430609 L 39.197265625 299.2020760154153 L 41.248046875 299.4632808605187 L 43.298828125 299.47352882605617 L 45.349609375 299.2327941846062 L 47.400390625 298.7416812982296 L 49.451171875 298.00142310122396 L 51.501953125 297.01387800485395 L 53.552734375 295.78152523182683 L 55.75 294.19301294951055 L 57.947265625 292.3316094619529 L 60.14453125 290.20267905766195 L 62.341796875 287.8123569980029 L 64.5390625 285.1675318362856 L 66.8828125 282.07446728718566 L 69.2265625 278.71065773002124 L 71.5703125 275.0871324172429 L 74.060546875 270.9658687862769 L 76.55078125 266.5800867286554 L 79.1875 261.6660573370077 L 81.82421875 256.49407439108813 L 84.607421875 250.77864006335625 L 87.537109375 244.50680004971915 L 90.759765625 237.34277548087653 L 94.275390625 229.26157074350857 L 98.376953125 219.56037281736718 L 103.650390625 206.80546125381403 L 115.955078125 176.94179121219074 L 120.056640625 167.3076385863579 L 123.572265625 159.30334953104295 L 126.794921875 152.2250968049657 L 129.724609375 146.04344464122627 L 132.5078125 140.42402981411254 L 135.14453125 135.35189871914173 L 137.78125 130.54594552629328 L 140.271484375 126.26938337088433 L 142.76171875 122.26387154793093 L 145.10546875 118.75487257818855 L 147.44921875 115.51062058040003 L 149.646484375 112.7190503236697 L 151.84375 110.17756988044846 L 154.041015625 107.89350342006685 L 156.23828125 105.8734332829722 L 158.435546875 104.12318101140096 L 160.6328125 102.64779057255828 L 162.68359375 101.52250861468343 L 164.734375 100.64319823051147 L 166.78515625 100.01206692051943 L 168.8359375 99.63069913394486 L 170.92857142857144 99.5 L 172.9375 99.62045437948274 L 174.98828125 99.99160313095524 L 177.0390625 100.61256677999711 L 179.08984375 101.48178640318827 L 181.140625 102.59707983281248 L 183.337890625 104.06191020723179 L 185.53515625 105.80177898774093 L 187.732421875 107.81167213081466 L 189.9296875 110.08579742280233 L 192.126953125 112.61760117222798 L 194.32421875 115.39978709655622 L 196.66796875 118.63438184118252 L 199.01171875 122.13411862256459 L 201.35546875 125.88752251032469 L 203.845703125 130.13967864870153 L 206.3359375 134.64855989778874 L 208.97265625 139.68392930036578 L 211.755859375 145.2678746384004 L 214.685546875 151.4160669399666 L 217.76171875 158.13616877615655 L 221.130859375 165.76287538339187 L 224.939453125 174.6567658202831 L 229.48046875 185.53543208912825 L 236.951171875 203.7427395997327 L 243.54296875 219.7106290308411 L 247.791015625 229.74933608677634 L 251.453125 238.14594559583034 L 254.67578125 245.28133035988773 L 257.751953125 251.82831034756563 L 260.53515625 257.4981177133596 L 263.171875 262.6225896804083 L 265.80859375 267.48513903147636 L 268.298828125 271.81884893065273 L 270.7890625 275.8848832462036 L 273.1328125 279.4537269107905 L 275.4765625 282.76041844593095 L 277.8203125 285.7941158776375 L 280.017578125 288.38141473709777 L 282.21484375 290.7125705545777 L 284.412109375 292.7808652850938 L 286.609375 294.5803384102905 L 288.806640625 296.10580411577007 L 290.857421875 297.27846658507633 L 292.908203125 298.2056571305751 L 294.958984375 298.8850480490932 L 297.009765625 299.31493373609817 L 299.060546875 299.49423496760244 L 301.111328125 299.42250160954495 L 303.162109375 299.0999137478488 L 305.212890625 298.5272812363169 L 307.263671875 297.7060416635017 L 309.314453125 296.6382567436526 L 311.51171875 295.2236696031684 L 313.708984375 293.5332210579778 L 315.90625 291.5717827298248 L 318.103515625 289.34500719277696 L 320.30078125 286.85931168334605 L 322.498046875 284.1218596069652 L 324.841796875 280.93332090936667 L 327.185546875 277.4777787923015 L 329.529296875 273.76656328076496 L 332.01953125 269.5568793943248 L 334.509765625 265.08789220928213 L 337.146484375 260.09178950702346 L 339.9296875 254.54579729366048 L 342.859375 248.43348870206253 L 345.935546875 241.74637824102138 L 349.3046875 234.15008061045847 L 352.966796875 225.62877159762047 L 357.361328125 215.13334578931352 L 363.953125 199.09093959737652 L 371.86328125 179.89067763220064 L 376.2578125 169.49444852105688 L 379.919921875 161.0899804983065 L 383.142578125 153.94611619741355 L 386.21875 147.38972633109765 L 389.001953125 141.7103427049301 L 391.638671875 136.5759087372423 L 394.275390625 131.7025737307219 L 396.765625 127.35796138306102 L 399.255859375 123.28037018654214 L 401.599609375 119.70008991582722 L 403.943359375 116.38145744023706 L 406.287109375 113.33535388569186 L 408.484375 110.73603795971462 L 410.681640625 108.39252659448238 L 412.87890625 106.31157344183322 L 415.076171875 104.49917549981569 L 417.2734375 102.96055583023104 L 419.32421875 101.77544301874536 L 421.375 100.8356667915121 L 423.42578125 100.14358644794049 L 425.4765625 99.7009394492456 L 427.52734375 99.50883705656844 L 429.578125 99.56776154116505 L 431.62890625 99.87756497366922 L 433.6796875 100.43746959546775 L 435.73046875 101.24606977125586 L 437.78125 102.30133551787208 L 439.978515625 103.7026783699099 L 442.17578125 105.3800948808614 L 444.373046875 107.32875098537045 L 446.5703125 109.54303094584043 L 448.767578125 112.01655353615615 L 450.96484375 114.74219043143034 L 453.30859375 117.91855891932659 L 455.65234375 121.36241648282879 L 457.99609375 125.06247140823365 L 460.486328125 129.2609121836424 L 462.9765625 133.71933067029215 L 465.61328125 138.7050215032226 L 468.396484375 144.24093890378583 L 471.326171875 150.343708389345 L 474.40234375 157.02203187908913 L 477.771484375 164.61020786407232 L 481.43359375 173.1245321025169 L 485.828125 183.61418566661385 L 492.2734375 199.2954693708836 L 500.4765625 219.20959202614821 L 504.87109375 229.6030889466516 L 508.533203125 238.00442015322773 L 511.755859375 245.1448982396884 L 514.83203125 251.6975292937154 L 517.615234375 257.37308686694496 L 520.251953125 262.50354005800716 L 522.888671875 267.372564620878 L 525.37890625 271.7128193929216 L 527.869140625 275.7857910311477 L 530.212890625 279.3614994634761 L 532.556640625 282.6753581615387 L 534.900390625 285.71650165166807 L 537.09765625 288.31101278545543 L 539.294921875 290.6495837652353 L 541.4921875 292.7254751766271 L 543.689453125 294.53270460876905 L 545.88671875 296.06606389473814 L 547.9375 297.24619749435715 L 549.98828125 298.1809401814186 L 552.0390625 298.8679452931684 L 554.08984375 299.30548810971356 L 556.140625 299.49247018391446 L 558.19140625 299.4284220990266 L 560.2421875 299.11350464716674 L 562.29296875 298.5485084256457 L 564.34375 297.7348518521816 L 566.39453125 296.6745776039749 L 568.591796875 295.2679359325447 L 570.7890625 293.58530528741846 L 572.986328125 291.631534760313 L 575.18359375 289.4122548278317 L 577.380859375 286.93386112526656 L 579.578125 284.20349601532746 L 581.921875 281.02225694765934 L 584.265625 277.5737228572095 L 586.609375 273.8692007910687 L 589.099609375 269.6662594740169 L 591.58984375 265.20361000710864 L 594.2265625 260.2137505120282 L 597.009765625 254.67379884047077 L 599.5 249.49999999999997" stroke-linecap="round" stroke-linejoin="round" stroke-miterlimit="10" stroke-width="2.5" stroke-opacity="0.7" stroke-dasharray=""/></g></g><g id="labels-f5bcdab1"/></g></svg>