<svg version="1.1" xmlns="http://www.w3.org/2000/svg" xmlns:xlink="http://www.w3.org/1999/xlink" width="599" height="399"><defs/><g transform="scale(1,1)"><g id="background-b1d79e49"><rect fill="white" stroke="none" x="0" y="0" width="599.995849609375" height="399.99151611328125" class="dcg-svg-background"/></g><g id="background-images-b1d79e49"/><g id="graphpaper-b1d79e49"><g id="grid-b1d79e49"><g><path fill="none" stroke="rgb(0,0,0)" class="dcg-svg-minor-gridline" paint-order="fill stroke markers" d=" M 13.5 0 L 13.5 399.99151611328125" stroke-opacity="0.12" stroke-miterlimit="10" stroke-dasharray=""/><path fill="none" stroke="rgb(0,0,0)" class="dcg-svg-minor-gridline" paint-order="fill stroke markers" d=" M 49.5 0 L 49.5 399.99151611328125" stroke-opacity="0.12" stroke-miterlimit="10" stroke-dasharray=""/><path fill="none" stroke="rgb(0,0,0)" class="dcg-svg-minor-gridline" paint-order="fill stroke markers" d=" M 85.5 0 L 85.5 399.99151611328125" stroke-opacity="0.12" stroke-miterlimit="10" stroke-dasharray=""/><path fill="none" stroke="rgb(0,0,0)" class="dcg-svg-minor-gridline" paint-order="fill stroke markers" d=" M 120.5 0 L 120.5 399.99151611328125" stroke-opacity="0.12" stroke-miterlimit="10" stroke-dasharray=""/><path fill="none" stroke="rgb(0,0,0)" class="dcg-svg-minor-gridline" paint-order="fill stroke markers" d=" M 156.5 0 L 156.5 399.99151611328125" stroke-opacity="0.12" stroke-miterlimit="10" stroke-dasharray=""/><path fill="none" stroke="rgb(0,0,0)" class="dcg-svg-minor-gridline" paint-order="fill stroke markers" d=" M 192.5 0 L 192.5 399.99151611328125" stroke-opacity="0.12" stroke-miterlimit="10" stroke-dasharray=""/><path fill="none" stroke="rgb(0,0,0)" class="dcg-svg-minor-gridline" paint-order="fill stroke markers" d=" M 228.5 0 L 228.5 399.99151611328125" stroke-opacity="0.12" stroke-miterlimit="10" stroke-dasharray=""/><path fill="none" stroke="rgb(0,0,0)" class="dcg-svg-minor-gridline" paint-order="fill stroke markers" d=" M 263.5 0 L 263.5 399.99151611328125" stroke-opacity="0.12" stroke-miterlimit="10" stroke-dasharray=""/><path fill="none" stroke="rgb(0,0,0)" class="dcg-svg-minor-gridline" paint-order="fill stroke markers" d=" M 335.5 0 L 335.5 399.99151611328125" stroke-opacity="0.12" stroke-miterlimit="10" stroke-dasharray=""/><path fill="none" stroke="rgb(0,0,0)" class="dcg-svg-minor-gridline" paint-order="fill stroke markers" d=" M 370.5 0 L 370.5 399.99151611328125" stroke-opacity="0.12" stroke-miterlimit="10" stroke-dasharray=""/><path fill="none" stroke="rgb(0,0,0)" class="dcg-svg-minor-gridline" paint-order="fill stroke markers" d=" M 406.5 0 L 406.5 399.99151611328125" stroke-opacity="0.12" stroke-miterlimit="10" stroke-dasharray=""/><path fill="none" stroke="rgb(0,0,0)" class="dcg-svg-minor-gridline" paint-order="fill stroke markers" d=" M 442.5 0 L 442.5 399.99151611328125" stroke-opacity="0.12" stroke-miterlimit="10" stroke-dasharray=""/><path fill="none" stroke="rgb(0,0,0)" class="dcg-svg-minor-gridline" paint-order="fill stroke markers" d=" M 478.5 0 L 478.5 399.99151611328125" stroke-opacity="0.12" stroke-miterlimit="10" stroke-dasharray=""/><path fill="none" stroke="rgb(0,0,0)" class="dcg-svg-minor-gridline" paint-order="fill stroke markers" d=" M 513.5 0 L 513.5 399.99151611328125" stroke-opacity="0.12" stroke-miterlimit="10" stroke-dasharray=""/><path fill="none" stroke="rgb(0,0,0)" class="dcg-svg-minor-gridline" paint-order="fill stroke markers" d=" M 549.5 0 L 549.5 399.99151611328125" stroke-opacity="0.12" stroke-miterlimit="10" stroke-dasharray=""/><path fill="none" stroke="rgb(0,0,0)" class="dcg-svg-minor-gridline" paint-order="fill stroke markers" d=" M 585.5 0 L 585.5 399.99151611328125" stroke-opacity="0.12" stroke-miterlimit="10" stroke-dasharray=""/><path fill="none" stroke="rgb(0,0,0)" class="dcg-svg-minor-gridline" paint-order="fill stroke markers" d=" M 0 399.5 L 599.995849609375 399.5" stroke-opacity="0.12" stroke-miterlimit="10" stroke-dasharray=""/><path fill="none" stroke="rgb(0,0,0)" class="dcg-svg-minor-gridline" paint-order="fill stroke markers" d=" M 0 379.5 L 599.995849609375 379.5" stroke-opacity="0.12" stroke-miterlimit="10" stroke-dasharray=""/><path fill="none" stroke="rgb(0,0,0)" class="dcg-svg-minor-gridline" paint-order="fill stroke markers" d=" M 0 359.5 L 599.995849609375 359.5" stroke-opacity="0.12" stroke-miterlimit="10" stroke-dasharray=""/><path fill="none" stroke="rgb(0,0,0)" class="dcg-svg-minor-gridline" paint-order="fill stroke markers" d=" M 0 339.5 L 599.995849609375 339.5" stroke-opacity="0.12" stroke-miterlimit="10" stroke-dasharray=""/><path fill="none" stroke="rgb(0,0,0)" class="dcg-svg-minor-gridline" paint-order="fill stroke markers" d=" M 0 319.5 L 599.995849609375 319.5" stroke-opacity="0.12" stroke-miterlimit="10" stroke-dasharray=""/><path fill="none" stroke="rgb(0,0,0)" class="dcg-svg-minor-gridline" paint-order="fill stroke markers" d=" M 0 299.5 L 599.995849609375 299.5" stroke-opacity="0.12" stroke-miterlimit="10" stroke-dasharray=""/><path fill="none" stroke="rgb(0,0,0)" class="dcg-svg-minor-gridline" paint-order="fill stroke markers" d=" M 0 279.5 L 599.995849609375 279.5" stroke-opacity="0.12" stroke-miterlimit="10" stroke-dasharray=""/><path fill="none" stroke="rgb(0,0,0)" class="dcg-svg-minor-gridline" paint-order="fill stroke markers" d=" M 0 259.5 L 599.995849609375 259.5" stroke-opacity="0.12" stroke-miterlimit="10" stroke-dasharray=""/><path fill="none" stroke="rgb(0,0,0)" class="dcg-svg-minor-gridline" paint-order="fill stroke markers" d=" M 0 239.5 L 599.995849609375 239.5" stroke-opacity="0.12" stroke-miterlimit="10" stroke-dasharray=""/><path fill="none" stroke="rgb(0,0,0)" class="dcg-svg-minor-gridline" paint-order="fill stroke markers" d=" M 0 219.5 L 599.995849609375 219.5" stroke-opacity="0.12" stroke-miterlimit="10" stroke-dasharray=""/><path fill="none" stroke="rgb(0,0,0)" class="dcg-svg-minor-gridline" paint-order="fill stroke markers" d=" M 0 179.5 L 599.995849609375 179.5" stroke-opacity="0.12" stroke-miterlimit="10" stroke-dasharray=""/><path fill="none" stroke="rgb(0,0,0)" class="dcg-svg-minor-gridline" paint-order="fill stroke markers" d=" M 0 159.5 L 599.995849609375 159.5" stroke-opacity="0.12" stroke-miterlimit="10" stroke-dasharray=""/><path fill="none" stroke="rgb(0,0,0)" class="dcg-svg-minor-gridline" paint-order="fill stroke markers" d=" M 0 139.5 L 599.995849609375 139.5" stroke-opacity="0.12" stroke-miterlimit="10" stroke-dasharray=""/><path fill="none" stroke="rgb(0,0,0)" class="dcg-svg-minor-gridline" paint-order="fill stroke markers" d=" M 0 119.5 L 599.995849609375 119.5" stroke-opacity="0.12" stroke-miterlimit="10" stroke-dasharray=""/><path fill="none" stroke="rgb(0,0,0)" class="dcg-svg-minor-gridline" paint-order="fill stroke markers" d=" M 0 99.5 L 599.995849609375 99.5" stroke-opacity="0.12" stroke-miterlimit="10" stroke-dasharray=""/><path fill="none" stroke="rgb(0,0,0)" class="dcg-svg-minor-gridline" paint-order="fill stroke markers" d=" M 0 79.5 L 599.995849609375 79.5" stroke-opacity="0.12" stroke-miterlimit="10" stroke-dasharray=""/><path fill="none" stroke="rgb(0,0,0)" class="dcg-svg-minor-gridline" paint-order="fill stroke markers" d=" M 0 59.5 L 599.995849609375 59.5" stroke-opacity="0.12" stroke-miterlimit="10" stroke-dasharray=""/><path fill="none" stroke="rgb(0,0,0)" class="dcg-svg-minor-gridline" paint-order="fill stroke markers" d=" M 0 39.5 L 599.995849609375 39.5" stroke-opacity="0.12" stroke-miterlimit="10" stroke-dasharray=""/><path fill="none" stroke="rgb(0,0,0)" class="dcg-svg-minor-gridline" paint-order="fill stroke markers" d=" M 0 19.5 L 599.995849609375 19.5" stroke-opacity="0.12" stroke-miterlimit="10" stroke-dasharray=""/><path fill="none" stroke="rgb(0,0,0)" class="dcg-svg-minor-gridline" paint-order="fill stroke markers" d=" M 0 -0.5 L 599.995849609375 -0.5" stroke-opacity="0.12" stroke-miterlimit="10" stroke-dasharray=""/><path fill="none" stroke="rgb(0,0,0)" class="dcg-svg-major-gridline" paint-order="fill stroke markers" d=" M 13.5 0 L 13.5 399.99151611328125" stroke-opacity="0.31818181818181823" stroke-miterlimit="10" stroke-dasharray=""/><path fill="none" stroke="rgb(0,0,0)" class="dcg-svg-major-gridline" paint-order="fill stroke markers" d=" M 156.5 0 L 156.5 399.99151611328125" stroke-opacity="0.31818181818181823" stroke-miterlimit="10" stroke-dasharray=""/><path fill="none" stroke="rgb(0,0,0)" class="dcg-svg-major-gridline" paint-order="fill stroke markers" d=" M 442.5 0 L 442.5 399.99151611328125" stroke-opacity="0.31818181818181823" stroke-miterlimit="10" stroke-dasharray=""/><path fill="none" stroke="rgb(0,0,0)" class="dcg-svg-major-gridline" paint-order="fill stroke markers" d=" M 585.5 0 L 585.5 399.99151611328125" stroke-opacity="0.31818181818181823" stroke-miterlimit="10" stroke-dasharray=""/><path fill="none" stroke="rgb(0,0,0)" class="dcg-svg-major-gridline" paint-order="fill stroke markers" d=" M 0 399.5 L 599.995849609375 399.5" stroke-opacity="0.31818181818181823" stroke-miterlimit="10" stroke-dasharray=""/><path fill="none" stroke="rgb(0,0,0)" class="dcg-svg-major-gridline" paint-order="fill stroke markers" d=" M 0 299.5 L 599.995849609375 299.5" stroke-opacity="0.31818181818181823" stroke-miterlimit="10" stroke-dasharray=""/><path fill="none" stroke="rgb(0,0,0)" class="dcg-svg-major-gridline" paint-order="fill stroke markers" d=" M 0 99.5 L 599.995849609375 99.5" stroke-opacity="0.31818181818181823" stroke-miterlimit="10" stroke-dasharray=""/><path fill="none" stroke="rgb(0,0,0)" class="dcg-svg-major-gridline" paint-order="fill stroke markers" d=" M 0 -0.5 L 599.995849609375 -0.5" stroke-opacity="0.31818181818181823" stroke-miterlimit="10" stroke-dasharray=""/></g></g><g id="axis-b1d79e49"><path fill="none" stroke="rgb(0,0,0)" class="dcg-svg-axis-line" paint-order="fill stroke markers" d=" M 299.75 0 L 299.75 399.99151611328125" stroke-opacity="0.9" stroke-miterlimit="10" stroke-width="1.5" stroke-dasharray=""/><path fill="none" stroke="rgb(0,0,0)" class="dcg-svg-axis-line" paint-order="fill stroke markers" d=" M 0 199.75 L 599.995849609375 199.75" stroke-opacity="0.9" stroke-miterlimit="10" stroke-width="1.5" stroke-dasharray=""/><g><g class="dcg-svg-axis-value"><text fill="none" stroke="#ffffff" font-family="Arial" font-size="14px" font-style="normal" font-weight="normal" text-decoration="normal" x="291.1048583984375" y="215.80375805664062" text-anchor="middle" stroke-miterlimit="2" stroke-width="3" stroke-dasharray="">0</text><text fill="#000000" stroke="none" font-family="Arial" font-size="14px" font-style="normal" font-weight="normal" text-decoration="normal" x="291.1048583984375" y="215.80375805664062" text-anchor="middle">0</text></g><g class="dcg-svg-axis-value dcg-svg-offcenter-axis-value"><text fill="none" stroke="#ffffff" font-family="Arial" font-size="14px" font-style="normal" font-weight="normal" text-decoration="normal" x="17.01025390625" y="215.80375805664062" text-anchor="middle" stroke-miterlimit="2" stroke-width="3" stroke-dasharray="">-400</text><text fill="#000000" stroke="none" font-family="Arial" font-size="14px" font-style="normal" font-weight="normal" text-decoration="normal" x="17.01025390625" y="215.80375805664062" text-anchor="middle">-400</text></g><g class="dcg-svg-axis-value"><text fill="none" stroke="#ffffff" font-family="Arial" font-size="14px" font-style="normal" font-weight="normal" text-decoration="normal" x="154.8107154482887" y="215.80375805664062" text-anchor="middle" stroke-miterlimit="2" stroke-width="3" stroke-dasharray="">-200</text><text fill="#000000" stroke="none" font-family="Arial" font-size="14px" font-style="normal" font-weight="normal" text-decoration="normal" x="154.8107154482887" y="215.80375805664062" text-anchor="middle">-200</text></g><g class="dcg-svg-axis-value"><text fill="none" stroke="#ffffff" font-family="Arial" font-size="14px" font-style="normal" font-weight="normal" text-decoration="normal" x="442.8540794735863" y="215.80375805664062" text-anchor="middle" stroke-miterlimit="2" stroke-width="3" stroke-dasharray="">200</text><text fill="#000000" stroke="none" font-family="Arial" font-size="14px" font-style="normal" font-weight="normal" text-decoration="normal" x="442.8540794735863" y="215.80375805664062" text-anchor="middle">200</text></g><g class="dcg-svg-axis-value dcg-svg-offcenter-axis-value"><text fill="none" stroke="#ffffff" font-family="Arial" font-size="14px" font-style="normal" font-weight="normal" text-decoration="normal" x="585.316650390625" y="215.80375805664062" text-anchor="middle" stroke-miterlimit="2" stroke-width="3" stroke-dasharray="">400</text><text fill="#000000" stroke="none" font-family="Arial" font-size="14px" font-style="normal" font-weight="normal" text-decoration="normal" x="585.316650390625" y="215.80375805664062" text-anchor="middle">400</text></g><g class="dcg-svg-axis-value dcg-svg-offcenter-axis-value"><text fill="none" stroke="#ffffff" font-family="Arial" font-size="14px" font-style="normal" font-weight="normal" text-decoration="normal" x="288.7738037109375" y="393.79951611328124" text-anchor="middle" stroke-miterlimit="2" stroke-width="3" stroke-dasharray="">-2</text><text fill="#000000" stroke="none" font-family="Arial" font-size="14px" font-style="normal" font-weight="normal" text-decoration="normal" x="288.7738037109375" y="393.79951611328124" text-anchor="middle">-2</text></g><g class="dcg-svg-axis-value"><text fill="none" stroke="#ffffff" font-family="Arial" font-size="14px" font-style="normal" font-weight="normal" text-decoration="normal" x="288.7738037109375" y="303.80163708496093" text-anchor="middle" stroke-miterlimit="2" stroke-width="3" stroke-dasharray="">-1</text><text fill="#000000" stroke="none" font-family="Arial" font-size="14px" font-style="normal" font-weight="normal" text-decoration="normal" x="288.7738037109375" y="303.80163708496093" text-anchor="middle">-1</text></g><g class="dcg-svg-axis-value"><text fill="none" stroke="#ffffff" font-family="Arial" font-size="14px" font-style="normal" font-weight="normal" text-decoration="normal" x="291.1048583984375" y="103.80587902832032" text-anchor="middle" stroke-miterlimit="2" stroke-width="3" stroke-dasharray="">1</text><text fill="#000000" stroke="none" font-family="Arial" font-size="14px" font-style="normal" font-weight="normal" text-decoration="normal" x="291.1048583984375" y="103.80587902832032" text-anchor="middle">1</text></g><g class="dcg-svg-axis-value dcg-svg-offcenter-axis-value"><text fill="none" stroke="#ffffff" font-family="Arial" font-size="14px" font-style="normal" font-weight="normal" text-decoration="normal" x="291.1048583984375" y="13.808" text-anchor="middle" stroke-miterlimit="2" stroke-width="3" stroke-dasharray="">2</text><text fill="#000000" stroke="none" font-family="Arial" font-size="14px" font-style="normal" font-weight="normal" text-decoration="normal" x="291.1048583984375" y="13.808" text-anchor="middle">2</text></g></g></g></g><g id="expressions-b1d79e49"><path fill="#2d70b3" stroke="none" paint-order="stroke fill markers" d="" fill-opacity="0.4"/><g><path fill="none" stroke="#2d70b3" class="dcg-svg-curve" paint-order="fill stroke markers" d=" M -0.5 286.0964616197292 L -0.5 286.0964616197292 L 1.6972504258155823 283.28855646102943 L 4.040984213352203 280.0275061186133 L 6.3847180008888245 276.5024084320871 L 8.728451788425446 272.7248214851167 L 11.218668937683105 268.4483500343799 L 13.708886086940765 263.91666261196974 L 16.345586597919464 258.8588841216996 L 19.1287704706192 253.25332547924097 L 22.058437705039978 247.0847542512623 L 25.134588301181793 240.34598478206294 L 28.503705620765686 232.70216393760512 L 32.312273025512695 223.7932606928867 L 36.99974060058594 212.5481004362886 L 45.64225894212723 191.47671528235225 L 51.50159341096878 177.33672452888652 L 55.60312753915787 167.691624889104 L 59.1187282204628 159.67484644947496 L 62.34136217832565 152.58270826934637 L 65.27102941274643 146.38648439806047 L 68.05421328544617 140.7515774921137 L 70.69091379642487 135.66335352256442 L 73.32761430740356 130.83999749434253 L 75.81783145666122 126.54586152140416 L 78.30804860591888 122.52173684454186 L 80.6517823934555 118.99433239099886 L 82.99551618099213 115.73087586054993 L 85.19276660680771 112.92063161775093 L 87.39001703262329 110.35988403644723 L 89.58726745843887 108.05601281100076 L 91.78451788425446 106.01565735625167 L 93.98176831007004 104.24469767371033 L 96.17901873588562 102.74823740626607 L 98.22978579998016 101.6030168460901 L 100.2805528640747 100.70355509509773 L 102.33131992816925 100.05211024358346 L 104.3820869922638 99.65031773774041 L 106.43285405635834 99.49918627388826 L 108.48362112045288 99.5990952661503 L 110.53438818454742 99.94979389393802 L 112.58515524864197 100.55040173163371 L 114.63592231273651 101.39941095889077 L 116.68668937683105 102.49469014600265 L 118.88393980264664 103.9383514320835 L 121.08119022846222 105.65739497764969 L 123.2784406542778 107.64686675441135 L 125.47569108009338 109.9010334000638 L 127.67294150590897 112.41339874098685 L 129.87019193172455 115.17672251325246 L 132.21392571926117 118.39189400401887 L 134.5576595067978 121.87298869172963 L 136.9013932943344 125.6085927696688 L 139.39161044359207 129.84282473179815 L 141.88182759284973 134.33486485673217 L 144.51852810382843 139.3536521761216 L 147.30171197652817 144.92156318650035 L 150.23137921094894 151.05458700923492 L 153.30752980709076 157.7607326308616 L 156.67664712667465 165.37456154087707 L 160.48521453142166 174.257030994199 L 165.02619874477386 185.12655951470703 L 172.20388346910477 202.61428045747206 L 179.23508483171463 219.65587935017368 L 183.48310232162476 229.6957124424978 L 187.14518636465073 238.09371992347425 L 190.36782032251358 245.23065295230307 L 193.4439709186554 251.779379441583 L 196.22715479135513 257.4509847305647 L 198.86385530233383 262.57734304855234 L 201.50055581331253 267.44194889654557 L 203.9907729625702 271.7777495907876 L 206.48099011182785 275.8460111226174 L 208.82472389936447 279.41706823429246 L 211.1684576869011 282.72607950444467 L 213.5121914744377 285.7621953531438 L 215.7094419002533 288.35184405446694 L 217.90669232606888 290.68542270747616 L 220.10394275188446 292.7562062849353 L 222.30119317770004 294.55822709600176 L 224.49844360351562 296.0862919842252 L 226.54921066761017 297.2614202131038 L 228.5999777317047 298.1911086635729 L 230.65074479579926 298.87302336149236 L 232.7015118598938 299.3054523664051 L 234.75227892398834 299.4873100693478 L 236.80304598808289 299.418139918262 L 238.85381305217743 299.09811556416355 L 240.90458011627197 298.5280404251935 L 242.95534718036652 297.70934566964456 L 245.00611424446106 296.6440866230263 L 247.20336467027664 295.23217755012547 L 249.40061509609222 293.54437032922715 L 251.5978655219078 291.58552897017097 L 253.7951159477234 289.361298562945 L 255.99236637353897 286.8780890093748 L 258.18961679935455 284.1430565507376 L 260.5333505868912 280.9570178067166 L 262.8770843744278 277.50388403741044 L 265.2208181619644 273.7949773713285 L 267.7110353112221 269.5876291467143 L 270.20125246047974 265.1208481078494 L 272.83795297145844 260.1269310909304 L 275.6211368441582 254.58306852842435 L 278.55080407857895 248.47279416377495 L 281.62695467472076 241.78757939658826 L 284.99607199430466 234.19306320560818 L 288.6581560373306 225.6733273982418 L 293.0526568889618 215.1792731324527 L 299.64440816640854 199.13783756194283 L 307.55450969934464 179.93699305967488 L 311.9490105509758 169.53962246021837 L 315.61109459400177 161.13376761484622 L 318.8337285518646 153.98836456340644 L 321.90987914800644 147.4302369609835 L 324.6930630207062 141.7490630340995 L 327.3297635316849 136.61274963353895 L 329.9664640426636 131.73736472387685 L 332.45668119192123 127.39066748617773 L 334.9468983411789 123.31085464288225 L 337.2906321287155 119.72836584198427 L 339.63436591625214 116.4074182166816 L 341.97809970378876 113.3589004838031 L 344.17535012960434 110.75723836251115 L 346.3726005554199 108.41130748089978 L 348.5698509812355 106.32786846349399 L 350.7671014070511 104.51292547223557 L 352.96435183286667 102.9717089033798 L 355.0151188969612 101.78413213911739 L 357.06588596105576 100.84185949579307 L 359.1166530251503 100.1472565400453 L 361.16742008924484 99.70206706608343 L 363.2181871533394 99.50740871790873 L 365.26895421743393 99.56377018347962 L 367.3197212815285 99.871009967865 L 369.370488345623 100.42835674846634 L 371.42125540971756 101.23441131141527 L 373.4720224738121 102.28715006428729 L 375.6692728996277 103.68581329081985 L 377.86652332544327 105.3605865542691 L 380.06377375125885 107.30664340672604 L 382.26102417707443 109.51837560125244 L 384.45827460289 111.98940925401638 L 386.6555250287056 114.71262321287901 L 388.9992588162422 117.88648784665594 L 391.34299260377884 121.3279328021357 L 393.68672639131546 125.02567427606954 L 396.1769435405731 129.22177413382883 L 398.6671606898308 133.67798086467002 L 401.3038612008095 138.66147971010963 L 404.0870450735092 144.1952604314088 L 407.01671230793 150.29598790951346 L 410.0928629040718 156.97240715694537 L 413.4619802236557 164.55879195072066 L 417.12406426668167 173.07153199784392 L 421.51856511831284 183.55980042624256 L 427.96383303403854 199.24010029305563 L 436.1669012904167 219.1548008520746 L 440.5614021420479 229.54944475466442 L 444.22348618507385 237.9521672446744 L 447.4461201429367 245.09418788858218 L 450.5222707390785 251.64856018628052 L 453.30545461177826 257.325911110622 L 455.94215512275696 262.4582465032601 L 458.57885563373566 267.3293236083964 L 461.0690727829933 271.6716656341266 L 463.559289932251 275.74686114867495 L 465.9030237197876 279.32478007968245 L 468.2467575073242 282.6409557633949 L 470.59049129486084 285.6845151292165 L 472.7877417206764 288.28137391877937 L 474.984992146492 290.6223657444974 L 477.1822425723076 292.70074421547145 L 479.37949299812317 294.510519753503 L 481.57674342393875 296.04647685417 L 483.6275104880333 297.22907513121737 L 485.67827755212784 298.1663148318802 L 487.7290446162224 298.8558430246753 L 489.7798116803169 299.2959286555383 L 491.83057874441147 299.48546689361814 L 493.881345808506 299.42398190494475 L 495.93211287260056 299.111628047006 L 497.9828799366951 298.5491894812342 L 500.03364700078964 297.73807820437645 L 502.0844140648842 296.68033050369036 L 504.28166449069977 295.27636783669783 L 506.47891491651535 293.59637967186245 L 508.67616534233093 291.6452074856649 L 510.8734157681465 289.4284742666759 L 513.0706661939621 286.95256831093735 L 515.2679166197777 284.2246248118418 L 517.6116504073143 281.04588804003885 L 519.9553841948509 277.59976485539687 L 522.2991179823875 273.89755440013346 L 524.7893351316452 269.69695190023583 L 527.2795522809029 265.23651194701654 L 529.9162527918816 260.24884192028367 L 532.6994366645813 254.71102411830074 L 535.6291038990021 248.6064730968791 L 538.7052544951439 241.92653040156813 L 542.0743718147278 234.33688709543063 L 545.7364558577538 225.8213420645437 L 550.1309567093849 215.33075107242757 L 556.5762246251106 199.6491528217406 L 564.6328095197678 180.08744807765567 L 569.0273103713989 169.68600782213719 L 572.6893944144249 161.27547092790172 L 575.9120283722878 154.1250082777885 L 578.9881789684296 147.56126057942845 L 581.7713628411293 141.87436329027213 L 584.408063352108 136.7320929509957 L 587.0447638630867 131.8502558961619 L 589.5349810123444 127.49703436543115 L 592.025198161602 123.4103035306851 L 594.3689319491386 119.8209669513966 L 596.7126657366753 116.4928679273599 L 599.0563995242119 113.43691862339676 L 599.495849609375 112.89505449355204" stroke-linecap="round" stroke-linejoin="round" stroke-miterlimit="10" stroke-width="2.5" stroke-opacity="0.7" stroke-dasharray=""/></g></g><g id="labels-b1d79e49"/></g></svg>