<svg version="1.1" xmlns="http://www.w3.org/2000/svg" xmlns:xlink="http://www.w3.org/1999/xlink" width="600" height="400"><defs/><g transform="scale(1,1)"><g id="background-4441cf7f"><rect fill="white" stroke="none" x="0" y="0" width="600" height="400" class="dcg-svg-background"/></g><g id="background-images-4441cf7f"/><g id="graphpaper-4441cf7f"><g id="grid-4441cf7f"><g><path fill="none" stroke="rgb(0,0,0)" class="dcg-svg-minor-gridline" paint-order="fill stroke markers" d=" M -0.5 0 L -0.5 400" stroke-opacity="0.12" stroke-miterlimit="10" stroke-dasharray=""/><path fill="none" stroke="rgb(0,0,0)" class="dcg-svg-minor-gridline" paint-order="fill stroke markers" d=" M 29.5 0 L 29.5 400" stroke-opacity="0.12" stroke-miterlimit="10" stroke-dasharray=""/><path fill="none" stroke="rgb(0,0,0)" class="dcg-svg-minor-gridline" paint-order="fill stroke markers" d=" M 59.5 0 L 59.5 400" stroke-opacity="0.12" stroke-miterlimit="10" stroke-dasharray=""/><path fill="none" stroke="rgb(0,0,0)" class="dcg-svg-minor-gridline" paint-order="fill stroke markers" d=" M 89.5 0 L 89.5 400" stroke-opacity="0.12" stroke-miterlimit="10" stroke-dasharray=""/><path fill="none" stroke="rgb(0,0,0)" class="dcg-svg-minor-gridline" paint-order="fill stroke markers" d=" M 119.5 0 L 119.5 400" stroke-opacity="0.12" stroke-miterlimit="10" stroke-dasharray=""/><path fill="none" stroke="rgb(0,0,0)" class="dcg-svg-minor-gridline" paint-order="fill stroke markers" d=" M 149.5 0 L 149.5 400" stroke-opacity="0.12" stroke-miterlimit="10" stroke-dasharray=""/><path fill="none" stroke="rgb(0,0,0)" class="dcg-svg-minor-gridline" paint-order="fill stroke markers" d=" M 179.5 0 L 179.5 400" stroke-opacity="0.12" stroke-miterlimit="10" stroke-dasharray=""/><path fill="none" stroke="rgb(0,0,0)" class="dcg-svg-minor-gridline" paint-order="fill stroke markers" d=" M 209.5 0 L 209.5 400" stroke-opacity="0.12" stroke-miterlimit="10" stroke-dasharray=""/><path fill="none" stroke="rgb(0,0,0)" class="dcg-svg-minor-gridline" paint-order="fill stroke markers" d=" M 239.5 0 L 239.5 400" stroke-opacity="0.12" stroke-miterlimit="10" stroke-dasharray=""/><path fill="none" stroke="rgb(0,0,0)" class="dcg-svg-minor-gridline" paint-order="fill stroke markers" d=" M 269.5 0 L 269.5 400" stroke-opacity="0.12" stroke-miterlimit="10" stroke-dasharray=""/><path fill="none" stroke="rgb(0,0,0)" class="dcg-svg-minor-gridline" paint-order="fill stroke markers" d=" M 329.5 0 L 329.5 400" stroke-opacity="0.12" stroke-miterlimit="10" stroke-dasharray=""/><path fill="none" stroke="rgb(0,0,0)" class="dcg-svg-minor-gridline" paint-order="fill stroke markers" d=" M 359.5 0 L 359.5 400" stroke-opacity="0.12" stroke-miterlimit="10" stroke-dasharray=""/><path fill="none" stroke="rgb(0,0,0)" class="dcg-svg-minor-gridline" paint-order="fill stroke markers" d=" M 389.5 0 L 389.5 400" stroke-opacity="0.12" stroke-miterlimit="10" stroke-dasharray=""/><path fill="none" stroke="rgb(0,0,0)" class="dcg-svg-minor-gridline" paint-order="fill stroke markers" d=" M 419.5 0 L 419.5 400" stroke-opacity="0.12" stroke-miterlimit="10" stroke-dasharray=""/><path fill="none" stroke="rgb(0,0,0)" class="dcg-svg-minor-gridline" paint-order="fill stroke markers" d=" M 449.5 0 L 449.5 400" stroke-opacity="0.12" stroke-miterlimit="10" stroke-dasharray=""/><path fill="none" stroke="rgb(0,0,0)" class="dcg-svg-minor-gridline" paint-order="fill stroke markers" d=" M 479.5 0 L 479.5 400" stroke-opacity="0.12" stroke-miterlimit="10" stroke-dasharray=""/><path fill="none" stroke="rgb(0,0,0)" class="dcg-svg-minor-gridline" paint-order="fill stroke markers" d=" M 509.5 0 L 509.5 400" stroke-opacity="0.12" stroke-miterlimit="10" stroke-dasharray=""/><path fill="none" stroke="rgb(0,0,0)" class="dcg-svg-minor-gridline" paint-order="fill stroke markers" d=" M 539.5 0 L 539.5 400" stroke-opacity="0.12" stroke-miterlimit="10" stroke-dasharray=""/><path fill="none" stroke="rgb(0,0,0)" class="dcg-svg-minor-gridline" paint-order="fill stroke markers" d=" M 569.5 0 L 569.5 400" stroke-opacity="0.12" stroke-miterlimit="10" stroke-dasharray=""/><path fill="none" stroke="rgb(0,0,0)" class="dcg-svg-minor-gridline" paint-order="fill stroke markers" d=" M 0 370.5 L 600 370.5" stroke-opacity="0.12" stroke-miterlimit="10" stroke-dasharray=""/><path fill="none" stroke="rgb(0,0,0)" class="dcg-svg-minor-gridline" paint-order="fill stroke markers" d=" M 0 342.5 L 600 342.5" stroke-opacity="0.12" stroke-miterlimit="10" stroke-dasharray=""/><path fill="none" stroke="rgb(0,0,0)" class="dcg-svg-minor-gridline" paint-order="fill stroke markers" d=" M 0 313.5 L 600 313.5" stroke-opacity="0.12" stroke-miterlimit="10" stroke-dasharray=""/><path fill="none" stroke="rgb(0,0,0)" class="dcg-svg-minor-gridline" paint-order="fill stroke markers" d=" M 0 285.5 L 600 285.5" stroke-opacity="0.12" stroke-miterlimit="10" stroke-dasharray=""/><path fill="none" stroke="rgb(0,0,0)" class="dcg-svg-minor-gridline" paint-order="fill stroke markers" d=" M 0 256.5 L 600 256.5" stroke-opacity="0.12" stroke-miterlimit="10" stroke-dasharray=""/><path fill="none" stroke="rgb(0,0,0)" class="dcg-svg-minor-gridline" paint-order="fill stroke markers" d=" M 0 228.5 L 600 228.5" stroke-opacity="0.12" stroke-miterlimit="10" stroke-dasharray=""/><path fill="none" stroke="rgb(0,0,0)" class="dcg-svg-minor-gridline" paint-order="fill stroke markers" d=" M 0 170.5 L 600 170.5" stroke-opacity="0.12" stroke-miterlimit="10" stroke-dasharray=""/><path fill="none" stroke="rgb(0,0,0)" class="dcg-svg-minor-gridline" paint-order="fill stroke markers" d=" M 0 142.5 L 600 142.5" stroke-opacity="0.12" stroke-miterlimit="10" stroke-dasharray=""/><path fill="none" stroke="rgb(0,0,0)" class="dcg-svg-minor-gridline" paint-order="fill stroke markers" d=" M 0 113.5 L 600 113.5" stroke-opacity="0.12" stroke-miterlimit="10" stroke-dasharray=""/><path fill="none" stroke="rgb(0,0,0)" class="dcg-svg-minor-gridline" paint-order="fill stroke markers" d=" M 0 85.5 L 600 85.5" stroke-opacity="0.12" stroke-miterlimit="10" stroke-dasharray=""/><path fill="none" stroke="rgb(0,0,0)" class="dcg-svg-minor-gridline" paint-order="fill stroke markers" d=" M 0 56.5 L 600 56.5" stroke-opacity="0.12" stroke-miterlimit="10" stroke-dasharray=""/><path fill="none" stroke="rgb(0,0,0)" class="dcg-svg-minor-gridline" paint-order="fill stroke markers" d=" M 0 28.5 L 600 28.5" stroke-opacity="0.12" stroke-miterlimit="10" stroke-dasharray=""/><path fill="none" stroke="rgb(0,0,0)" class="dcg-svg-minor-gridline" paint-order="fill stroke markers" d=" M 0 -0.5 L 600 -0.5" stroke-opacity="0.12" stroke-miterlimit="10" stroke-dasharray=""/><path fill="none" stroke="rgb(0,0,0)" class="dcg-svg-major-gridline" paint-order="fill stroke markers" d=" M -0.5 0 L -0.5 400" stroke-opacity="0.31818181818181823" stroke-miterlimit="10" stroke-dasharray=""/><path fill="none" stroke="rgb(0,0,0)" class="dcg-svg-major-gridline" paint-order="fill stroke markers" d=" M 149.5 0 L 149.5 400" stroke-opacity="0.31818181818181823" stroke-miterlimit="10" stroke-dasharray=""/><path fill="none" stroke="rgb(0,0,0)" class="dcg-svg-major-gridline" paint-order="fill stroke markers" d=" M 449.5 0 L 449.5 400" stroke-opacity="0.31818181818181823" stroke-miterlimit="10" stroke-dasharray=""/><path fill="none" stroke="rgb(0,0,0)" class="dcg-svg-major-gridline" paint-order="fill stroke markers" d=" M 0 342.5 L 600 342.5" stroke-opacity="0.31818181818181823" stroke-miterlimit="10" stroke-dasharray=""/><path fill="none" stroke="rgb(0,0,0)" class="dcg-svg-major-gridline" paint-order="fill stroke markers" d=" M 0 56.5 L 600 56.5" stroke-opacity="0.31818181818181823" stroke-miterlimit="10" stroke-dasharray=""/></g></g><g id="axis-4441cf7f"><path fill="none" stroke="rgb(0,0,0)" class="dcg-svg-axis-line" paint-order="fill stroke markers" d=" M 299.75 0 L 299.75 400" stroke-opacity="0.9" stroke-miterlimit="10" stroke-width="1.5" stroke-dasharray=""/><path fill="none" stroke="rgb(0,0,0)" class="dcg-svg-axis-line" paint-order="fill stroke markers" d=" M 0 199.75 L 600 199.75" stroke-opacity="0.9" stroke-miterlimit="10" stroke-width="1.5" stroke-dasharray=""/><g><g class="dcg-svg-axis-value"><text fill="none" stroke="#ffffff" font-family="Arial" font-size="14px" font-style="normal" font-weight="normal" text-decoration="normal" x="291.10693359375" y="215.808" text-anchor="middle" stroke-miterlimit="2" stroke-width="3" stroke-dasharray="">0</text><text fill="#000000" stroke="none" font-family="Arial" font-size="14px" font-style="normal" font-weight="normal" text-decoration="normal" x="291.10693359375" y="215.808" text-anchor="middle">0</text></g><g class="dcg-svg-axis-value dcg-svg-offcenter-axis-value"><text fill="none" stroke="#ffffff" font-family="Arial" font-size="14px" font-style="normal" font-weight="normal" text-decoration="normal" x="13.1171875" y="215.808" text-anchor="middle" stroke-miterlimit="2" stroke-width="3" stroke-dasharray="">-10</text><text fill="#000000" stroke="none" font-family="Arial" font-size="14px" font-style="normal" font-weight="normal" text-decoration="normal" x="13.1171875" y="215.808" text-anchor="middle">-10</text></g><g class="dcg-svg-axis-value"><text fill="none" stroke="#ffffff" font-family="Arial" font-size="14px" font-style="normal" font-weight="normal" text-decoration="normal" x="147.6689453125" y="215.808" text-anchor="middle" stroke-miterlimit="2" stroke-width="3" stroke-dasharray="">-5</text><text fill="#000000" stroke="none" font-family="Arial" font-size="14px" font-style="normal" font-weight="normal" text-decoration="normal" x="147.6689453125" y="215.808" text-anchor="middle">-5</text></g><g class="dcg-svg-axis-value"><text fill="none" stroke="#ffffff" font-family="Arial" font-size="14px" font-style="normal" font-weight="normal" text-decoration="normal" x="450" y="215.808" text-anchor="middle" stroke-miterlimit="2" stroke-width="3" stroke-dasharray="">5</text><text fill="#000000" stroke="none" font-family="Arial" font-size="14px" font-style="normal" font-weight="normal" text-decoration="normal" x="450" y="215.808" text-anchor="middle">5</text></g><g class="dcg-svg-axis-value dcg-svg-offcenter-axis-value"><text fill="none" stroke="#ffffff" font-family="Arial" font-size="14px" font-style="normal" font-weight="normal" text-decoration="normal" x="589.2138671875" y="215.808" text-anchor="middle" stroke-miterlimit="2" stroke-width="3" stroke-dasharray="">10</text><text fill="#000000" stroke="none" font-family="Arial" font-size="14px" font-style="normal" font-weight="normal" text-decoration="normal" x="589.2138671875" y="215.808" text-anchor="middle">10</text></g><g class="dcg-svg-axis-value"><text fill="none" stroke="#ffffff" font-family="Arial" font-size="14px" font-style="normal" font-weight="normal" text-decoration="normal" x="288.77587890625" y="346.6651428571428" text-anchor="middle" stroke-miterlimit="2" stroke-width="3" stroke-dasharray="">-5</text><text fill="#000000" stroke="none" font-family="Arial" font-size="14px" font-style="normal" font-weight="normal" text-decoration="normal" x="288.77587890625" y="346.6651428571428" text-anchor="middle">-5</text></g><g class="dcg-svg-axis-value"><text fill="none" stroke="#ffffff" font-family="Arial" font-size="14px" font-style="normal" font-weight="normal" text-decoration="normal" x="291.10693359375" y="60.95085714285717" text-anchor="middle" stroke-miterlimit="2" stroke-width="3" stroke-dasharray="">5</text><text fill="#000000" stroke="none" font-family="Arial" font-size="14px" font-style="normal" font-weight="normal" text-decoration="normal" x="291.10693359375" y="60.95085714285717" text-anchor="middle">5</text></g></g></g></g><g id="expressions-4441cf7f"><path fill="#2d70b3" stroke="none" paint-order="stroke fill markers" d="" fill-opacity="0.4"/><g><path fill="none" stroke="#2d70b3" class="dcg-svg-curve" paint-order="fill stroke markers" d=" M -0.5 183.95653968887515 L -0.5 183.95653968887515 L 4.7734375 188.38847959372603 L 11.658203125 194.6676659573657 L 30.84765625 212.43196137347465 L 36.267578125 216.79931597646393 L 40.80859375 220.03031641520005 L 44.763671875 222.46420926643634 L 48.42578125 224.36326864794145 L 51.794921875 225.78416358294274 L 55.017578125 226.83360939034 L 58.09375 227.5415339290033 L 61.0234375 227.94195350329693 L 63.88055098076552 228.07142857142856 L 66.736328125 227.94207450034997 L 69.666015625 227.54177787728656 L 72.595703125 226.8742664852632 L 75.671875 225.89278376358945 L 78.89453125 224.56740142871556 L 82.263671875 222.8730751973179 L 85.92578125 220.69821032472566 L 90.02734375 217.88953126920183 L 94.71484375 214.26272285866713 L 100.28125 209.49648279792453 L 107.8984375 202.45281646956198 L 123.279296875 188.13312796282 L 128.9921875 183.37699074572356 L 133.6796875 179.90281976960205 L 137.78125 177.25198037204683 L 141.58984375 175.16133519823728 L 145.10546875 173.57854624814883 L 148.328125 172.43957056798288 L 151.404296875 171.64323285632676 L 154.333984375 171.15679176585883 L 157.263671875 170.94043782439456 L 160.193359375 170.99623270465432 L 163.123046875 171.32364472793708 L 166.052734375 171.91955393057506 L 169.12890625 172.827980882303 L 172.3515625 174.07998752096086 L 175.720703125 175.70196233523612 L 179.3828125 177.80428542082603 L 183.337890625 180.4364143397923 L 187.87890625 183.86343821046844 L 193.15234375 188.2862115849588 L 200.037109375 194.55820524172796 L 219.373046875 212.45728906425924 L 224.79296875 216.82191859206907 L 229.333984375 220.05006499261003 L 233.2890625 222.48110154574624 L 236.951171875 224.37725362607392 L 240.3203125 225.7952889454238 L 243.54296875 226.84186780053872 L 246.619140625 227.54696641045263 L 249.548828125 227.9446411218166 L 252.478515625 228.07126211330674 L 255.408203125 227.925622792419 L 258.337890625 227.50911098048388 L 261.267578125 226.8256956878859 L 264.34375 225.8280146631184 L 267.56640625 224.48639526024343 L 271.08203125 222.6949121771519 L 274.890625 220.39597109000638 L 278.9921875 217.5452388435043 L 283.6796875 213.8782779766626 L 289.392578125 208.94503505381255 L 297.44921875 201.45160419517464 L 311.21875 188.62095974307454 L 317.078125 183.70055015341347 L 321.912109375 180.08593662620956 L 326.16015625 177.32185358342184 L 329.96875 175.21971004885575 L 333.484375 173.62546881462524 L 336.70703125 172.47542578282074 L 339.783203125 171.66813632857514 L 342.712890625 171.17102005428094 L 345.642578125 170.94385534526168 L 348.572265625 170.9888068918413 L 351.501953125 171.30544634325022 L 354.431640625 171.89075638945118 L 357.5078125 172.78835134614968 L 360.73046875 174.02945858262552 L 364.099609375 175.64066335833024 L 367.76171875 177.7321600695908 L 371.716796875 180.35380663398814 L 376.2578125 183.7705731550898 L 381.53125 188.1841131273914 L 388.416015625 194.44881924546246 L 408.044921875 212.60672355576108 L 413.46484375 216.9551587353728 L 418.005859375 220.16637151669235 L 421.9609375 222.58047718953412 L 425.623046875 224.45940774305578 L 428.9921875 225.86051302938512 L 432.21484375 226.89012598995797 L 435.291015625 227.57850806518013 L 438.220703125 227.9599515789182 L 441.150390625 228.07019547688833 L 444.080078125 227.90818922663655 L 447.009765625 227.47547661268754 L 449.939453125 226.77618102556482 L 453.015625 225.7623361588992 L 456.23828125 224.40452602929602 L 459.75390625 222.5964629266463 L 463.5625 220.28109078956481 L 467.810546875 217.3058468928123 L 472.64453125 213.49031483414086 L 478.50390625 208.38960824196627 L 487 200.44797761564445 L 499.451171875 188.8531043394545 L 505.310546875 183.90995948469 L 510.14453125 180.27054708902773 L 514.392578125 177.48069824032112 L 518.201171875 175.3527345118791 L 521.716796875 173.73274882020783 L 524.939453125 172.55780496304092 L 528.015625 171.72585643357667 L 530.9453125 171.2046876980836 L 533.875 170.9531497032837 L 536.8046875 170.97363939659803 L 539.734375 171.26596152832843 L 542.6640625 171.8273305122246 L 545.740234375 172.70044185344167 L 548.962890625 173.91689435197034 L 552.33203125 175.5037156479612 L 555.994140625 177.5706751368132 L 559.94921875 180.16853105177222 L 564.34375 183.44637471079662 L 569.6171875 187.8269643572283 L 576.35546875 193.928434519554 L 597.15625 213.12502669519355 L 599.5 215.04346031112482" stroke-linecap="round" stroke-linejoin="round" stroke-miterlimit="10" stroke-width="2.5" stroke-opacity="0.7" stroke-dasharray=""/></g><path fill="#388c46" stroke="none" paint-order="stroke fill markers" d="" fill-opacity="0.4"/><g><path fill="none" stroke="#388c46" class="dcg-svg-curve" paint-order="fill stroke markers" d=" M -0.5 175.52652774067278 L -0.5 175.52652774067278 L 3.015625 173.87361917683916 L 6.23828125 172.6667869903182 L 9.314453125 171.803222224189 L 12.244140625 171.25118218396133 L 15.173828125 170.96832983073188 L 18.103515625 170.95736051165542 L 21.033203125 171.21837875519935 L 23.962890625 171.74889727507428 L 27.0390625 172.59042520496226 L 30.115234375 173.7146395661269 L 33.484375 175.25621245062 L 37 177.19012332555002 L 40.955078125 179.73008612749675 L 45.349609375 182.95256805404898 L 50.4765625 187.15481328576328 L 56.921875 192.93195864887488 L 80.359375 214.41672373345605 L 85.33984375 218.23860806137108 L 89.587890625 221.09496518916222 L 93.396484375 223.2898213616376 L 96.912109375 224.9766864489445 L 100.28125 226.26559101314677 L 103.357421875 227.14823875589863 L 106.287109375 227.71893014235334 L 109.216796875 228.0207186464272 L 112.146484375 228.05072847523212 L 115.076171875 227.80867366011418 L 118.005859375 227.29686078169684 L 120.935546875 226.52016699009 L 124.01171875 225.4276925581769 L 127.380859375 223.91915514557252 L 130.896484375 222.01735429520377 L 134.705078125 219.60943497902102 L 138.953125 216.54378060183558 L 143.93359375 212.51998574969613 L 150.0859375 207.0680081117098 L 160.33984375 197.39570406291122 L 169.861328125 188.60841402985562 L 175.720703125 183.68924625709684 L 180.5546875 180.07598341475253 L 184.802734375 177.31330154477251 L 188.611328125 175.21256067452794 L 192.126953125 173.61971688867834 L 195.349609375 172.4710246510429 L 198.42578125 171.66507214872067 L 201.35546875 171.16925929987852 L 204.28515625 170.9434147948331 L 207.21484375 170.9896907434649 L 210.14453125 171.30764617455677 L 213.07421875 171.89425123788197 L 216.150390625 172.7931699028985 L 219.373046875 174.03560935899952 L 222.7421875 175.64813085431533 L 226.404296875 177.7409515551436 L 230.359375 180.36388052150141 L 234.900390625 183.78190260776702 L 240.173828125 188.19657389195206 L 247.05859375 194.462175161668 L 266.6875 212.618779196923 L 272.107421875 216.9658991945088 L 276.6484375 220.17573877059348 L 280.603515625 222.58847266185802 L 284.265625 224.4660087546587 L 287.634765625 225.86574385585556 L 290.857421875 226.89398429376777 L 293.93359375 227.58101451114973 L 296.86328125 227.96114584884492 L 299.79296875 228.07006619037526 L 302.72265625 227.90673761567638 L 305.65234375 227.47271650992275 L 308.58203125 226.7721387324741 L 311.658203125 225.7569892372164 L 314.880859375 224.39787282535497 L 318.396484375 222.58847266185802 L 322.205078125 220.27177626698483 L 326.453125 217.29523306479584 L 331.287109375 213.47848219899308 L 337.146484375 208.37671165480748 L 345.642578125 200.4344158977173 L 358.09375 188.84051376532503 L 363.953125 183.89859018598122 L 368.787109375 180.26051336911766 L 373.03515625 177.47205412826312 L 376.84375 175.34548425648657 L 380.359375 173.7268893214313 L 383.58203125 172.55329141870368 L 386.658203125 171.72267642969985 L 389.587890625 171.20280900146307 L 392.517578125 170.9525902163323 L 395.447265625 170.97440445076 L 398.376953125 171.2680438332754 L 401.306640625 171.83071022532604 L 404.3828125 172.70514896569145 L 407.60546875 173.92293880528948 L 410.974609375 175.5110834845659 L 414.63671875 177.57937562708415 L 418.591796875 180.1785248179904 L 422.986328125 183.45760114894773 L 428.259765625 187.83935062443342 L 434.998046875 193.94174373448286 L 455.798828125 213.13695198293217 L 461.072265625 217.3174516376843 L 465.466796875 220.38671471880994 L 469.421875 222.76822352405756 L 473.083984375 224.61405305849496 L 476.453125 225.98266047192442 L 479.67578125 226.9797427171089 L 482.751953125 227.63610355035522 L 485.681640625 227.9864830895879 L 488.611328125 228.06541018987124 L 491.541015625 227.8721327417292 L 494.470703125 227.40849251813623 L 497.400390625 226.67890762395606 L 500.4765625 225.63426166160139 L 503.69921875 224.24563210747644 L 507.21484375 222.40604869485313 L 511.0234375 220.05948978111957 L 515.271484375 217.05368926702872 L 520.10546875 213.20955565377204 L 525.96484375 208.0839884496567 L 534.75390625 199.84812735623453 L 546.47265625 188.94367069130845 L 552.478515625 183.87479661427417 L 557.3125 180.2395188819096 L 561.560546875 177.45397123059598 L 565.369140625 175.33032136097623 L 568.884765625 173.7146395661269 L 572.107421875 172.54386067199928 L 575.18359375 171.71603844872539 L 578.11328125 171.1988960695234 L 581.04296875 170.95143962040714 L 583.97265625 170.97602715506952 L 586.90234375 171.27242437480004 L 589.83203125 171.83780686115648 L 592.908203125 172.71502426303294 L 596.130859375 173.93561332965126 L 599.5 175.52652774067278" stroke-linecap="round" stroke-linejoin="round" stroke-miterlimit="10" stroke-width="2.5" stroke-opacity="0.7" stroke-dasharray=""/></g></g><g id="labels-4441cf7f"/></g></svg>